%TF.GenerationSoftware,KiCad,Pcbnew,7.0.10*%
%TF.CreationDate,2024-02-20T22:57:10+05:30*%
%TF.ProjectId,DeskHop,4465736b-486f-4702-9e6b-696361645f70,v1*%
%TF.SameCoordinates,Original*%
%TF.FileFunction,Soldermask,Top*%
%TF.FilePolarity,Negative*%
%FSLAX46Y46*%
G04 Gerber Fmt 4.6, Leading zero omitted, Abs format (unit mm)*
G04 Created by KiCad (PCBNEW 7.0.10) date 2024-02-20 22:57:10*
%MOMM*%
%LPD*%
G01*
G04 APERTURE LIST*
G04 Aperture macros list*
%AMRoundRect*
0 Rectangle with rounded corners*
0 $1 Rounding radius*
0 $2 $3 $4 $5 $6 $7 $8 $9 X,Y pos of 4 corners*
0 Add a 4 corners polygon primitive as box body*
4,1,4,$2,$3,$4,$5,$6,$7,$8,$9,$2,$3,0*
0 Add four circle primitives for the rounded corners*
1,1,$1+$1,$2,$3*
1,1,$1+$1,$4,$5*
1,1,$1+$1,$6,$7*
1,1,$1+$1,$8,$9*
0 Add four rect primitives between the rounded corners*
20,1,$1+$1,$2,$3,$4,$5,0*
20,1,$1+$1,$4,$5,$6,$7,0*
20,1,$1+$1,$6,$7,$8,$9,0*
20,1,$1+$1,$8,$9,$2,$3,0*%
G04 Aperture macros list end*
%ADD10C,3.100000*%
%ADD11C,5.400000*%
%ADD12RoundRect,0.250000X-0.412500X-0.650000X0.412500X-0.650000X0.412500X0.650000X-0.412500X0.650000X0*%
%ADD13R,1.600000X1.500000*%
%ADD14C,1.600000*%
%ADD15C,3.000000*%
%ADD16C,1.752600*%
%ADD17RoundRect,0.425000X1.325000X0.425000X-1.325000X0.425000X-1.325000X-0.425000X1.325000X-0.425000X0*%
%ADD18RoundRect,0.425000X-1.325000X-0.425000X1.325000X-0.425000X1.325000X0.425000X-1.325000X0.425000X0*%
%ADD19RoundRect,0.438150X-0.438150X-0.438150X0.438150X-0.438150X0.438150X0.438150X-0.438150X0.438150X0*%
%ADD20RoundRect,0.150000X-0.825000X-0.150000X0.825000X-0.150000X0.825000X0.150000X-0.825000X0.150000X0*%
%ADD21RoundRect,0.250000X0.412500X0.650000X-0.412500X0.650000X-0.412500X-0.650000X0.412500X-0.650000X0*%
G04 APERTURE END LIST*
D10*
%TO.C,H3*%
X67310000Y-45212000D03*
D11*
X67310000Y-45212000D03*
%TD*%
D12*
%TO.C,C2*%
X69041691Y-74877665D03*
X72166691Y-74877665D03*
%TD*%
D13*
%TO.C,J4*%
X45776000Y-101574000D03*
D14*
X48276000Y-101574000D03*
X50276000Y-101574000D03*
X52776000Y-101574000D03*
D15*
X42706000Y-104284000D03*
X55846000Y-104284000D03*
%TD*%
D10*
%TO.C,H2*%
X96774000Y-111506000D03*
D11*
X96774000Y-111506000D03*
%TD*%
D13*
%TO.C,J1*%
X81082000Y-101574000D03*
D14*
X83582000Y-101574000D03*
X85582000Y-101574000D03*
X88082000Y-101574000D03*
D15*
X78012000Y-104284000D03*
X91152000Y-104284000D03*
%TD*%
D16*
%TO.C,MCU2*%
X76454000Y-45974000D03*
D17*
X75554000Y-45974000D03*
D16*
X76454000Y-48514000D03*
D18*
X75554000Y-48514000D03*
D16*
X76454000Y-51054000D03*
D18*
X75554000Y-51054000D03*
D16*
X76454000Y-53594000D03*
D18*
X75554000Y-53594000D03*
D16*
X76454000Y-56134000D03*
D18*
X75554000Y-56134000D03*
D19*
X76454000Y-58674000D03*
D18*
X75554000Y-58674000D03*
D16*
X76454000Y-61214000D03*
D18*
X75554000Y-61214000D03*
D16*
X76454000Y-63754000D03*
D18*
X75554000Y-63754000D03*
D16*
X76454000Y-66294000D03*
D18*
X75554000Y-66294000D03*
D16*
X76454000Y-68834000D03*
D18*
X75554000Y-68834000D03*
D16*
X76454000Y-71374000D03*
D18*
X75554000Y-71374000D03*
D16*
X76454000Y-73914000D03*
D18*
X75554000Y-73914000D03*
D16*
X76454000Y-76454000D03*
D18*
X75554000Y-76454000D03*
D16*
X76454000Y-78994000D03*
D18*
X75554000Y-78994000D03*
D19*
X76454000Y-81534000D03*
D18*
X75554000Y-81534000D03*
D16*
X76454000Y-84074000D03*
D18*
X75554000Y-84074000D03*
D16*
X76454000Y-86614000D03*
D18*
X75554000Y-86614000D03*
D16*
X76454000Y-89154000D03*
D18*
X75554000Y-89154000D03*
D16*
X76454000Y-91694000D03*
D18*
X75554000Y-91694000D03*
D16*
X76454000Y-94234000D03*
D18*
X75554000Y-94234000D03*
D16*
X94234000Y-94234000D03*
D17*
X95134000Y-94234000D03*
D16*
X94234000Y-91694000D03*
D17*
X95134000Y-91694000D03*
D16*
X94234000Y-89154000D03*
D17*
X95134000Y-89154000D03*
D16*
X94234000Y-86614000D03*
D17*
X95134000Y-86614000D03*
D16*
X94234000Y-84074000D03*
D17*
X95134000Y-84074000D03*
D16*
X94234000Y-81534000D03*
D17*
X95134000Y-81534000D03*
D16*
X94234000Y-78994000D03*
D17*
X95134000Y-78994000D03*
D16*
X94234000Y-76454000D03*
D17*
X95134000Y-76454000D03*
D19*
X94234000Y-73914000D03*
D17*
X95134000Y-73914000D03*
D16*
X94234000Y-71374000D03*
D17*
X95134000Y-71374000D03*
D16*
X94234000Y-68834000D03*
D17*
X95134000Y-68834000D03*
D16*
X94234000Y-66294000D03*
D17*
X95134000Y-66294000D03*
D16*
X94234000Y-63754000D03*
D17*
X95134000Y-63754000D03*
D16*
X94234000Y-61214000D03*
D17*
X95134000Y-61214000D03*
D19*
X94234000Y-58674000D03*
D17*
X95134000Y-58674000D03*
D16*
X94234000Y-56134000D03*
D17*
X95134000Y-56134000D03*
D16*
X94234000Y-53594000D03*
D17*
X95134000Y-53594000D03*
D19*
X94234000Y-51054000D03*
D17*
X95134000Y-51054000D03*
D16*
X94234000Y-48514000D03*
D17*
X95134000Y-48514000D03*
D16*
X94234000Y-45974000D03*
D17*
X95134000Y-45974000D03*
%TD*%
D10*
%TO.C,H1*%
X37846000Y-111506000D03*
D11*
X37846000Y-111506000D03*
%TD*%
D20*
%TO.C,U4*%
X64753070Y-82571110D03*
X64753070Y-83841110D03*
X64753070Y-85111110D03*
X64753070Y-86381110D03*
X69703070Y-86381110D03*
X69703070Y-85111110D03*
X69703070Y-83841110D03*
X69703070Y-82571110D03*
%TD*%
D16*
%TO.C,MCU1*%
X39995523Y-45958249D03*
D17*
X39095523Y-45958249D03*
D16*
X39995523Y-48498249D03*
D18*
X39095523Y-48498249D03*
D16*
X39995523Y-51038249D03*
D18*
X39095523Y-51038249D03*
D16*
X39995523Y-53578249D03*
D18*
X39095523Y-53578249D03*
D16*
X39995523Y-56118249D03*
D18*
X39095523Y-56118249D03*
D19*
X39995523Y-58658249D03*
D18*
X39095523Y-58658249D03*
D16*
X39995523Y-61198249D03*
D18*
X39095523Y-61198249D03*
D16*
X39995523Y-63738249D03*
D18*
X39095523Y-63738249D03*
D16*
X39995523Y-66278249D03*
D18*
X39095523Y-66278249D03*
D16*
X39995523Y-68818249D03*
D18*
X39095523Y-68818249D03*
D16*
X39995523Y-71358249D03*
D18*
X39095523Y-71358249D03*
X39095523Y-73898249D03*
D19*
X57775523Y-73898249D03*
D16*
X39995523Y-76438249D03*
D18*
X39095523Y-76438249D03*
D16*
X39995523Y-78978249D03*
D18*
X39095523Y-78978249D03*
D19*
X39995523Y-81518249D03*
D18*
X39095523Y-81518249D03*
D16*
X39995523Y-84058249D03*
D18*
X39095523Y-84058249D03*
D16*
X39995523Y-86598249D03*
D18*
X39095523Y-86598249D03*
D16*
X39995523Y-89138249D03*
D18*
X39095523Y-89138249D03*
D16*
X39995523Y-91678249D03*
D18*
X39095523Y-91678249D03*
D16*
X39995523Y-94218249D03*
D18*
X39095523Y-94218249D03*
D16*
X57775523Y-94218249D03*
D17*
X58675523Y-94218249D03*
D16*
X57775523Y-91678249D03*
D17*
X58675523Y-91678249D03*
D16*
X57775523Y-89138249D03*
D17*
X58675523Y-89138249D03*
D16*
X57775523Y-86598249D03*
D17*
X58675523Y-86598249D03*
D16*
X57775523Y-84058249D03*
D17*
X58675523Y-84058249D03*
D16*
X57775523Y-81518249D03*
D17*
X58675523Y-81518249D03*
D16*
X57775523Y-78978249D03*
D17*
X58675523Y-78978249D03*
D16*
X57775523Y-76438249D03*
D17*
X58675523Y-76438249D03*
D16*
X39995523Y-73898249D03*
D17*
X58675523Y-73898249D03*
D16*
X57775523Y-71358249D03*
D17*
X58675523Y-71358249D03*
D16*
X57775523Y-68818249D03*
D17*
X58675523Y-68818249D03*
D16*
X57775523Y-66278249D03*
D17*
X58675523Y-66278249D03*
D16*
X57775523Y-63738249D03*
D17*
X58675523Y-63738249D03*
D16*
X57775523Y-61198249D03*
D17*
X58675523Y-61198249D03*
D19*
X57775523Y-58658249D03*
D17*
X58675523Y-58658249D03*
D16*
X57775523Y-56118249D03*
D17*
X58675523Y-56118249D03*
D16*
X57775523Y-53578249D03*
D17*
X58675523Y-53578249D03*
D19*
X57775523Y-51038249D03*
D17*
X58675523Y-51038249D03*
D16*
X57775523Y-48498249D03*
D17*
X58675523Y-48498249D03*
D16*
X57775523Y-45958249D03*
D17*
X58675523Y-45958249D03*
%TD*%
D21*
%TO.C,C1*%
X65572536Y-74929999D03*
X62447536Y-74929999D03*
%TD*%
M02*
