M48
METRIC
T1C0.400
T2C0.950
T3C1.092
T4C2.300
T5C2.700
%
G90
G05
T1
X69.061Y-75.014
T2
X45.776Y-101.574
X48.276Y-101.574
X50.276Y-101.574
X52.776Y-101.574
X81.082Y-101.574
X83.582Y-101.574
X85.582Y-101.574
X88.082Y-101.574
T3
X39.996Y-45.958
X39.996Y-48.498
X39.996Y-51.038
X39.996Y-53.578
X39.996Y-56.118
X39.996Y-58.658
X39.996Y-61.198
X39.996Y-63.738
X39.996Y-66.278
X39.996Y-68.818
X39.996Y-71.358
X39.996Y-73.898
X39.996Y-76.438
X39.996Y-78.978
X39.996Y-81.518
X39.996Y-84.058
X39.996Y-86.598
X39.996Y-89.138
X39.996Y-91.678
X39.996Y-94.218
X57.776Y-45.958
X57.776Y-48.498
X57.776Y-51.038
X57.776Y-53.578
X57.776Y-56.118
X57.776Y-58.658
X57.776Y-61.198
X57.776Y-63.738
X57.776Y-66.278
X57.776Y-68.818
X57.776Y-71.358
X57.776Y-73.898
X57.776Y-76.438
X57.776Y-78.978
X57.776Y-81.518
X57.776Y-84.058
X57.776Y-86.598
X57.776Y-89.138
X57.776Y-91.678
X57.776Y-94.218
X76.454Y-45.974
X76.454Y-48.514
X76.454Y-51.054
X76.454Y-53.594
X76.454Y-56.134
X76.454Y-58.674
X76.454Y-61.214
X76.454Y-63.754
X76.454Y-66.294
X76.454Y-68.834
X76.454Y-71.374
X76.454Y-73.914
X76.454Y-76.454
X76.454Y-78.994
X76.454Y-81.534
X76.454Y-84.074
X76.454Y-86.614
X76.454Y-89.154
X76.454Y-91.694
X76.454Y-94.234
X94.234Y-45.974
X94.234Y-48.514
X94.234Y-51.054
X94.234Y-53.594
X94.234Y-56.134
X94.234Y-58.674
X94.234Y-61.214
X94.234Y-63.754
X94.234Y-66.294
X94.234Y-68.834
X94.234Y-71.374
X94.234Y-73.914
X94.234Y-76.454
X94.234Y-78.994
X94.234Y-81.534
X94.234Y-84.074
X94.234Y-86.614
X94.234Y-89.154
X94.234Y-91.694
X94.234Y-94.234
T4
X42.706Y-104.284
X55.846Y-104.284
X78.012Y-104.284
X91.152Y-104.284
T5
X37.846Y-111.506
X67.31Y-45.212
X96.774Y-111.506
M30
