%TF.GenerationSoftware,KiCad,Pcbnew,7.0.10*%
%TF.CreationDate,2024-02-20T22:57:10+05:30*%
%TF.ProjectId,DeskHop,4465736b-486f-4702-9e6b-696361645f70,v1*%
%TF.SameCoordinates,Original*%
%TF.FileFunction,Legend,Bot*%
%TF.FilePolarity,Positive*%
%FSLAX46Y46*%
G04 Gerber Fmt 4.6, Leading zero omitted, Abs format (unit mm)*
G04 Created by KiCad (PCBNEW 7.0.10) date 2024-02-20 22:57:10*
%MOMM*%
%LPD*%
G01*
G04 APERTURE LIST*
G04 Aperture macros list*
%AMRoundRect*
0 Rectangle with rounded corners*
0 $1 Rounding radius*
0 $2 $3 $4 $5 $6 $7 $8 $9 X,Y pos of 4 corners*
0 Add a 4 corners polygon primitive as box body*
4,1,4,$2,$3,$4,$5,$6,$7,$8,$9,$2,$3,0*
0 Add four circle primitives for the rounded corners*
1,1,$1+$1,$2,$3*
1,1,$1+$1,$4,$5*
1,1,$1+$1,$6,$7*
1,1,$1+$1,$8,$9*
0 Add four rect primitives between the rounded corners*
20,1,$1+$1,$2,$3,$4,$5,0*
20,1,$1+$1,$4,$5,$6,$7,0*
20,1,$1+$1,$6,$7,$8,$9,0*
20,1,$1+$1,$8,$9,$2,$3,0*%
G04 Aperture macros list end*
%ADD10C,0.120000*%
%ADD11C,0.108683*%
%ADD12C,0.168999*%
%ADD13C,0.150000*%
%ADD14C,1.752600*%
%ADD15RoundRect,0.438150X-0.438150X-0.438150X0.438150X-0.438150X0.438150X0.438150X-0.438150X0.438150X0*%
G04 APERTURE END LIST*
D10*
X67310000Y-48738426D02*
X67309441Y-50058426D01*
X67309238Y-50538426D02*
X67308679Y-51858426D01*
X67308476Y-52338426D02*
X67307918Y-53658426D01*
X67307715Y-54138426D02*
X67307156Y-55458425D01*
X67306953Y-55938425D02*
X67306394Y-57258425D01*
X67306191Y-57738425D02*
X67305632Y-59058425D01*
X67305429Y-59538425D02*
X67304870Y-60858425D01*
X67304667Y-61338425D02*
X67304109Y-62658425D01*
X67303905Y-63138425D02*
X67303347Y-64458425D01*
X67303144Y-64938425D02*
X67302585Y-66258424D01*
X67302382Y-66738424D02*
X67301823Y-68058424D01*
X67301620Y-68538424D02*
X67301061Y-69858424D01*
X67300858Y-70338424D02*
X67300299Y-71658424D01*
X67300096Y-72138424D02*
X67299538Y-73458424D01*
X67299334Y-73938424D02*
X67298776Y-75258424D01*
X67298573Y-75738424D02*
X67298014Y-77058423D01*
X67297811Y-77538423D02*
X67297252Y-78858423D01*
X67297049Y-79338423D02*
X67296490Y-80658423D01*
X67296287Y-81138423D02*
X67295728Y-82458423D01*
X67295525Y-82938423D02*
X67294967Y-84258423D01*
X67294763Y-84738423D02*
X67294205Y-86058423D01*
X67294002Y-86538423D02*
X67293443Y-87858422D01*
X67293240Y-88338422D02*
X67292681Y-89658422D01*
X67292478Y-90138422D02*
X67291919Y-91458422D01*
X67291716Y-91938422D02*
X67291157Y-93258422D01*
X67290954Y-93738422D02*
X67290396Y-95058422D01*
X67290192Y-95538422D02*
X67289634Y-96858422D01*
X67289431Y-97338422D02*
X67288872Y-98658422D01*
X67288669Y-99138421D02*
X67288110Y-100458421D01*
X67287907Y-100938421D02*
X67287348Y-102258421D01*
X67287145Y-102738421D02*
X67286586Y-104058421D01*
X67286383Y-104538421D02*
X67285825Y-105858421D01*
X67285621Y-106338421D02*
X67285063Y-107658421D01*
X67284860Y-108138421D02*
X67284301Y-109458421D01*
X67284098Y-109938421D02*
X67283539Y-111258420D01*
X67283336Y-111738420D02*
X67282777Y-113058420D01*
X67282574Y-113538420D02*
X67282015Y-114858420D01*
X67281812Y-115338420D02*
X67281783Y-115407659D01*
D11*
X69324317Y-71035565D02*
X69249373Y-71097950D01*
X68519651Y-71254609D02*
X69581463Y-70856430D01*
X69390417Y-70983794D02*
X69324317Y-71035565D01*
D12*
X68663021Y-71961133D02*
X69300000Y-72200000D01*
D11*
X68922524Y-71410094D02*
X68868225Y-71467777D01*
D12*
X67711874Y-71604453D02*
X68348852Y-71843319D01*
D11*
X69249373Y-71097950D02*
X69165938Y-71171656D01*
X68694890Y-71662406D02*
X68633781Y-71734769D01*
D10*
X66937741Y-48748460D02*
X65680288Y-48372564D01*
X65269784Y-48124498D02*
X64352268Y-47186070D01*
X64113515Y-46770080D02*
X63766049Y-45504477D01*
X63758926Y-45024894D02*
X64068655Y-43749530D01*
X64294950Y-43326634D02*
X65184193Y-42361372D01*
X65587149Y-42101225D02*
X66832885Y-41688154D01*
D11*
X69532109Y-70885087D02*
X69494666Y-70909262D01*
X69559293Y-70868695D02*
X69532109Y-70885087D01*
X69494666Y-70909262D02*
X69447318Y-70941929D01*
X69074366Y-71257390D02*
X69025639Y-71304990D01*
X68754364Y-71593844D02*
X68694890Y-71662406D01*
X68975010Y-71355861D02*
X68922524Y-71410094D01*
D10*
X67310000Y-41656000D02*
X67310000Y-41148000D01*
D11*
X68571079Y-71811025D02*
X68506831Y-71891262D01*
X68812157Y-71528997D02*
X68754364Y-71593844D01*
X68441077Y-71975566D02*
X68373863Y-72064028D01*
X69025639Y-71304990D02*
X68975010Y-71355861D01*
X69165938Y-71171656D02*
X69074366Y-71257390D01*
X69581463Y-70856430D02*
X69559293Y-70868695D01*
X67694121Y-71579439D02*
X68519651Y-71254609D01*
X69447318Y-70941929D02*
X69390417Y-70983794D01*
X68506831Y-71891262D02*
X68441077Y-71975566D01*
X68633781Y-71734769D02*
X68571079Y-71811025D01*
X68868225Y-71467777D02*
X68812157Y-71528997D01*
D13*
X64097414Y-55049455D02*
X63347414Y-55049455D01*
X63347414Y-55049455D02*
X63347414Y-55228026D01*
X63347414Y-55228026D02*
X63383128Y-55335169D01*
X63383128Y-55335169D02*
X63454557Y-55406598D01*
X63454557Y-55406598D02*
X63525985Y-55442312D01*
X63525985Y-55442312D02*
X63668842Y-55478026D01*
X63668842Y-55478026D02*
X63775985Y-55478026D01*
X63775985Y-55478026D02*
X63918842Y-55442312D01*
X63918842Y-55442312D02*
X63990271Y-55406598D01*
X63990271Y-55406598D02*
X64061700Y-55335169D01*
X64061700Y-55335169D02*
X64097414Y-55228026D01*
X64097414Y-55228026D02*
X64097414Y-55049455D01*
X64061700Y-56085169D02*
X64097414Y-56013741D01*
X64097414Y-56013741D02*
X64097414Y-55870884D01*
X64097414Y-55870884D02*
X64061700Y-55799455D01*
X64061700Y-55799455D02*
X63990271Y-55763741D01*
X63990271Y-55763741D02*
X63704557Y-55763741D01*
X63704557Y-55763741D02*
X63633128Y-55799455D01*
X63633128Y-55799455D02*
X63597414Y-55870884D01*
X63597414Y-55870884D02*
X63597414Y-56013741D01*
X63597414Y-56013741D02*
X63633128Y-56085169D01*
X63633128Y-56085169D02*
X63704557Y-56120884D01*
X63704557Y-56120884D02*
X63775985Y-56120884D01*
X63775985Y-56120884D02*
X63847414Y-55763741D01*
X64061700Y-56406598D02*
X64097414Y-56478026D01*
X64097414Y-56478026D02*
X64097414Y-56620883D01*
X64097414Y-56620883D02*
X64061700Y-56692312D01*
X64061700Y-56692312D02*
X63990271Y-56728026D01*
X63990271Y-56728026D02*
X63954557Y-56728026D01*
X63954557Y-56728026D02*
X63883128Y-56692312D01*
X63883128Y-56692312D02*
X63847414Y-56620883D01*
X63847414Y-56620883D02*
X63847414Y-56513741D01*
X63847414Y-56513741D02*
X63811700Y-56442312D01*
X63811700Y-56442312D02*
X63740271Y-56406598D01*
X63740271Y-56406598D02*
X63704557Y-56406598D01*
X63704557Y-56406598D02*
X63633128Y-56442312D01*
X63633128Y-56442312D02*
X63597414Y-56513741D01*
X63597414Y-56513741D02*
X63597414Y-56620883D01*
X63597414Y-56620883D02*
X63633128Y-56692312D01*
X64097414Y-57049455D02*
X63347414Y-57049455D01*
X63811700Y-57120884D02*
X64097414Y-57335169D01*
X63597414Y-57335169D02*
X63883128Y-57049455D01*
X64097414Y-57656598D02*
X63347414Y-57656598D01*
X63704557Y-57656598D02*
X63704557Y-58085169D01*
X64097414Y-58085169D02*
X63347414Y-58085169D01*
X64097414Y-58549455D02*
X64061700Y-58478026D01*
X64061700Y-58478026D02*
X64025985Y-58442312D01*
X64025985Y-58442312D02*
X63954557Y-58406598D01*
X63954557Y-58406598D02*
X63740271Y-58406598D01*
X63740271Y-58406598D02*
X63668842Y-58442312D01*
X63668842Y-58442312D02*
X63633128Y-58478026D01*
X63633128Y-58478026D02*
X63597414Y-58549455D01*
X63597414Y-58549455D02*
X63597414Y-58656598D01*
X63597414Y-58656598D02*
X63633128Y-58728026D01*
X63633128Y-58728026D02*
X63668842Y-58763741D01*
X63668842Y-58763741D02*
X63740271Y-58799455D01*
X63740271Y-58799455D02*
X63954557Y-58799455D01*
X63954557Y-58799455D02*
X64025985Y-58763741D01*
X64025985Y-58763741D02*
X64061700Y-58728026D01*
X64061700Y-58728026D02*
X64097414Y-58656598D01*
X64097414Y-58656598D02*
X64097414Y-58549455D01*
X63597414Y-59120883D02*
X64347414Y-59120883D01*
X63633128Y-59120883D02*
X63597414Y-59192312D01*
X63597414Y-59192312D02*
X63597414Y-59335169D01*
X63597414Y-59335169D02*
X63633128Y-59406597D01*
X63633128Y-59406597D02*
X63668842Y-59442312D01*
X63668842Y-59442312D02*
X63740271Y-59478026D01*
X63740271Y-59478026D02*
X63954557Y-59478026D01*
X63954557Y-59478026D02*
X64025985Y-59442312D01*
X64025985Y-59442312D02*
X64061700Y-59406597D01*
X64061700Y-59406597D02*
X64097414Y-59335169D01*
X64097414Y-59335169D02*
X64097414Y-59192312D01*
X64097414Y-59192312D02*
X64061700Y-59120883D01*
X64168842Y-59620883D02*
X64168842Y-60192311D01*
X63347414Y-60263740D02*
X63347414Y-60692312D01*
X64097414Y-60478026D02*
X63347414Y-60478026D01*
X63597414Y-60870883D02*
X64097414Y-61049455D01*
X63597414Y-61228026D02*
X64097414Y-61049455D01*
X64097414Y-61049455D02*
X64275985Y-60978026D01*
X64275985Y-60978026D02*
X64311700Y-60942312D01*
X64311700Y-60942312D02*
X64347414Y-60870883D01*
X63597414Y-61513741D02*
X64347414Y-61513741D01*
X63633128Y-61513741D02*
X63597414Y-61585170D01*
X63597414Y-61585170D02*
X63597414Y-61728027D01*
X63597414Y-61728027D02*
X63633128Y-61799455D01*
X63633128Y-61799455D02*
X63668842Y-61835170D01*
X63668842Y-61835170D02*
X63740271Y-61870884D01*
X63740271Y-61870884D02*
X63954557Y-61870884D01*
X63954557Y-61870884D02*
X64025985Y-61835170D01*
X64025985Y-61835170D02*
X64061700Y-61799455D01*
X64061700Y-61799455D02*
X64097414Y-61728027D01*
X64097414Y-61728027D02*
X64097414Y-61585170D01*
X64097414Y-61585170D02*
X64061700Y-61513741D01*
X64061700Y-62478026D02*
X64097414Y-62406598D01*
X64097414Y-62406598D02*
X64097414Y-62263741D01*
X64097414Y-62263741D02*
X64061700Y-62192312D01*
X64061700Y-62192312D02*
X63990271Y-62156598D01*
X63990271Y-62156598D02*
X63704557Y-62156598D01*
X63704557Y-62156598D02*
X63633128Y-62192312D01*
X63633128Y-62192312D02*
X63597414Y-62263741D01*
X63597414Y-62263741D02*
X63597414Y-62406598D01*
X63597414Y-62406598D02*
X63633128Y-62478026D01*
X63633128Y-62478026D02*
X63704557Y-62513741D01*
X63704557Y-62513741D02*
X63775985Y-62513741D01*
X63775985Y-62513741D02*
X63847414Y-62156598D01*
X63811700Y-62835169D02*
X63811700Y-63406598D01*
X64025985Y-64192311D02*
X64061700Y-64156597D01*
X64061700Y-64156597D02*
X64097414Y-64049454D01*
X64097414Y-64049454D02*
X64097414Y-63978026D01*
X64097414Y-63978026D02*
X64061700Y-63870883D01*
X64061700Y-63870883D02*
X63990271Y-63799454D01*
X63990271Y-63799454D02*
X63918842Y-63763740D01*
X63918842Y-63763740D02*
X63775985Y-63728026D01*
X63775985Y-63728026D02*
X63668842Y-63728026D01*
X63668842Y-63728026D02*
X63525985Y-63763740D01*
X63525985Y-63763740D02*
X63454557Y-63799454D01*
X63454557Y-63799454D02*
X63383128Y-63870883D01*
X63383128Y-63870883D02*
X63347414Y-63978026D01*
X63347414Y-63978026D02*
X63347414Y-64049454D01*
X63347414Y-64049454D02*
X63383128Y-64156597D01*
X63383128Y-64156597D02*
X63418842Y-64192311D01*
X63811700Y-65085169D02*
X63811700Y-65656598D01*
X64097414Y-66585169D02*
X63347414Y-66585169D01*
X64097414Y-67013740D02*
X63668842Y-66692312D01*
X63347414Y-67013740D02*
X63775985Y-66585169D01*
X64061700Y-67620883D02*
X64097414Y-67549455D01*
X64097414Y-67549455D02*
X64097414Y-67406598D01*
X64097414Y-67406598D02*
X64061700Y-67335169D01*
X64061700Y-67335169D02*
X63990271Y-67299455D01*
X63990271Y-67299455D02*
X63704557Y-67299455D01*
X63704557Y-67299455D02*
X63633128Y-67335169D01*
X63633128Y-67335169D02*
X63597414Y-67406598D01*
X63597414Y-67406598D02*
X63597414Y-67549455D01*
X63597414Y-67549455D02*
X63633128Y-67620883D01*
X63633128Y-67620883D02*
X63704557Y-67656598D01*
X63704557Y-67656598D02*
X63775985Y-67656598D01*
X63775985Y-67656598D02*
X63847414Y-67299455D01*
X63597414Y-67906597D02*
X64097414Y-68085169D01*
X63597414Y-68263740D02*
X64097414Y-68085169D01*
X64097414Y-68085169D02*
X64275985Y-68013740D01*
X64275985Y-68013740D02*
X64311700Y-67978026D01*
X64311700Y-67978026D02*
X64347414Y-67906597D01*
X64097414Y-68549455D02*
X63347414Y-68549455D01*
X63633128Y-68549455D02*
X63597414Y-68620884D01*
X63597414Y-68620884D02*
X63597414Y-68763741D01*
X63597414Y-68763741D02*
X63633128Y-68835169D01*
X63633128Y-68835169D02*
X63668842Y-68870884D01*
X63668842Y-68870884D02*
X63740271Y-68906598D01*
X63740271Y-68906598D02*
X63954557Y-68906598D01*
X63954557Y-68906598D02*
X64025985Y-68870884D01*
X64025985Y-68870884D02*
X64061700Y-68835169D01*
X64061700Y-68835169D02*
X64097414Y-68763741D01*
X64097414Y-68763741D02*
X64097414Y-68620884D01*
X64097414Y-68620884D02*
X64061700Y-68549455D01*
X64097414Y-69335169D02*
X64061700Y-69263740D01*
X64061700Y-69263740D02*
X64025985Y-69228026D01*
X64025985Y-69228026D02*
X63954557Y-69192312D01*
X63954557Y-69192312D02*
X63740271Y-69192312D01*
X63740271Y-69192312D02*
X63668842Y-69228026D01*
X63668842Y-69228026D02*
X63633128Y-69263740D01*
X63633128Y-69263740D02*
X63597414Y-69335169D01*
X63597414Y-69335169D02*
X63597414Y-69442312D01*
X63597414Y-69442312D02*
X63633128Y-69513740D01*
X63633128Y-69513740D02*
X63668842Y-69549455D01*
X63668842Y-69549455D02*
X63740271Y-69585169D01*
X63740271Y-69585169D02*
X63954557Y-69585169D01*
X63954557Y-69585169D02*
X64025985Y-69549455D01*
X64025985Y-69549455D02*
X64061700Y-69513740D01*
X64061700Y-69513740D02*
X64097414Y-69442312D01*
X64097414Y-69442312D02*
X64097414Y-69335169D01*
X64097414Y-70228026D02*
X63704557Y-70228026D01*
X63704557Y-70228026D02*
X63633128Y-70192311D01*
X63633128Y-70192311D02*
X63597414Y-70120883D01*
X63597414Y-70120883D02*
X63597414Y-69978026D01*
X63597414Y-69978026D02*
X63633128Y-69906597D01*
X64061700Y-70228026D02*
X64097414Y-70156597D01*
X64097414Y-70156597D02*
X64097414Y-69978026D01*
X64097414Y-69978026D02*
X64061700Y-69906597D01*
X64061700Y-69906597D02*
X63990271Y-69870883D01*
X63990271Y-69870883D02*
X63918842Y-69870883D01*
X63918842Y-69870883D02*
X63847414Y-69906597D01*
X63847414Y-69906597D02*
X63811700Y-69978026D01*
X63811700Y-69978026D02*
X63811700Y-70156597D01*
X63811700Y-70156597D02*
X63775985Y-70228026D01*
X64097414Y-70585168D02*
X63597414Y-70585168D01*
X63740271Y-70585168D02*
X63668842Y-70620882D01*
X63668842Y-70620882D02*
X63633128Y-70656597D01*
X63633128Y-70656597D02*
X63597414Y-70728025D01*
X63597414Y-70728025D02*
X63597414Y-70799454D01*
X64097414Y-71370883D02*
X63347414Y-71370883D01*
X64061700Y-71370883D02*
X64097414Y-71299454D01*
X64097414Y-71299454D02*
X64097414Y-71156597D01*
X64097414Y-71156597D02*
X64061700Y-71085168D01*
X64061700Y-71085168D02*
X64025985Y-71049454D01*
X64025985Y-71049454D02*
X63954557Y-71013740D01*
X63954557Y-71013740D02*
X63740271Y-71013740D01*
X63740271Y-71013740D02*
X63668842Y-71049454D01*
X63668842Y-71049454D02*
X63633128Y-71085168D01*
X63633128Y-71085168D02*
X63597414Y-71156597D01*
X63597414Y-71156597D02*
X63597414Y-71299454D01*
X63597414Y-71299454D02*
X63633128Y-71370883D01*
X63311700Y-72263739D02*
X64275985Y-71620882D01*
X64097414Y-72513739D02*
X63347414Y-72513739D01*
X63347414Y-72513739D02*
X63883128Y-72763739D01*
X63883128Y-72763739D02*
X63347414Y-73013739D01*
X63347414Y-73013739D02*
X64097414Y-73013739D01*
X64097414Y-73478025D02*
X64061700Y-73406596D01*
X64061700Y-73406596D02*
X64025985Y-73370882D01*
X64025985Y-73370882D02*
X63954557Y-73335168D01*
X63954557Y-73335168D02*
X63740271Y-73335168D01*
X63740271Y-73335168D02*
X63668842Y-73370882D01*
X63668842Y-73370882D02*
X63633128Y-73406596D01*
X63633128Y-73406596D02*
X63597414Y-73478025D01*
X63597414Y-73478025D02*
X63597414Y-73585168D01*
X63597414Y-73585168D02*
X63633128Y-73656596D01*
X63633128Y-73656596D02*
X63668842Y-73692311D01*
X63668842Y-73692311D02*
X63740271Y-73728025D01*
X63740271Y-73728025D02*
X63954557Y-73728025D01*
X63954557Y-73728025D02*
X64025985Y-73692311D01*
X64025985Y-73692311D02*
X64061700Y-73656596D01*
X64061700Y-73656596D02*
X64097414Y-73585168D01*
X64097414Y-73585168D02*
X64097414Y-73478025D01*
X63597414Y-74370882D02*
X64097414Y-74370882D01*
X63597414Y-74049453D02*
X63990271Y-74049453D01*
X63990271Y-74049453D02*
X64061700Y-74085167D01*
X64061700Y-74085167D02*
X64097414Y-74156596D01*
X64097414Y-74156596D02*
X64097414Y-74263739D01*
X64097414Y-74263739D02*
X64061700Y-74335167D01*
X64061700Y-74335167D02*
X64025985Y-74370882D01*
X64061700Y-74692310D02*
X64097414Y-74763738D01*
X64097414Y-74763738D02*
X64097414Y-74906595D01*
X64097414Y-74906595D02*
X64061700Y-74978024D01*
X64061700Y-74978024D02*
X63990271Y-75013738D01*
X63990271Y-75013738D02*
X63954557Y-75013738D01*
X63954557Y-75013738D02*
X63883128Y-74978024D01*
X63883128Y-74978024D02*
X63847414Y-74906595D01*
X63847414Y-74906595D02*
X63847414Y-74799453D01*
X63847414Y-74799453D02*
X63811700Y-74728024D01*
X63811700Y-74728024D02*
X63740271Y-74692310D01*
X63740271Y-74692310D02*
X63704557Y-74692310D01*
X63704557Y-74692310D02*
X63633128Y-74728024D01*
X63633128Y-74728024D02*
X63597414Y-74799453D01*
X63597414Y-74799453D02*
X63597414Y-74906595D01*
X63597414Y-74906595D02*
X63633128Y-74978024D01*
X64061700Y-75620881D02*
X64097414Y-75549453D01*
X64097414Y-75549453D02*
X64097414Y-75406596D01*
X64097414Y-75406596D02*
X64061700Y-75335167D01*
X64061700Y-75335167D02*
X63990271Y-75299453D01*
X63990271Y-75299453D02*
X63704557Y-75299453D01*
X63704557Y-75299453D02*
X63633128Y-75335167D01*
X63633128Y-75335167D02*
X63597414Y-75406596D01*
X63597414Y-75406596D02*
X63597414Y-75549453D01*
X63597414Y-75549453D02*
X63633128Y-75620881D01*
X63633128Y-75620881D02*
X63704557Y-75656596D01*
X63704557Y-75656596D02*
X63775985Y-75656596D01*
X63775985Y-75656596D02*
X63847414Y-75299453D01*
X64061700Y-76513739D02*
X64097414Y-76620882D01*
X64097414Y-76620882D02*
X64097414Y-76799453D01*
X64097414Y-76799453D02*
X64061700Y-76870882D01*
X64061700Y-76870882D02*
X64025985Y-76906596D01*
X64025985Y-76906596D02*
X63954557Y-76942310D01*
X63954557Y-76942310D02*
X63883128Y-76942310D01*
X63883128Y-76942310D02*
X63811700Y-76906596D01*
X63811700Y-76906596D02*
X63775985Y-76870882D01*
X63775985Y-76870882D02*
X63740271Y-76799453D01*
X63740271Y-76799453D02*
X63704557Y-76656596D01*
X63704557Y-76656596D02*
X63668842Y-76585167D01*
X63668842Y-76585167D02*
X63633128Y-76549453D01*
X63633128Y-76549453D02*
X63561700Y-76513739D01*
X63561700Y-76513739D02*
X63490271Y-76513739D01*
X63490271Y-76513739D02*
X63418842Y-76549453D01*
X63418842Y-76549453D02*
X63383128Y-76585167D01*
X63383128Y-76585167D02*
X63347414Y-76656596D01*
X63347414Y-76656596D02*
X63347414Y-76835167D01*
X63347414Y-76835167D02*
X63383128Y-76942310D01*
X63597414Y-77192310D02*
X64097414Y-77335168D01*
X64097414Y-77335168D02*
X63740271Y-77478025D01*
X63740271Y-77478025D02*
X64097414Y-77620882D01*
X64097414Y-77620882D02*
X63597414Y-77763739D01*
X64097414Y-78049453D02*
X63597414Y-78049453D01*
X63347414Y-78049453D02*
X63383128Y-78013739D01*
X63383128Y-78013739D02*
X63418842Y-78049453D01*
X63418842Y-78049453D02*
X63383128Y-78085167D01*
X63383128Y-78085167D02*
X63347414Y-78049453D01*
X63347414Y-78049453D02*
X63418842Y-78049453D01*
X63597414Y-78299453D02*
X63597414Y-78585167D01*
X63347414Y-78406596D02*
X63990271Y-78406596D01*
X63990271Y-78406596D02*
X64061700Y-78442310D01*
X64061700Y-78442310D02*
X64097414Y-78513739D01*
X64097414Y-78513739D02*
X64097414Y-78585167D01*
X64061700Y-79156596D02*
X64097414Y-79085167D01*
X64097414Y-79085167D02*
X64097414Y-78942310D01*
X64097414Y-78942310D02*
X64061700Y-78870881D01*
X64061700Y-78870881D02*
X64025985Y-78835167D01*
X64025985Y-78835167D02*
X63954557Y-78799453D01*
X63954557Y-78799453D02*
X63740271Y-78799453D01*
X63740271Y-78799453D02*
X63668842Y-78835167D01*
X63668842Y-78835167D02*
X63633128Y-78870881D01*
X63633128Y-78870881D02*
X63597414Y-78942310D01*
X63597414Y-78942310D02*
X63597414Y-79085167D01*
X63597414Y-79085167D02*
X63633128Y-79156596D01*
X64097414Y-79478024D02*
X63347414Y-79478024D01*
X64097414Y-79799453D02*
X63704557Y-79799453D01*
X63704557Y-79799453D02*
X63633128Y-79763738D01*
X63633128Y-79763738D02*
X63597414Y-79692310D01*
X63597414Y-79692310D02*
X63597414Y-79585167D01*
X63597414Y-79585167D02*
X63633128Y-79513738D01*
X63633128Y-79513738D02*
X63668842Y-79478024D01*
X66512414Y-55049455D02*
X65762414Y-55049455D01*
X66048128Y-55049455D02*
X66012414Y-55120884D01*
X66012414Y-55120884D02*
X66012414Y-55263741D01*
X66012414Y-55263741D02*
X66048128Y-55335169D01*
X66048128Y-55335169D02*
X66083842Y-55370884D01*
X66083842Y-55370884D02*
X66155271Y-55406598D01*
X66155271Y-55406598D02*
X66369557Y-55406598D01*
X66369557Y-55406598D02*
X66440985Y-55370884D01*
X66440985Y-55370884D02*
X66476700Y-55335169D01*
X66476700Y-55335169D02*
X66512414Y-55263741D01*
X66512414Y-55263741D02*
X66512414Y-55120884D01*
X66512414Y-55120884D02*
X66476700Y-55049455D01*
X66012414Y-55656597D02*
X66512414Y-55835169D01*
X66012414Y-56013740D02*
X66512414Y-55835169D01*
X66512414Y-55835169D02*
X66690985Y-55763740D01*
X66690985Y-55763740D02*
X66726700Y-55728026D01*
X66726700Y-55728026D02*
X66762414Y-55656597D01*
X66512414Y-56870884D02*
X65762414Y-56870884D01*
X66119557Y-56870884D02*
X66119557Y-57299455D01*
X66512414Y-57299455D02*
X65762414Y-57299455D01*
X66512414Y-57656598D02*
X66012414Y-57656598D01*
X66155271Y-57656598D02*
X66083842Y-57692312D01*
X66083842Y-57692312D02*
X66048128Y-57728027D01*
X66048128Y-57728027D02*
X66012414Y-57799455D01*
X66012414Y-57799455D02*
X66012414Y-57870884D01*
X66012414Y-58049455D02*
X66512414Y-58228027D01*
X66512414Y-58228027D02*
X66012414Y-58406598D01*
X66512414Y-58799456D02*
X66476700Y-58728027D01*
X66476700Y-58728027D02*
X66440985Y-58692313D01*
X66440985Y-58692313D02*
X66369557Y-58656599D01*
X66369557Y-58656599D02*
X66155271Y-58656599D01*
X66155271Y-58656599D02*
X66083842Y-58692313D01*
X66083842Y-58692313D02*
X66048128Y-58728027D01*
X66048128Y-58728027D02*
X66012414Y-58799456D01*
X66012414Y-58799456D02*
X66012414Y-58906599D01*
X66012414Y-58906599D02*
X66048128Y-58978027D01*
X66048128Y-58978027D02*
X66083842Y-59013742D01*
X66083842Y-59013742D02*
X66155271Y-59049456D01*
X66155271Y-59049456D02*
X66369557Y-59049456D01*
X66369557Y-59049456D02*
X66440985Y-59013742D01*
X66440985Y-59013742D02*
X66476700Y-58978027D01*
X66476700Y-58978027D02*
X66512414Y-58906599D01*
X66512414Y-58906599D02*
X66512414Y-58799456D01*
X66012414Y-59370884D02*
X66655271Y-59370884D01*
X66655271Y-59370884D02*
X66726700Y-59335170D01*
X66726700Y-59335170D02*
X66762414Y-59263741D01*
X66762414Y-59263741D02*
X66762414Y-59228027D01*
X65762414Y-59370884D02*
X65798128Y-59335170D01*
X65798128Y-59335170D02*
X65833842Y-59370884D01*
X65833842Y-59370884D02*
X65798128Y-59406598D01*
X65798128Y-59406598D02*
X65762414Y-59370884D01*
X65762414Y-59370884D02*
X65833842Y-59370884D01*
X66476700Y-60013741D02*
X66512414Y-59942313D01*
X66512414Y-59942313D02*
X66512414Y-59799456D01*
X66512414Y-59799456D02*
X66476700Y-59728027D01*
X66476700Y-59728027D02*
X66405271Y-59692313D01*
X66405271Y-59692313D02*
X66119557Y-59692313D01*
X66119557Y-59692313D02*
X66048128Y-59728027D01*
X66048128Y-59728027D02*
X66012414Y-59799456D01*
X66012414Y-59799456D02*
X66012414Y-59942313D01*
X66012414Y-59942313D02*
X66048128Y-60013741D01*
X66048128Y-60013741D02*
X66119557Y-60049456D01*
X66119557Y-60049456D02*
X66190985Y-60049456D01*
X66190985Y-60049456D02*
X66262414Y-59692313D01*
X66440985Y-61370884D02*
X66476700Y-61335170D01*
X66476700Y-61335170D02*
X66512414Y-61228027D01*
X66512414Y-61228027D02*
X66512414Y-61156599D01*
X66512414Y-61156599D02*
X66476700Y-61049456D01*
X66476700Y-61049456D02*
X66405271Y-60978027D01*
X66405271Y-60978027D02*
X66333842Y-60942313D01*
X66333842Y-60942313D02*
X66190985Y-60906599D01*
X66190985Y-60906599D02*
X66083842Y-60906599D01*
X66083842Y-60906599D02*
X65940985Y-60942313D01*
X65940985Y-60942313D02*
X65869557Y-60978027D01*
X65869557Y-60978027D02*
X65798128Y-61049456D01*
X65798128Y-61049456D02*
X65762414Y-61156599D01*
X65762414Y-61156599D02*
X65762414Y-61228027D01*
X65762414Y-61228027D02*
X65798128Y-61335170D01*
X65798128Y-61335170D02*
X65833842Y-61370884D01*
X66512414Y-62013742D02*
X66119557Y-62013742D01*
X66119557Y-62013742D02*
X66048128Y-61978027D01*
X66048128Y-61978027D02*
X66012414Y-61906599D01*
X66012414Y-61906599D02*
X66012414Y-61763742D01*
X66012414Y-61763742D02*
X66048128Y-61692313D01*
X66476700Y-62013742D02*
X66512414Y-61942313D01*
X66512414Y-61942313D02*
X66512414Y-61763742D01*
X66512414Y-61763742D02*
X66476700Y-61692313D01*
X66476700Y-61692313D02*
X66405271Y-61656599D01*
X66405271Y-61656599D02*
X66333842Y-61656599D01*
X66333842Y-61656599D02*
X66262414Y-61692313D01*
X66262414Y-61692313D02*
X66226700Y-61763742D01*
X66226700Y-61763742D02*
X66226700Y-61942313D01*
X66226700Y-61942313D02*
X66190985Y-62013742D01*
X66012414Y-62299455D02*
X66512414Y-62478027D01*
X66512414Y-62478027D02*
X66012414Y-62656598D01*
X66512414Y-62942313D02*
X66012414Y-62942313D01*
X66155271Y-62942313D02*
X66083842Y-62978027D01*
X66083842Y-62978027D02*
X66048128Y-63013742D01*
X66048128Y-63013742D02*
X66012414Y-63085170D01*
X66012414Y-63085170D02*
X66012414Y-63156599D01*
X66512414Y-63728028D02*
X66119557Y-63728028D01*
X66119557Y-63728028D02*
X66048128Y-63692313D01*
X66048128Y-63692313D02*
X66012414Y-63620885D01*
X66012414Y-63620885D02*
X66012414Y-63478028D01*
X66012414Y-63478028D02*
X66048128Y-63406599D01*
X66476700Y-63728028D02*
X66512414Y-63656599D01*
X66512414Y-63656599D02*
X66512414Y-63478028D01*
X66512414Y-63478028D02*
X66476700Y-63406599D01*
X66476700Y-63406599D02*
X66405271Y-63370885D01*
X66405271Y-63370885D02*
X66333842Y-63370885D01*
X66333842Y-63370885D02*
X66262414Y-63406599D01*
X66262414Y-63406599D02*
X66226700Y-63478028D01*
X66226700Y-63478028D02*
X66226700Y-63656599D01*
X66226700Y-63656599D02*
X66190985Y-63728028D01*
X66512414Y-64085170D02*
X65762414Y-64085170D01*
X66226700Y-64156599D02*
X66512414Y-64370884D01*
X66012414Y-64370884D02*
X66298128Y-64085170D01*
X66476700Y-64728027D02*
X66512414Y-64728027D01*
X66512414Y-64728027D02*
X66583842Y-64692313D01*
X66583842Y-64692313D02*
X66619557Y-64656599D01*
X66512414Y-66013742D02*
X66512414Y-65585171D01*
X66512414Y-65799456D02*
X65762414Y-65799456D01*
X65762414Y-65799456D02*
X65869557Y-65728028D01*
X65869557Y-65728028D02*
X65940985Y-65656599D01*
X65940985Y-65656599D02*
X65976700Y-65585171D01*
X65833842Y-66299457D02*
X65798128Y-66335171D01*
X65798128Y-66335171D02*
X65762414Y-66406600D01*
X65762414Y-66406600D02*
X65762414Y-66585171D01*
X65762414Y-66585171D02*
X65798128Y-66656600D01*
X65798128Y-66656600D02*
X65833842Y-66692314D01*
X65833842Y-66692314D02*
X65905271Y-66728028D01*
X65905271Y-66728028D02*
X65976700Y-66728028D01*
X65976700Y-66728028D02*
X66083842Y-66692314D01*
X66083842Y-66692314D02*
X66512414Y-66263742D01*
X66512414Y-66263742D02*
X66512414Y-66728028D01*
X65726700Y-67585171D02*
X66690985Y-66942314D01*
X65833842Y-67799457D02*
X65798128Y-67835171D01*
X65798128Y-67835171D02*
X65762414Y-67906600D01*
X65762414Y-67906600D02*
X65762414Y-68085171D01*
X65762414Y-68085171D02*
X65798128Y-68156600D01*
X65798128Y-68156600D02*
X65833842Y-68192314D01*
X65833842Y-68192314D02*
X65905271Y-68228028D01*
X65905271Y-68228028D02*
X65976700Y-68228028D01*
X65976700Y-68228028D02*
X66083842Y-68192314D01*
X66083842Y-68192314D02*
X66512414Y-67763742D01*
X66512414Y-67763742D02*
X66512414Y-68228028D01*
X65762414Y-68692314D02*
X65762414Y-68763743D01*
X65762414Y-68763743D02*
X65798128Y-68835171D01*
X65798128Y-68835171D02*
X65833842Y-68870886D01*
X65833842Y-68870886D02*
X65905271Y-68906600D01*
X65905271Y-68906600D02*
X66048128Y-68942314D01*
X66048128Y-68942314D02*
X66226700Y-68942314D01*
X66226700Y-68942314D02*
X66369557Y-68906600D01*
X66369557Y-68906600D02*
X66440985Y-68870886D01*
X66440985Y-68870886D02*
X66476700Y-68835171D01*
X66476700Y-68835171D02*
X66512414Y-68763743D01*
X66512414Y-68763743D02*
X66512414Y-68692314D01*
X66512414Y-68692314D02*
X66476700Y-68620886D01*
X66476700Y-68620886D02*
X66440985Y-68585171D01*
X66440985Y-68585171D02*
X66369557Y-68549457D01*
X66369557Y-68549457D02*
X66226700Y-68513743D01*
X66226700Y-68513743D02*
X66048128Y-68513743D01*
X66048128Y-68513743D02*
X65905271Y-68549457D01*
X65905271Y-68549457D02*
X65833842Y-68585171D01*
X65833842Y-68585171D02*
X65798128Y-68620886D01*
X65798128Y-68620886D02*
X65762414Y-68692314D01*
X65833842Y-69228029D02*
X65798128Y-69263743D01*
X65798128Y-69263743D02*
X65762414Y-69335172D01*
X65762414Y-69335172D02*
X65762414Y-69513743D01*
X65762414Y-69513743D02*
X65798128Y-69585172D01*
X65798128Y-69585172D02*
X65833842Y-69620886D01*
X65833842Y-69620886D02*
X65905271Y-69656600D01*
X65905271Y-69656600D02*
X65976700Y-69656600D01*
X65976700Y-69656600D02*
X66083842Y-69620886D01*
X66083842Y-69620886D02*
X66512414Y-69192314D01*
X66512414Y-69192314D02*
X66512414Y-69656600D01*
X65762414Y-69906600D02*
X65762414Y-70370886D01*
X65762414Y-70370886D02*
X66048128Y-70120886D01*
X66048128Y-70120886D02*
X66048128Y-70228029D01*
X66048128Y-70228029D02*
X66083842Y-70299458D01*
X66083842Y-70299458D02*
X66119557Y-70335172D01*
X66119557Y-70335172D02*
X66190985Y-70370886D01*
X66190985Y-70370886D02*
X66369557Y-70370886D01*
X66369557Y-70370886D02*
X66440985Y-70335172D01*
X66440985Y-70335172D02*
X66476700Y-70299458D01*
X66476700Y-70299458D02*
X66512414Y-70228029D01*
X66512414Y-70228029D02*
X66512414Y-70013743D01*
X66512414Y-70013743D02*
X66476700Y-69942315D01*
X66476700Y-69942315D02*
X66440985Y-69906600D01*
X66798128Y-71478030D02*
X66762414Y-71442315D01*
X66762414Y-71442315D02*
X66655271Y-71370887D01*
X66655271Y-71370887D02*
X66583842Y-71335173D01*
X66583842Y-71335173D02*
X66476700Y-71299458D01*
X66476700Y-71299458D02*
X66298128Y-71263744D01*
X66298128Y-71263744D02*
X66155271Y-71263744D01*
X66155271Y-71263744D02*
X65976700Y-71299458D01*
X65976700Y-71299458D02*
X65869557Y-71335173D01*
X65869557Y-71335173D02*
X65798128Y-71370887D01*
X65798128Y-71370887D02*
X65690985Y-71442315D01*
X65690985Y-71442315D02*
X65655271Y-71478030D01*
X66512414Y-71763744D02*
X65762414Y-71763744D01*
X66512414Y-72085173D02*
X66119557Y-72085173D01*
X66119557Y-72085173D02*
X66048128Y-72049458D01*
X66048128Y-72049458D02*
X66012414Y-71978030D01*
X66012414Y-71978030D02*
X66012414Y-71870887D01*
X66012414Y-71870887D02*
X66048128Y-71799458D01*
X66048128Y-71799458D02*
X66083842Y-71763744D01*
X66012414Y-72335172D02*
X66012414Y-72620886D01*
X65762414Y-72442315D02*
X66405271Y-72442315D01*
X66405271Y-72442315D02*
X66476700Y-72478029D01*
X66476700Y-72478029D02*
X66512414Y-72549458D01*
X66512414Y-72549458D02*
X66512414Y-72620886D01*
X66012414Y-72763743D02*
X66012414Y-73049457D01*
X65762414Y-72870886D02*
X66405271Y-72870886D01*
X66405271Y-72870886D02*
X66476700Y-72906600D01*
X66476700Y-72906600D02*
X66512414Y-72978029D01*
X66512414Y-72978029D02*
X66512414Y-73049457D01*
X66012414Y-73299457D02*
X66762414Y-73299457D01*
X66048128Y-73299457D02*
X66012414Y-73370886D01*
X66012414Y-73370886D02*
X66012414Y-73513743D01*
X66012414Y-73513743D02*
X66048128Y-73585171D01*
X66048128Y-73585171D02*
X66083842Y-73620886D01*
X66083842Y-73620886D02*
X66155271Y-73656600D01*
X66155271Y-73656600D02*
X66369557Y-73656600D01*
X66369557Y-73656600D02*
X66440985Y-73620886D01*
X66440985Y-73620886D02*
X66476700Y-73585171D01*
X66476700Y-73585171D02*
X66512414Y-73513743D01*
X66512414Y-73513743D02*
X66512414Y-73370886D01*
X66512414Y-73370886D02*
X66476700Y-73299457D01*
X66476700Y-73942314D02*
X66512414Y-74013742D01*
X66512414Y-74013742D02*
X66512414Y-74156599D01*
X66512414Y-74156599D02*
X66476700Y-74228028D01*
X66476700Y-74228028D02*
X66405271Y-74263742D01*
X66405271Y-74263742D02*
X66369557Y-74263742D01*
X66369557Y-74263742D02*
X66298128Y-74228028D01*
X66298128Y-74228028D02*
X66262414Y-74156599D01*
X66262414Y-74156599D02*
X66262414Y-74049457D01*
X66262414Y-74049457D02*
X66226700Y-73978028D01*
X66226700Y-73978028D02*
X66155271Y-73942314D01*
X66155271Y-73942314D02*
X66119557Y-73942314D01*
X66119557Y-73942314D02*
X66048128Y-73978028D01*
X66048128Y-73978028D02*
X66012414Y-74049457D01*
X66012414Y-74049457D02*
X66012414Y-74156599D01*
X66012414Y-74156599D02*
X66048128Y-74228028D01*
X66440985Y-74585171D02*
X66476700Y-74620885D01*
X66476700Y-74620885D02*
X66512414Y-74585171D01*
X66512414Y-74585171D02*
X66476700Y-74549457D01*
X66476700Y-74549457D02*
X66440985Y-74585171D01*
X66440985Y-74585171D02*
X66512414Y-74585171D01*
X66048128Y-74585171D02*
X66083842Y-74620885D01*
X66083842Y-74620885D02*
X66119557Y-74585171D01*
X66119557Y-74585171D02*
X66083842Y-74549457D01*
X66083842Y-74549457D02*
X66048128Y-74585171D01*
X66048128Y-74585171D02*
X66119557Y-74585171D01*
X65726700Y-75478028D02*
X66690985Y-74835171D01*
X65726700Y-76263742D02*
X66690985Y-75620885D01*
X66012414Y-76835171D02*
X66619557Y-76835171D01*
X66619557Y-76835171D02*
X66690985Y-76799456D01*
X66690985Y-76799456D02*
X66726700Y-76763742D01*
X66726700Y-76763742D02*
X66762414Y-76692313D01*
X66762414Y-76692313D02*
X66762414Y-76585171D01*
X66762414Y-76585171D02*
X66726700Y-76513742D01*
X66476700Y-76835171D02*
X66512414Y-76763742D01*
X66512414Y-76763742D02*
X66512414Y-76620885D01*
X66512414Y-76620885D02*
X66476700Y-76549456D01*
X66476700Y-76549456D02*
X66440985Y-76513742D01*
X66440985Y-76513742D02*
X66369557Y-76478028D01*
X66369557Y-76478028D02*
X66155271Y-76478028D01*
X66155271Y-76478028D02*
X66083842Y-76513742D01*
X66083842Y-76513742D02*
X66048128Y-76549456D01*
X66048128Y-76549456D02*
X66012414Y-76620885D01*
X66012414Y-76620885D02*
X66012414Y-76763742D01*
X66012414Y-76763742D02*
X66048128Y-76835171D01*
X66512414Y-77192313D02*
X66012414Y-77192313D01*
X65762414Y-77192313D02*
X65798128Y-77156599D01*
X65798128Y-77156599D02*
X65833842Y-77192313D01*
X65833842Y-77192313D02*
X65798128Y-77228027D01*
X65798128Y-77228027D02*
X65762414Y-77192313D01*
X65762414Y-77192313D02*
X65833842Y-77192313D01*
X66012414Y-77442313D02*
X66012414Y-77728027D01*
X65762414Y-77549456D02*
X66405271Y-77549456D01*
X66405271Y-77549456D02*
X66476700Y-77585170D01*
X66476700Y-77585170D02*
X66512414Y-77656599D01*
X66512414Y-77656599D02*
X66512414Y-77728027D01*
X66512414Y-77978027D02*
X65762414Y-77978027D01*
X66512414Y-78299456D02*
X66119557Y-78299456D01*
X66119557Y-78299456D02*
X66048128Y-78263741D01*
X66048128Y-78263741D02*
X66012414Y-78192313D01*
X66012414Y-78192313D02*
X66012414Y-78085170D01*
X66012414Y-78085170D02*
X66048128Y-78013741D01*
X66048128Y-78013741D02*
X66083842Y-77978027D01*
X66012414Y-78978027D02*
X66512414Y-78978027D01*
X66012414Y-78656598D02*
X66405271Y-78656598D01*
X66405271Y-78656598D02*
X66476700Y-78692312D01*
X66476700Y-78692312D02*
X66512414Y-78763741D01*
X66512414Y-78763741D02*
X66512414Y-78870884D01*
X66512414Y-78870884D02*
X66476700Y-78942312D01*
X66476700Y-78942312D02*
X66440985Y-78978027D01*
X66512414Y-79335169D02*
X65762414Y-79335169D01*
X66048128Y-79335169D02*
X66012414Y-79406598D01*
X66012414Y-79406598D02*
X66012414Y-79549455D01*
X66012414Y-79549455D02*
X66048128Y-79620883D01*
X66048128Y-79620883D02*
X66083842Y-79656598D01*
X66083842Y-79656598D02*
X66155271Y-79692312D01*
X66155271Y-79692312D02*
X66369557Y-79692312D01*
X66369557Y-79692312D02*
X66440985Y-79656598D01*
X66440985Y-79656598D02*
X66476700Y-79620883D01*
X66476700Y-79620883D02*
X66512414Y-79549455D01*
X66512414Y-79549455D02*
X66512414Y-79406598D01*
X66512414Y-79406598D02*
X66476700Y-79335169D01*
X66440985Y-80013740D02*
X66476700Y-80049454D01*
X66476700Y-80049454D02*
X66512414Y-80013740D01*
X66512414Y-80013740D02*
X66476700Y-79978026D01*
X66476700Y-79978026D02*
X66440985Y-80013740D01*
X66440985Y-80013740D02*
X66512414Y-80013740D01*
X66476700Y-80692312D02*
X66512414Y-80620883D01*
X66512414Y-80620883D02*
X66512414Y-80478026D01*
X66512414Y-80478026D02*
X66476700Y-80406597D01*
X66476700Y-80406597D02*
X66440985Y-80370883D01*
X66440985Y-80370883D02*
X66369557Y-80335169D01*
X66369557Y-80335169D02*
X66155271Y-80335169D01*
X66155271Y-80335169D02*
X66083842Y-80370883D01*
X66083842Y-80370883D02*
X66048128Y-80406597D01*
X66048128Y-80406597D02*
X66012414Y-80478026D01*
X66012414Y-80478026D02*
X66012414Y-80620883D01*
X66012414Y-80620883D02*
X66048128Y-80692312D01*
X66512414Y-81120883D02*
X66476700Y-81049454D01*
X66476700Y-81049454D02*
X66440985Y-81013740D01*
X66440985Y-81013740D02*
X66369557Y-80978026D01*
X66369557Y-80978026D02*
X66155271Y-80978026D01*
X66155271Y-80978026D02*
X66083842Y-81013740D01*
X66083842Y-81013740D02*
X66048128Y-81049454D01*
X66048128Y-81049454D02*
X66012414Y-81120883D01*
X66012414Y-81120883D02*
X66012414Y-81228026D01*
X66012414Y-81228026D02*
X66048128Y-81299454D01*
X66048128Y-81299454D02*
X66083842Y-81335169D01*
X66083842Y-81335169D02*
X66155271Y-81370883D01*
X66155271Y-81370883D02*
X66369557Y-81370883D01*
X66369557Y-81370883D02*
X66440985Y-81335169D01*
X66440985Y-81335169D02*
X66476700Y-81299454D01*
X66476700Y-81299454D02*
X66512414Y-81228026D01*
X66512414Y-81228026D02*
X66512414Y-81120883D01*
X66512414Y-81692311D02*
X66012414Y-81692311D01*
X66083842Y-81692311D02*
X66048128Y-81728025D01*
X66048128Y-81728025D02*
X66012414Y-81799454D01*
X66012414Y-81799454D02*
X66012414Y-81906597D01*
X66012414Y-81906597D02*
X66048128Y-81978025D01*
X66048128Y-81978025D02*
X66119557Y-82013740D01*
X66119557Y-82013740D02*
X66512414Y-82013740D01*
X66119557Y-82013740D02*
X66048128Y-82049454D01*
X66048128Y-82049454D02*
X66012414Y-82120882D01*
X66012414Y-82120882D02*
X66012414Y-82228025D01*
X66012414Y-82228025D02*
X66048128Y-82299454D01*
X66048128Y-82299454D02*
X66119557Y-82335168D01*
X66119557Y-82335168D02*
X66512414Y-82335168D01*
X65726700Y-83228025D02*
X66690985Y-82585168D01*
X66512414Y-83478025D02*
X65762414Y-83478025D01*
X66512414Y-83799454D02*
X66119557Y-83799454D01*
X66119557Y-83799454D02*
X66048128Y-83763739D01*
X66048128Y-83763739D02*
X66012414Y-83692311D01*
X66012414Y-83692311D02*
X66012414Y-83585168D01*
X66012414Y-83585168D02*
X66048128Y-83513739D01*
X66048128Y-83513739D02*
X66083842Y-83478025D01*
X66512414Y-84156596D02*
X66012414Y-84156596D01*
X66155271Y-84156596D02*
X66083842Y-84192310D01*
X66083842Y-84192310D02*
X66048128Y-84228025D01*
X66048128Y-84228025D02*
X66012414Y-84299453D01*
X66012414Y-84299453D02*
X66012414Y-84370882D01*
X66012414Y-84549453D02*
X66512414Y-84728025D01*
X66512414Y-84728025D02*
X66012414Y-84906596D01*
X66512414Y-85513740D02*
X66119557Y-85513740D01*
X66119557Y-85513740D02*
X66048128Y-85478025D01*
X66048128Y-85478025D02*
X66012414Y-85406597D01*
X66012414Y-85406597D02*
X66012414Y-85263740D01*
X66012414Y-85263740D02*
X66048128Y-85192311D01*
X66476700Y-85513740D02*
X66512414Y-85442311D01*
X66512414Y-85442311D02*
X66512414Y-85263740D01*
X66512414Y-85263740D02*
X66476700Y-85192311D01*
X66476700Y-85192311D02*
X66405271Y-85156597D01*
X66405271Y-85156597D02*
X66333842Y-85156597D01*
X66333842Y-85156597D02*
X66262414Y-85192311D01*
X66262414Y-85192311D02*
X66226700Y-85263740D01*
X66226700Y-85263740D02*
X66226700Y-85442311D01*
X66226700Y-85442311D02*
X66190985Y-85513740D01*
X66476700Y-86192311D02*
X66512414Y-86120882D01*
X66512414Y-86120882D02*
X66512414Y-85978025D01*
X66512414Y-85978025D02*
X66476700Y-85906596D01*
X66476700Y-85906596D02*
X66440985Y-85870882D01*
X66440985Y-85870882D02*
X66369557Y-85835168D01*
X66369557Y-85835168D02*
X66155271Y-85835168D01*
X66155271Y-85835168D02*
X66083842Y-85870882D01*
X66083842Y-85870882D02*
X66048128Y-85906596D01*
X66048128Y-85906596D02*
X66012414Y-85978025D01*
X66012414Y-85978025D02*
X66012414Y-86120882D01*
X66012414Y-86120882D02*
X66048128Y-86192311D01*
X66512414Y-86513739D02*
X65762414Y-86513739D01*
X66512414Y-86835168D02*
X66119557Y-86835168D01*
X66119557Y-86835168D02*
X66048128Y-86799453D01*
X66048128Y-86799453D02*
X66012414Y-86728025D01*
X66012414Y-86728025D02*
X66012414Y-86620882D01*
X66012414Y-86620882D02*
X66048128Y-86549453D01*
X66048128Y-86549453D02*
X66083842Y-86513739D01*
X66798128Y-87120881D02*
X66762414Y-87156596D01*
X66762414Y-87156596D02*
X66655271Y-87228024D01*
X66655271Y-87228024D02*
X66583842Y-87263739D01*
X66583842Y-87263739D02*
X66476700Y-87299453D01*
X66476700Y-87299453D02*
X66298128Y-87335167D01*
X66298128Y-87335167D02*
X66155271Y-87335167D01*
X66155271Y-87335167D02*
X65976700Y-87299453D01*
X65976700Y-87299453D02*
X65869557Y-87263739D01*
X65869557Y-87263739D02*
X65798128Y-87228024D01*
X65798128Y-87228024D02*
X65690985Y-87156596D01*
X65690985Y-87156596D02*
X65655271Y-87120881D01*
X68927414Y-55049455D02*
X68177414Y-55049455D01*
X68177414Y-55049455D02*
X68713128Y-55299455D01*
X68713128Y-55299455D02*
X68177414Y-55549455D01*
X68177414Y-55549455D02*
X68927414Y-55549455D01*
X68927414Y-56013741D02*
X68891700Y-55942312D01*
X68891700Y-55942312D02*
X68855985Y-55906598D01*
X68855985Y-55906598D02*
X68784557Y-55870884D01*
X68784557Y-55870884D02*
X68570271Y-55870884D01*
X68570271Y-55870884D02*
X68498842Y-55906598D01*
X68498842Y-55906598D02*
X68463128Y-55942312D01*
X68463128Y-55942312D02*
X68427414Y-56013741D01*
X68427414Y-56013741D02*
X68427414Y-56120884D01*
X68427414Y-56120884D02*
X68463128Y-56192312D01*
X68463128Y-56192312D02*
X68498842Y-56228027D01*
X68498842Y-56228027D02*
X68570271Y-56263741D01*
X68570271Y-56263741D02*
X68784557Y-56263741D01*
X68784557Y-56263741D02*
X68855985Y-56228027D01*
X68855985Y-56228027D02*
X68891700Y-56192312D01*
X68891700Y-56192312D02*
X68927414Y-56120884D01*
X68927414Y-56120884D02*
X68927414Y-56013741D01*
X68927414Y-56906598D02*
X68177414Y-56906598D01*
X68891700Y-56906598D02*
X68927414Y-56835169D01*
X68927414Y-56835169D02*
X68927414Y-56692312D01*
X68927414Y-56692312D02*
X68891700Y-56620883D01*
X68891700Y-56620883D02*
X68855985Y-56585169D01*
X68855985Y-56585169D02*
X68784557Y-56549455D01*
X68784557Y-56549455D02*
X68570271Y-56549455D01*
X68570271Y-56549455D02*
X68498842Y-56585169D01*
X68498842Y-56585169D02*
X68463128Y-56620883D01*
X68463128Y-56620883D02*
X68427414Y-56692312D01*
X68427414Y-56692312D02*
X68427414Y-56835169D01*
X68427414Y-56835169D02*
X68463128Y-56906598D01*
X68927414Y-57263740D02*
X68427414Y-57263740D01*
X68177414Y-57263740D02*
X68213128Y-57228026D01*
X68213128Y-57228026D02*
X68248842Y-57263740D01*
X68248842Y-57263740D02*
X68213128Y-57299454D01*
X68213128Y-57299454D02*
X68177414Y-57263740D01*
X68177414Y-57263740D02*
X68248842Y-57263740D01*
X68427414Y-57513740D02*
X68427414Y-57799454D01*
X68927414Y-57620883D02*
X68284557Y-57620883D01*
X68284557Y-57620883D02*
X68213128Y-57656597D01*
X68213128Y-57656597D02*
X68177414Y-57728026D01*
X68177414Y-57728026D02*
X68177414Y-57799454D01*
X68927414Y-58049454D02*
X68427414Y-58049454D01*
X68177414Y-58049454D02*
X68213128Y-58013740D01*
X68213128Y-58013740D02*
X68248842Y-58049454D01*
X68248842Y-58049454D02*
X68213128Y-58085168D01*
X68213128Y-58085168D02*
X68177414Y-58049454D01*
X68177414Y-58049454D02*
X68248842Y-58049454D01*
X68891700Y-58692311D02*
X68927414Y-58620883D01*
X68927414Y-58620883D02*
X68927414Y-58478026D01*
X68927414Y-58478026D02*
X68891700Y-58406597D01*
X68891700Y-58406597D02*
X68820271Y-58370883D01*
X68820271Y-58370883D02*
X68534557Y-58370883D01*
X68534557Y-58370883D02*
X68463128Y-58406597D01*
X68463128Y-58406597D02*
X68427414Y-58478026D01*
X68427414Y-58478026D02*
X68427414Y-58620883D01*
X68427414Y-58620883D02*
X68463128Y-58692311D01*
X68463128Y-58692311D02*
X68534557Y-58728026D01*
X68534557Y-58728026D02*
X68605985Y-58728026D01*
X68605985Y-58728026D02*
X68677414Y-58370883D01*
X68927414Y-59370883D02*
X68177414Y-59370883D01*
X68891700Y-59370883D02*
X68927414Y-59299454D01*
X68927414Y-59299454D02*
X68927414Y-59156597D01*
X68927414Y-59156597D02*
X68891700Y-59085168D01*
X68891700Y-59085168D02*
X68855985Y-59049454D01*
X68855985Y-59049454D02*
X68784557Y-59013740D01*
X68784557Y-59013740D02*
X68570271Y-59013740D01*
X68570271Y-59013740D02*
X68498842Y-59049454D01*
X68498842Y-59049454D02*
X68463128Y-59085168D01*
X68463128Y-59085168D02*
X68427414Y-59156597D01*
X68427414Y-59156597D02*
X68427414Y-59299454D01*
X68427414Y-59299454D02*
X68463128Y-59370883D01*
X68927414Y-60299454D02*
X68177414Y-60299454D01*
X68463128Y-60299454D02*
X68427414Y-60370883D01*
X68427414Y-60370883D02*
X68427414Y-60513740D01*
X68427414Y-60513740D02*
X68463128Y-60585168D01*
X68463128Y-60585168D02*
X68498842Y-60620883D01*
X68498842Y-60620883D02*
X68570271Y-60656597D01*
X68570271Y-60656597D02*
X68784557Y-60656597D01*
X68784557Y-60656597D02*
X68855985Y-60620883D01*
X68855985Y-60620883D02*
X68891700Y-60585168D01*
X68891700Y-60585168D02*
X68927414Y-60513740D01*
X68927414Y-60513740D02*
X68927414Y-60370883D01*
X68927414Y-60370883D02*
X68891700Y-60299454D01*
X68427414Y-60906596D02*
X68927414Y-61085168D01*
X68427414Y-61263739D02*
X68927414Y-61085168D01*
X68927414Y-61085168D02*
X69105985Y-61013739D01*
X69105985Y-61013739D02*
X69141700Y-60978025D01*
X69141700Y-60978025D02*
X69177414Y-60906596D01*
X68641700Y-62013740D02*
X68605985Y-62049454D01*
X68605985Y-62049454D02*
X68570271Y-62120883D01*
X68570271Y-62120883D02*
X68641700Y-62263740D01*
X68641700Y-62263740D02*
X68605985Y-62335169D01*
X68605985Y-62335169D02*
X68570271Y-62370883D01*
X68177414Y-63228026D02*
X68784557Y-63228026D01*
X68784557Y-63228026D02*
X68855985Y-63263740D01*
X68855985Y-63263740D02*
X68891700Y-63299455D01*
X68891700Y-63299455D02*
X68927414Y-63370883D01*
X68927414Y-63370883D02*
X68927414Y-63513740D01*
X68927414Y-63513740D02*
X68891700Y-63585169D01*
X68891700Y-63585169D02*
X68855985Y-63620883D01*
X68855985Y-63620883D02*
X68784557Y-63656597D01*
X68784557Y-63656597D02*
X68177414Y-63656597D01*
X68927414Y-64013740D02*
X68427414Y-64013740D01*
X68498842Y-64013740D02*
X68463128Y-64049454D01*
X68463128Y-64049454D02*
X68427414Y-64120883D01*
X68427414Y-64120883D02*
X68427414Y-64228026D01*
X68427414Y-64228026D02*
X68463128Y-64299454D01*
X68463128Y-64299454D02*
X68534557Y-64335169D01*
X68534557Y-64335169D02*
X68927414Y-64335169D01*
X68534557Y-64335169D02*
X68463128Y-64370883D01*
X68463128Y-64370883D02*
X68427414Y-64442311D01*
X68427414Y-64442311D02*
X68427414Y-64549454D01*
X68427414Y-64549454D02*
X68463128Y-64620883D01*
X68463128Y-64620883D02*
X68534557Y-64656597D01*
X68534557Y-64656597D02*
X68927414Y-64656597D01*
X68427414Y-65335169D02*
X69034557Y-65335169D01*
X69034557Y-65335169D02*
X69105985Y-65299454D01*
X69105985Y-65299454D02*
X69141700Y-65263740D01*
X69141700Y-65263740D02*
X69177414Y-65192311D01*
X69177414Y-65192311D02*
X69177414Y-65085169D01*
X69177414Y-65085169D02*
X69141700Y-65013740D01*
X68891700Y-65335169D02*
X68927414Y-65263740D01*
X68927414Y-65263740D02*
X68927414Y-65120883D01*
X68927414Y-65120883D02*
X68891700Y-65049454D01*
X68891700Y-65049454D02*
X68855985Y-65013740D01*
X68855985Y-65013740D02*
X68784557Y-64978026D01*
X68784557Y-64978026D02*
X68570271Y-64978026D01*
X68570271Y-64978026D02*
X68498842Y-65013740D01*
X68498842Y-65013740D02*
X68463128Y-65049454D01*
X68463128Y-65049454D02*
X68427414Y-65120883D01*
X68427414Y-65120883D02*
X68427414Y-65263740D01*
X68427414Y-65263740D02*
X68463128Y-65335169D01*
X68927414Y-65692311D02*
X68177414Y-65692311D01*
X68463128Y-65692311D02*
X68427414Y-65763740D01*
X68427414Y-65763740D02*
X68427414Y-65906597D01*
X68427414Y-65906597D02*
X68463128Y-65978025D01*
X68463128Y-65978025D02*
X68498842Y-66013740D01*
X68498842Y-66013740D02*
X68570271Y-66049454D01*
X68570271Y-66049454D02*
X68784557Y-66049454D01*
X68784557Y-66049454D02*
X68855985Y-66013740D01*
X68855985Y-66013740D02*
X68891700Y-65978025D01*
X68891700Y-65978025D02*
X68927414Y-65906597D01*
X68927414Y-65906597D02*
X68927414Y-65763740D01*
X68927414Y-65763740D02*
X68891700Y-65692311D01*
X68927414Y-66370882D02*
X68177414Y-66370882D01*
X68927414Y-66692311D02*
X68534557Y-66692311D01*
X68534557Y-66692311D02*
X68463128Y-66656596D01*
X68463128Y-66656596D02*
X68427414Y-66585168D01*
X68427414Y-66585168D02*
X68427414Y-66478025D01*
X68427414Y-66478025D02*
X68463128Y-66406596D01*
X68463128Y-66406596D02*
X68498842Y-66370882D01*
X68927414Y-67370882D02*
X68534557Y-67370882D01*
X68534557Y-67370882D02*
X68463128Y-67335167D01*
X68463128Y-67335167D02*
X68427414Y-67263739D01*
X68427414Y-67263739D02*
X68427414Y-67120882D01*
X68427414Y-67120882D02*
X68463128Y-67049453D01*
X68891700Y-67370882D02*
X68927414Y-67299453D01*
X68927414Y-67299453D02*
X68927414Y-67120882D01*
X68927414Y-67120882D02*
X68891700Y-67049453D01*
X68891700Y-67049453D02*
X68820271Y-67013739D01*
X68820271Y-67013739D02*
X68748842Y-67013739D01*
X68748842Y-67013739D02*
X68677414Y-67049453D01*
X68677414Y-67049453D02*
X68641700Y-67120882D01*
X68641700Y-67120882D02*
X68641700Y-67299453D01*
X68641700Y-67299453D02*
X68605985Y-67370882D01*
X68927414Y-67835167D02*
X68891700Y-67763738D01*
X68891700Y-67763738D02*
X68820271Y-67728024D01*
X68820271Y-67728024D02*
X68177414Y-67728024D01*
X68927414Y-68228024D02*
X68891700Y-68156595D01*
X68891700Y-68156595D02*
X68820271Y-68120881D01*
X68820271Y-68120881D02*
X68177414Y-68120881D01*
X68927414Y-68835167D02*
X68534557Y-68835167D01*
X68534557Y-68835167D02*
X68463128Y-68799452D01*
X68463128Y-68799452D02*
X68427414Y-68728024D01*
X68427414Y-68728024D02*
X68427414Y-68585167D01*
X68427414Y-68585167D02*
X68463128Y-68513738D01*
X68891700Y-68835167D02*
X68927414Y-68763738D01*
X68927414Y-68763738D02*
X68927414Y-68585167D01*
X68927414Y-68585167D02*
X68891700Y-68513738D01*
X68891700Y-68513738D02*
X68820271Y-68478024D01*
X68820271Y-68478024D02*
X68748842Y-68478024D01*
X68748842Y-68478024D02*
X68677414Y-68513738D01*
X68677414Y-68513738D02*
X68641700Y-68585167D01*
X68641700Y-68585167D02*
X68641700Y-68763738D01*
X68641700Y-68763738D02*
X68605985Y-68835167D01*
X68927414Y-70370881D02*
X68927414Y-70335167D01*
X68927414Y-70335167D02*
X68891700Y-70263738D01*
X68891700Y-70263738D02*
X68784557Y-70156595D01*
X68784557Y-70156595D02*
X68570271Y-69978024D01*
X68570271Y-69978024D02*
X68463128Y-69906595D01*
X68463128Y-69906595D02*
X68355985Y-69870881D01*
X68355985Y-69870881D02*
X68284557Y-69870881D01*
X68284557Y-69870881D02*
X68213128Y-69906595D01*
X68213128Y-69906595D02*
X68177414Y-69978024D01*
X68177414Y-69978024D02*
X68177414Y-70013738D01*
X68177414Y-70013738D02*
X68213128Y-70085167D01*
X68213128Y-70085167D02*
X68284557Y-70120881D01*
X68284557Y-70120881D02*
X68320271Y-70120881D01*
X68320271Y-70120881D02*
X68391700Y-70085167D01*
X68391700Y-70085167D02*
X68427414Y-70049452D01*
X68427414Y-70049452D02*
X68570271Y-69835167D01*
X68570271Y-69835167D02*
X68605985Y-69799452D01*
X68605985Y-69799452D02*
X68677414Y-69763738D01*
X68677414Y-69763738D02*
X68784557Y-69763738D01*
X68784557Y-69763738D02*
X68855985Y-69799452D01*
X68855985Y-69799452D02*
X68891700Y-69835167D01*
X68891700Y-69835167D02*
X68927414Y-69906595D01*
X68927414Y-69906595D02*
X68927414Y-70013738D01*
X68927414Y-70013738D02*
X68891700Y-70085167D01*
X68891700Y-70085167D02*
X68855985Y-70120881D01*
X68855985Y-70120881D02*
X68713128Y-70228024D01*
X68713128Y-70228024D02*
X68605985Y-70263738D01*
X68605985Y-70263738D02*
X68534557Y-70263738D01*
X68891700Y-72370882D02*
X68927414Y-72442310D01*
X68927414Y-72442310D02*
X68927414Y-72585167D01*
X68927414Y-72585167D02*
X68891700Y-72656596D01*
X68891700Y-72656596D02*
X68820271Y-72692310D01*
X68820271Y-72692310D02*
X68784557Y-72692310D01*
X68784557Y-72692310D02*
X68713128Y-72656596D01*
X68713128Y-72656596D02*
X68677414Y-72585167D01*
X68677414Y-72585167D02*
X68677414Y-72478025D01*
X68677414Y-72478025D02*
X68641700Y-72406596D01*
X68641700Y-72406596D02*
X68570271Y-72370882D01*
X68570271Y-72370882D02*
X68534557Y-72370882D01*
X68534557Y-72370882D02*
X68463128Y-72406596D01*
X68463128Y-72406596D02*
X68427414Y-72478025D01*
X68427414Y-72478025D02*
X68427414Y-72585167D01*
X68427414Y-72585167D02*
X68463128Y-72656596D01*
X68427414Y-72906596D02*
X68427414Y-73192310D01*
X68177414Y-73013739D02*
X68820271Y-73013739D01*
X68820271Y-73013739D02*
X68891700Y-73049453D01*
X68891700Y-73049453D02*
X68927414Y-73120882D01*
X68927414Y-73120882D02*
X68927414Y-73192310D01*
X68927414Y-73442310D02*
X68427414Y-73442310D01*
X68570271Y-73442310D02*
X68498842Y-73478024D01*
X68498842Y-73478024D02*
X68463128Y-73513739D01*
X68463128Y-73513739D02*
X68427414Y-73585167D01*
X68427414Y-73585167D02*
X68427414Y-73656596D01*
X68891700Y-74192310D02*
X68927414Y-74120882D01*
X68927414Y-74120882D02*
X68927414Y-73978025D01*
X68927414Y-73978025D02*
X68891700Y-73906596D01*
X68891700Y-73906596D02*
X68820271Y-73870882D01*
X68820271Y-73870882D02*
X68534557Y-73870882D01*
X68534557Y-73870882D02*
X68463128Y-73906596D01*
X68463128Y-73906596D02*
X68427414Y-73978025D01*
X68427414Y-73978025D02*
X68427414Y-74120882D01*
X68427414Y-74120882D02*
X68463128Y-74192310D01*
X68463128Y-74192310D02*
X68534557Y-74228025D01*
X68534557Y-74228025D02*
X68605985Y-74228025D01*
X68605985Y-74228025D02*
X68677414Y-73870882D01*
X68927414Y-74549453D02*
X68177414Y-74549453D01*
X68641700Y-74620882D02*
X68927414Y-74835167D01*
X68427414Y-74835167D02*
X68713128Y-74549453D01*
X71342414Y-55049455D02*
X70592414Y-55049455D01*
X71342414Y-55370884D02*
X70949557Y-55370884D01*
X70949557Y-55370884D02*
X70878128Y-55335169D01*
X70878128Y-55335169D02*
X70842414Y-55263741D01*
X70842414Y-55263741D02*
X70842414Y-55156598D01*
X70842414Y-55156598D02*
X70878128Y-55085169D01*
X70878128Y-55085169D02*
X70913842Y-55049455D01*
X70842414Y-55620883D02*
X70842414Y-55906597D01*
X70592414Y-55728026D02*
X71235271Y-55728026D01*
X71235271Y-55728026D02*
X71306700Y-55763740D01*
X71306700Y-55763740D02*
X71342414Y-55835169D01*
X71342414Y-55835169D02*
X71342414Y-55906597D01*
X70842414Y-56049454D02*
X70842414Y-56335168D01*
X70592414Y-56156597D02*
X71235271Y-56156597D01*
X71235271Y-56156597D02*
X71306700Y-56192311D01*
X71306700Y-56192311D02*
X71342414Y-56263740D01*
X71342414Y-56263740D02*
X71342414Y-56335168D01*
X70842414Y-56585168D02*
X71592414Y-56585168D01*
X70878128Y-56585168D02*
X70842414Y-56656597D01*
X70842414Y-56656597D02*
X70842414Y-56799454D01*
X70842414Y-56799454D02*
X70878128Y-56870882D01*
X70878128Y-56870882D02*
X70913842Y-56906597D01*
X70913842Y-56906597D02*
X70985271Y-56942311D01*
X70985271Y-56942311D02*
X71199557Y-56942311D01*
X71199557Y-56942311D02*
X71270985Y-56906597D01*
X71270985Y-56906597D02*
X71306700Y-56870882D01*
X71306700Y-56870882D02*
X71342414Y-56799454D01*
X71342414Y-56799454D02*
X71342414Y-56656597D01*
X71342414Y-56656597D02*
X71306700Y-56585168D01*
X71306700Y-57228025D02*
X71342414Y-57299453D01*
X71342414Y-57299453D02*
X71342414Y-57442310D01*
X71342414Y-57442310D02*
X71306700Y-57513739D01*
X71306700Y-57513739D02*
X71235271Y-57549453D01*
X71235271Y-57549453D02*
X71199557Y-57549453D01*
X71199557Y-57549453D02*
X71128128Y-57513739D01*
X71128128Y-57513739D02*
X71092414Y-57442310D01*
X71092414Y-57442310D02*
X71092414Y-57335168D01*
X71092414Y-57335168D02*
X71056700Y-57263739D01*
X71056700Y-57263739D02*
X70985271Y-57228025D01*
X70985271Y-57228025D02*
X70949557Y-57228025D01*
X70949557Y-57228025D02*
X70878128Y-57263739D01*
X70878128Y-57263739D02*
X70842414Y-57335168D01*
X70842414Y-57335168D02*
X70842414Y-57442310D01*
X70842414Y-57442310D02*
X70878128Y-57513739D01*
X71270985Y-57870882D02*
X71306700Y-57906596D01*
X71306700Y-57906596D02*
X71342414Y-57870882D01*
X71342414Y-57870882D02*
X71306700Y-57835168D01*
X71306700Y-57835168D02*
X71270985Y-57870882D01*
X71270985Y-57870882D02*
X71342414Y-57870882D01*
X70878128Y-57870882D02*
X70913842Y-57906596D01*
X70913842Y-57906596D02*
X70949557Y-57870882D01*
X70949557Y-57870882D02*
X70913842Y-57835168D01*
X70913842Y-57835168D02*
X70878128Y-57870882D01*
X70878128Y-57870882D02*
X70949557Y-57870882D01*
X70556700Y-58763739D02*
X71520985Y-58120882D01*
X70556700Y-59549453D02*
X71520985Y-58906596D01*
X70842414Y-60120882D02*
X71449557Y-60120882D01*
X71449557Y-60120882D02*
X71520985Y-60085167D01*
X71520985Y-60085167D02*
X71556700Y-60049453D01*
X71556700Y-60049453D02*
X71592414Y-59978024D01*
X71592414Y-59978024D02*
X71592414Y-59870882D01*
X71592414Y-59870882D02*
X71556700Y-59799453D01*
X71306700Y-60120882D02*
X71342414Y-60049453D01*
X71342414Y-60049453D02*
X71342414Y-59906596D01*
X71342414Y-59906596D02*
X71306700Y-59835167D01*
X71306700Y-59835167D02*
X71270985Y-59799453D01*
X71270985Y-59799453D02*
X71199557Y-59763739D01*
X71199557Y-59763739D02*
X70985271Y-59763739D01*
X70985271Y-59763739D02*
X70913842Y-59799453D01*
X70913842Y-59799453D02*
X70878128Y-59835167D01*
X70878128Y-59835167D02*
X70842414Y-59906596D01*
X70842414Y-59906596D02*
X70842414Y-60049453D01*
X70842414Y-60049453D02*
X70878128Y-60120882D01*
X71342414Y-60478024D02*
X70842414Y-60478024D01*
X70592414Y-60478024D02*
X70628128Y-60442310D01*
X70628128Y-60442310D02*
X70663842Y-60478024D01*
X70663842Y-60478024D02*
X70628128Y-60513738D01*
X70628128Y-60513738D02*
X70592414Y-60478024D01*
X70592414Y-60478024D02*
X70663842Y-60478024D01*
X70842414Y-60728024D02*
X70842414Y-61013738D01*
X70592414Y-60835167D02*
X71235271Y-60835167D01*
X71235271Y-60835167D02*
X71306700Y-60870881D01*
X71306700Y-60870881D02*
X71342414Y-60942310D01*
X71342414Y-60942310D02*
X71342414Y-61013738D01*
X71342414Y-61263738D02*
X70592414Y-61263738D01*
X71342414Y-61585167D02*
X70949557Y-61585167D01*
X70949557Y-61585167D02*
X70878128Y-61549452D01*
X70878128Y-61549452D02*
X70842414Y-61478024D01*
X70842414Y-61478024D02*
X70842414Y-61370881D01*
X70842414Y-61370881D02*
X70878128Y-61299452D01*
X70878128Y-61299452D02*
X70913842Y-61263738D01*
X70842414Y-62263738D02*
X71342414Y-62263738D01*
X70842414Y-61942309D02*
X71235271Y-61942309D01*
X71235271Y-61942309D02*
X71306700Y-61978023D01*
X71306700Y-61978023D02*
X71342414Y-62049452D01*
X71342414Y-62049452D02*
X71342414Y-62156595D01*
X71342414Y-62156595D02*
X71306700Y-62228023D01*
X71306700Y-62228023D02*
X71270985Y-62263738D01*
X71342414Y-62620880D02*
X70592414Y-62620880D01*
X70878128Y-62620880D02*
X70842414Y-62692309D01*
X70842414Y-62692309D02*
X70842414Y-62835166D01*
X70842414Y-62835166D02*
X70878128Y-62906594D01*
X70878128Y-62906594D02*
X70913842Y-62942309D01*
X70913842Y-62942309D02*
X70985271Y-62978023D01*
X70985271Y-62978023D02*
X71199557Y-62978023D01*
X71199557Y-62978023D02*
X71270985Y-62942309D01*
X71270985Y-62942309D02*
X71306700Y-62906594D01*
X71306700Y-62906594D02*
X71342414Y-62835166D01*
X71342414Y-62835166D02*
X71342414Y-62692309D01*
X71342414Y-62692309D02*
X71306700Y-62620880D01*
X71270985Y-63299451D02*
X71306700Y-63335165D01*
X71306700Y-63335165D02*
X71342414Y-63299451D01*
X71342414Y-63299451D02*
X71306700Y-63263737D01*
X71306700Y-63263737D02*
X71270985Y-63299451D01*
X71270985Y-63299451D02*
X71342414Y-63299451D01*
X71306700Y-63978023D02*
X71342414Y-63906594D01*
X71342414Y-63906594D02*
X71342414Y-63763737D01*
X71342414Y-63763737D02*
X71306700Y-63692308D01*
X71306700Y-63692308D02*
X71270985Y-63656594D01*
X71270985Y-63656594D02*
X71199557Y-63620880D01*
X71199557Y-63620880D02*
X70985271Y-63620880D01*
X70985271Y-63620880D02*
X70913842Y-63656594D01*
X70913842Y-63656594D02*
X70878128Y-63692308D01*
X70878128Y-63692308D02*
X70842414Y-63763737D01*
X70842414Y-63763737D02*
X70842414Y-63906594D01*
X70842414Y-63906594D02*
X70878128Y-63978023D01*
X71342414Y-64406594D02*
X71306700Y-64335165D01*
X71306700Y-64335165D02*
X71270985Y-64299451D01*
X71270985Y-64299451D02*
X71199557Y-64263737D01*
X71199557Y-64263737D02*
X70985271Y-64263737D01*
X70985271Y-64263737D02*
X70913842Y-64299451D01*
X70913842Y-64299451D02*
X70878128Y-64335165D01*
X70878128Y-64335165D02*
X70842414Y-64406594D01*
X70842414Y-64406594D02*
X70842414Y-64513737D01*
X70842414Y-64513737D02*
X70878128Y-64585165D01*
X70878128Y-64585165D02*
X70913842Y-64620880D01*
X70913842Y-64620880D02*
X70985271Y-64656594D01*
X70985271Y-64656594D02*
X71199557Y-64656594D01*
X71199557Y-64656594D02*
X71270985Y-64620880D01*
X71270985Y-64620880D02*
X71306700Y-64585165D01*
X71306700Y-64585165D02*
X71342414Y-64513737D01*
X71342414Y-64513737D02*
X71342414Y-64406594D01*
X71342414Y-64978022D02*
X70842414Y-64978022D01*
X70913842Y-64978022D02*
X70878128Y-65013736D01*
X70878128Y-65013736D02*
X70842414Y-65085165D01*
X70842414Y-65085165D02*
X70842414Y-65192308D01*
X70842414Y-65192308D02*
X70878128Y-65263736D01*
X70878128Y-65263736D02*
X70949557Y-65299451D01*
X70949557Y-65299451D02*
X71342414Y-65299451D01*
X70949557Y-65299451D02*
X70878128Y-65335165D01*
X70878128Y-65335165D02*
X70842414Y-65406593D01*
X70842414Y-65406593D02*
X70842414Y-65513736D01*
X70842414Y-65513736D02*
X70878128Y-65585165D01*
X70878128Y-65585165D02*
X70949557Y-65620879D01*
X70949557Y-65620879D02*
X71342414Y-65620879D01*
X70556700Y-66513736D02*
X71520985Y-65870879D01*
X70842414Y-67085165D02*
X71342414Y-67085165D01*
X70842414Y-66763736D02*
X71235271Y-66763736D01*
X71235271Y-66763736D02*
X71306700Y-66799450D01*
X71306700Y-66799450D02*
X71342414Y-66870879D01*
X71342414Y-66870879D02*
X71342414Y-66978022D01*
X71342414Y-66978022D02*
X71306700Y-67049450D01*
X71306700Y-67049450D02*
X71270985Y-67085165D01*
X71342414Y-67442307D02*
X70842414Y-67442307D01*
X70913842Y-67442307D02*
X70878128Y-67478021D01*
X70878128Y-67478021D02*
X70842414Y-67549450D01*
X70842414Y-67549450D02*
X70842414Y-67656593D01*
X70842414Y-67656593D02*
X70878128Y-67728021D01*
X70878128Y-67728021D02*
X70949557Y-67763736D01*
X70949557Y-67763736D02*
X71342414Y-67763736D01*
X70949557Y-67763736D02*
X70878128Y-67799450D01*
X70878128Y-67799450D02*
X70842414Y-67870878D01*
X70842414Y-67870878D02*
X70842414Y-67978021D01*
X70842414Y-67978021D02*
X70878128Y-68049450D01*
X70878128Y-68049450D02*
X70949557Y-68085164D01*
X70949557Y-68085164D02*
X71342414Y-68085164D01*
X70842414Y-68763736D02*
X71449557Y-68763736D01*
X71449557Y-68763736D02*
X71520985Y-68728021D01*
X71520985Y-68728021D02*
X71556700Y-68692307D01*
X71556700Y-68692307D02*
X71592414Y-68620878D01*
X71592414Y-68620878D02*
X71592414Y-68513736D01*
X71592414Y-68513736D02*
X71556700Y-68442307D01*
X71306700Y-68763736D02*
X71342414Y-68692307D01*
X71342414Y-68692307D02*
X71342414Y-68549450D01*
X71342414Y-68549450D02*
X71306700Y-68478021D01*
X71306700Y-68478021D02*
X71270985Y-68442307D01*
X71270985Y-68442307D02*
X71199557Y-68406593D01*
X71199557Y-68406593D02*
X70985271Y-68406593D01*
X70985271Y-68406593D02*
X70913842Y-68442307D01*
X70913842Y-68442307D02*
X70878128Y-68478021D01*
X70878128Y-68478021D02*
X70842414Y-68549450D01*
X70842414Y-68549450D02*
X70842414Y-68692307D01*
X70842414Y-68692307D02*
X70878128Y-68763736D01*
X71342414Y-69120878D02*
X70592414Y-69120878D01*
X70878128Y-69120878D02*
X70842414Y-69192307D01*
X70842414Y-69192307D02*
X70842414Y-69335164D01*
X70842414Y-69335164D02*
X70878128Y-69406592D01*
X70878128Y-69406592D02*
X70913842Y-69442307D01*
X70913842Y-69442307D02*
X70985271Y-69478021D01*
X70985271Y-69478021D02*
X71199557Y-69478021D01*
X71199557Y-69478021D02*
X71270985Y-69442307D01*
X71270985Y-69442307D02*
X71306700Y-69406592D01*
X71306700Y-69406592D02*
X71342414Y-69335164D01*
X71342414Y-69335164D02*
X71342414Y-69192307D01*
X71342414Y-69192307D02*
X71306700Y-69120878D01*
X71342414Y-69799449D02*
X70592414Y-69799449D01*
X71342414Y-70120878D02*
X70949557Y-70120878D01*
X70949557Y-70120878D02*
X70878128Y-70085163D01*
X70878128Y-70085163D02*
X70842414Y-70013735D01*
X70842414Y-70013735D02*
X70842414Y-69906592D01*
X70842414Y-69906592D02*
X70878128Y-69835163D01*
X70878128Y-69835163D02*
X70913842Y-69799449D01*
X71342414Y-70799449D02*
X70949557Y-70799449D01*
X70949557Y-70799449D02*
X70878128Y-70763734D01*
X70878128Y-70763734D02*
X70842414Y-70692306D01*
X70842414Y-70692306D02*
X70842414Y-70549449D01*
X70842414Y-70549449D02*
X70878128Y-70478020D01*
X71306700Y-70799449D02*
X71342414Y-70728020D01*
X71342414Y-70728020D02*
X71342414Y-70549449D01*
X71342414Y-70549449D02*
X71306700Y-70478020D01*
X71306700Y-70478020D02*
X71235271Y-70442306D01*
X71235271Y-70442306D02*
X71163842Y-70442306D01*
X71163842Y-70442306D02*
X71092414Y-70478020D01*
X71092414Y-70478020D02*
X71056700Y-70549449D01*
X71056700Y-70549449D02*
X71056700Y-70728020D01*
X71056700Y-70728020D02*
X71020985Y-70799449D01*
X71342414Y-71263734D02*
X71306700Y-71192305D01*
X71306700Y-71192305D02*
X71235271Y-71156591D01*
X71235271Y-71156591D02*
X70592414Y-71156591D01*
X71342414Y-71656591D02*
X71306700Y-71585162D01*
X71306700Y-71585162D02*
X71235271Y-71549448D01*
X71235271Y-71549448D02*
X70592414Y-71549448D01*
X71342414Y-72263734D02*
X70949557Y-72263734D01*
X70949557Y-72263734D02*
X70878128Y-72228019D01*
X70878128Y-72228019D02*
X70842414Y-72156591D01*
X70842414Y-72156591D02*
X70842414Y-72013734D01*
X70842414Y-72013734D02*
X70878128Y-71942305D01*
X71306700Y-72263734D02*
X71342414Y-72192305D01*
X71342414Y-72192305D02*
X71342414Y-72013734D01*
X71342414Y-72013734D02*
X71306700Y-71942305D01*
X71306700Y-71942305D02*
X71235271Y-71906591D01*
X71235271Y-71906591D02*
X71163842Y-71906591D01*
X71163842Y-71906591D02*
X71092414Y-71942305D01*
X71092414Y-71942305D02*
X71056700Y-72013734D01*
X71056700Y-72013734D02*
X71056700Y-72192305D01*
X71056700Y-72192305D02*
X71020985Y-72263734D01*
X70556700Y-73156590D02*
X71520985Y-72513733D01*
X71342414Y-73728019D02*
X70592414Y-73728019D01*
X71306700Y-73728019D02*
X71342414Y-73656590D01*
X71342414Y-73656590D02*
X71342414Y-73513733D01*
X71342414Y-73513733D02*
X71306700Y-73442304D01*
X71306700Y-73442304D02*
X71270985Y-73406590D01*
X71270985Y-73406590D02*
X71199557Y-73370876D01*
X71199557Y-73370876D02*
X70985271Y-73370876D01*
X70985271Y-73370876D02*
X70913842Y-73406590D01*
X70913842Y-73406590D02*
X70878128Y-73442304D01*
X70878128Y-73442304D02*
X70842414Y-73513733D01*
X70842414Y-73513733D02*
X70842414Y-73656590D01*
X70842414Y-73656590D02*
X70878128Y-73728019D01*
X71306700Y-74370875D02*
X71342414Y-74299447D01*
X71342414Y-74299447D02*
X71342414Y-74156590D01*
X71342414Y-74156590D02*
X71306700Y-74085161D01*
X71306700Y-74085161D02*
X71235271Y-74049447D01*
X71235271Y-74049447D02*
X70949557Y-74049447D01*
X70949557Y-74049447D02*
X70878128Y-74085161D01*
X70878128Y-74085161D02*
X70842414Y-74156590D01*
X70842414Y-74156590D02*
X70842414Y-74299447D01*
X70842414Y-74299447D02*
X70878128Y-74370875D01*
X70878128Y-74370875D02*
X70949557Y-74406590D01*
X70949557Y-74406590D02*
X71020985Y-74406590D01*
X71020985Y-74406590D02*
X71092414Y-74049447D01*
X71306700Y-74692304D02*
X71342414Y-74763732D01*
X71342414Y-74763732D02*
X71342414Y-74906589D01*
X71342414Y-74906589D02*
X71306700Y-74978018D01*
X71306700Y-74978018D02*
X71235271Y-75013732D01*
X71235271Y-75013732D02*
X71199557Y-75013732D01*
X71199557Y-75013732D02*
X71128128Y-74978018D01*
X71128128Y-74978018D02*
X71092414Y-74906589D01*
X71092414Y-74906589D02*
X71092414Y-74799447D01*
X71092414Y-74799447D02*
X71056700Y-74728018D01*
X71056700Y-74728018D02*
X70985271Y-74692304D01*
X70985271Y-74692304D02*
X70949557Y-74692304D01*
X70949557Y-74692304D02*
X70878128Y-74728018D01*
X70878128Y-74728018D02*
X70842414Y-74799447D01*
X70842414Y-74799447D02*
X70842414Y-74906589D01*
X70842414Y-74906589D02*
X70878128Y-74978018D01*
X71342414Y-75335161D02*
X70592414Y-75335161D01*
X71056700Y-75406590D02*
X71342414Y-75620875D01*
X70842414Y-75620875D02*
X71128128Y-75335161D01*
X71342414Y-75942304D02*
X70592414Y-75942304D01*
X71342414Y-76263733D02*
X70949557Y-76263733D01*
X70949557Y-76263733D02*
X70878128Y-76228018D01*
X70878128Y-76228018D02*
X70842414Y-76156590D01*
X70842414Y-76156590D02*
X70842414Y-76049447D01*
X70842414Y-76049447D02*
X70878128Y-75978018D01*
X70878128Y-75978018D02*
X70913842Y-75942304D01*
X71342414Y-76728018D02*
X71306700Y-76656589D01*
X71306700Y-76656589D02*
X71270985Y-76620875D01*
X71270985Y-76620875D02*
X71199557Y-76585161D01*
X71199557Y-76585161D02*
X70985271Y-76585161D01*
X70985271Y-76585161D02*
X70913842Y-76620875D01*
X70913842Y-76620875D02*
X70878128Y-76656589D01*
X70878128Y-76656589D02*
X70842414Y-76728018D01*
X70842414Y-76728018D02*
X70842414Y-76835161D01*
X70842414Y-76835161D02*
X70878128Y-76906589D01*
X70878128Y-76906589D02*
X70913842Y-76942304D01*
X70913842Y-76942304D02*
X70985271Y-76978018D01*
X70985271Y-76978018D02*
X71199557Y-76978018D01*
X71199557Y-76978018D02*
X71270985Y-76942304D01*
X71270985Y-76942304D02*
X71306700Y-76906589D01*
X71306700Y-76906589D02*
X71342414Y-76835161D01*
X71342414Y-76835161D02*
X71342414Y-76728018D01*
X70842414Y-77299446D02*
X71592414Y-77299446D01*
X70878128Y-77299446D02*
X70842414Y-77370875D01*
X70842414Y-77370875D02*
X70842414Y-77513732D01*
X70842414Y-77513732D02*
X70878128Y-77585160D01*
X70878128Y-77585160D02*
X70913842Y-77620875D01*
X70913842Y-77620875D02*
X70985271Y-77656589D01*
X70985271Y-77656589D02*
X71199557Y-77656589D01*
X71199557Y-77656589D02*
X71270985Y-77620875D01*
X71270985Y-77620875D02*
X71306700Y-77585160D01*
X71306700Y-77585160D02*
X71342414Y-77513732D01*
X71342414Y-77513732D02*
X71342414Y-77370875D01*
X71342414Y-77370875D02*
X71306700Y-77299446D01*
X71056700Y-77978017D02*
X71056700Y-78549446D01*
X70842414Y-78799445D02*
X70842414Y-79085159D01*
X70592414Y-78906588D02*
X71235271Y-78906588D01*
X71235271Y-78906588D02*
X71306700Y-78942302D01*
X71306700Y-78942302D02*
X71342414Y-79013731D01*
X71342414Y-79013731D02*
X71342414Y-79085159D01*
X70842414Y-79263730D02*
X71342414Y-79442302D01*
X70842414Y-79620873D02*
X71342414Y-79442302D01*
X71342414Y-79442302D02*
X71520985Y-79370873D01*
X71520985Y-79370873D02*
X71556700Y-79335159D01*
X71556700Y-79335159D02*
X71592414Y-79263730D01*
X70842414Y-79906588D02*
X71592414Y-79906588D01*
X70878128Y-79906588D02*
X70842414Y-79978017D01*
X70842414Y-79978017D02*
X70842414Y-80120874D01*
X70842414Y-80120874D02*
X70878128Y-80192302D01*
X70878128Y-80192302D02*
X70913842Y-80228017D01*
X70913842Y-80228017D02*
X70985271Y-80263731D01*
X70985271Y-80263731D02*
X71199557Y-80263731D01*
X71199557Y-80263731D02*
X71270985Y-80228017D01*
X71270985Y-80228017D02*
X71306700Y-80192302D01*
X71306700Y-80192302D02*
X71342414Y-80120874D01*
X71342414Y-80120874D02*
X71342414Y-79978017D01*
X71342414Y-79978017D02*
X71306700Y-79906588D01*
X71306700Y-80870873D02*
X71342414Y-80799445D01*
X71342414Y-80799445D02*
X71342414Y-80656588D01*
X71342414Y-80656588D02*
X71306700Y-80585159D01*
X71306700Y-80585159D02*
X71235271Y-80549445D01*
X71235271Y-80549445D02*
X70949557Y-80549445D01*
X70949557Y-80549445D02*
X70878128Y-80585159D01*
X70878128Y-80585159D02*
X70842414Y-80656588D01*
X70842414Y-80656588D02*
X70842414Y-80799445D01*
X70842414Y-80799445D02*
X70878128Y-80870873D01*
X70878128Y-80870873D02*
X70949557Y-80906588D01*
X70949557Y-80906588D02*
X71020985Y-80906588D01*
X71020985Y-80906588D02*
X71092414Y-80549445D01*
X71056700Y-81228016D02*
X71056700Y-81799445D01*
X71306700Y-82478016D02*
X71342414Y-82406587D01*
X71342414Y-82406587D02*
X71342414Y-82263730D01*
X71342414Y-82263730D02*
X71306700Y-82192301D01*
X71306700Y-82192301D02*
X71270985Y-82156587D01*
X71270985Y-82156587D02*
X71199557Y-82120873D01*
X71199557Y-82120873D02*
X70985271Y-82120873D01*
X70985271Y-82120873D02*
X70913842Y-82156587D01*
X70913842Y-82156587D02*
X70878128Y-82192301D01*
X70878128Y-82192301D02*
X70842414Y-82263730D01*
X70842414Y-82263730D02*
X70842414Y-82406587D01*
X70842414Y-82406587D02*
X70878128Y-82478016D01*
D14*
%TO.C,MCU2*%
X76454000Y-45974000D03*
X76454000Y-48514000D03*
X76454000Y-51054000D03*
X76454000Y-53594000D03*
X76454000Y-56134000D03*
D15*
X76454000Y-58674000D03*
D14*
X76454000Y-61214000D03*
X76454000Y-63754000D03*
X76454000Y-66294000D03*
X76454000Y-68834000D03*
X76454000Y-71374000D03*
X76454000Y-73914000D03*
X76454000Y-76454000D03*
X76454000Y-78994000D03*
D15*
X76454000Y-81534000D03*
D14*
X76454000Y-84074000D03*
X76454000Y-86614000D03*
X76454000Y-89154000D03*
X76454000Y-91694000D03*
X76454000Y-94234000D03*
X94234000Y-94234000D03*
X94234000Y-91694000D03*
X94234000Y-89154000D03*
X94234000Y-86614000D03*
X94234000Y-84074000D03*
X94234000Y-81534000D03*
X94234000Y-78994000D03*
X94234000Y-76454000D03*
D15*
X94234000Y-73914000D03*
D14*
X94234000Y-71374000D03*
X94234000Y-68834000D03*
X94234000Y-66294000D03*
X94234000Y-63754000D03*
X94234000Y-61214000D03*
D15*
X94234000Y-58674000D03*
D14*
X94234000Y-56134000D03*
X94234000Y-53594000D03*
D15*
X94234000Y-51054000D03*
D14*
X94234000Y-48514000D03*
X94234000Y-45974000D03*
%TD*%
%TO.C,MCU1*%
X39995523Y-45958249D03*
X39995523Y-48498249D03*
X39995523Y-51038249D03*
X39995523Y-53578249D03*
X39995523Y-56118249D03*
D15*
X39995523Y-58658249D03*
D14*
X39995523Y-61198249D03*
X39995523Y-63738249D03*
X39995523Y-66278249D03*
X39995523Y-68818249D03*
X39995523Y-71358249D03*
D15*
X57775523Y-73898249D03*
D14*
X39995523Y-76438249D03*
X39995523Y-78978249D03*
D15*
X39995523Y-81518249D03*
D14*
X39995523Y-84058249D03*
X39995523Y-86598249D03*
X39995523Y-89138249D03*
X39995523Y-91678249D03*
X39995523Y-94218249D03*
X57775523Y-94218249D03*
X57775523Y-91678249D03*
X57775523Y-89138249D03*
X57775523Y-86598249D03*
X57775523Y-84058249D03*
X57775523Y-81518249D03*
X57775523Y-78978249D03*
X57775523Y-76438249D03*
X39995523Y-73898249D03*
X57775523Y-71358249D03*
X57775523Y-68818249D03*
X57775523Y-66278249D03*
X57775523Y-63738249D03*
X57775523Y-61198249D03*
D15*
X57775523Y-58658249D03*
D14*
X57775523Y-56118249D03*
X57775523Y-53578249D03*
D15*
X57775523Y-51038249D03*
D14*
X57775523Y-48498249D03*
X57775523Y-45958249D03*
%TD*%
M02*
