%TF.GenerationSoftware,KiCad,Pcbnew,7.0.10*%
%TF.CreationDate,2024-02-20T22:57:10+05:30*%
%TF.ProjectId,DeskHop,4465736b-486f-4702-9e6b-696361645f70,v1*%
%TF.SameCoordinates,Original*%
%TF.FileFunction,Copper,L2,Bot*%
%TF.FilePolarity,Positive*%
%FSLAX46Y46*%
G04 Gerber Fmt 4.6, Leading zero omitted, Abs format (unit mm)*
G04 Created by KiCad (PCBNEW 7.0.10) date 2024-02-20 22:57:10*
%MOMM*%
%LPD*%
G01*
G04 APERTURE LIST*
G04 Aperture macros list*
%AMRoundRect*
0 Rectangle with rounded corners*
0 $1 Rounding radius*
0 $2 $3 $4 $5 $6 $7 $8 $9 X,Y pos of 4 corners*
0 Add a 4 corners polygon primitive as box body*
4,1,4,$2,$3,$4,$5,$6,$7,$8,$9,$2,$3,0*
0 Add four circle primitives for the rounded corners*
1,1,$1+$1,$2,$3*
1,1,$1+$1,$4,$5*
1,1,$1+$1,$6,$7*
1,1,$1+$1,$8,$9*
0 Add four rect primitives between the rounded corners*
20,1,$1+$1,$2,$3,$4,$5,0*
20,1,$1+$1,$4,$5,$6,$7,0*
20,1,$1+$1,$6,$7,$8,$9,0*
20,1,$1+$1,$8,$9,$2,$3,0*%
G04 Aperture macros list end*
%TA.AperFunction,NonConductor*%
%ADD10C,0.200000*%
%TD*%
%TA.AperFunction,ComponentPad*%
%ADD11C,3.100000*%
%TD*%
%TA.AperFunction,ComponentPad*%
%ADD12R,1.600000X1.500000*%
%TD*%
%TA.AperFunction,ComponentPad*%
%ADD13C,1.600000*%
%TD*%
%TA.AperFunction,ComponentPad*%
%ADD14C,3.000000*%
%TD*%
%TA.AperFunction,ConnectorPad*%
%ADD15C,5.400000*%
%TD*%
%TA.AperFunction,ComponentPad*%
%ADD16C,1.752600*%
%TD*%
%TA.AperFunction,SMDPad,CuDef*%
%ADD17RoundRect,0.425000X-1.325000X-0.425000X1.325000X-0.425000X1.325000X0.425000X-1.325000X0.425000X0*%
%TD*%
%TA.AperFunction,SMDPad,CuDef*%
%ADD18RoundRect,0.425000X1.325000X0.425000X-1.325000X0.425000X-1.325000X-0.425000X1.325000X-0.425000X0*%
%TD*%
%TA.AperFunction,ComponentPad*%
%ADD19RoundRect,0.438150X-0.438150X-0.438150X0.438150X-0.438150X0.438150X0.438150X-0.438150X0.438150X0*%
%TD*%
%TA.AperFunction,ViaPad*%
%ADD20C,0.800000*%
%TD*%
%TA.AperFunction,Conductor*%
%ADD21C,0.200000*%
%TD*%
G04 APERTURE END LIST*
D10*
X65786000Y-41148001D02*
G75*
G03*
X66360432Y-49447208I1524000J-4063999D01*
G01*
D11*
%TO.P,H3,1,1*%
%TO.N,unconnected-(H3-Pad1)*%
X67310000Y-45212000D03*
%TD*%
D12*
%TO.P,J4,1,VBUS*%
%TO.N,VBUS2*%
X45776000Y-101574000D03*
D13*
%TO.P,J4,2,D-*%
%TO.N,MCU1 D-*%
X48276000Y-101574000D03*
%TO.P,J4,3,D+*%
%TO.N,MCU1 D+*%
X50276000Y-101574000D03*
%TO.P,J4,4,GND*%
%TO.N,GND*%
X52776000Y-101574000D03*
D14*
%TO.P,J4,5,Shield*%
X42706000Y-104284000D03*
X55846000Y-104284000D03*
%TD*%
D11*
%TO.P,H2,1,1*%
%TO.N,GND2*%
X96774000Y-111506000D03*
D15*
X96774000Y-111506000D03*
%TD*%
D12*
%TO.P,J1,1,VBUS*%
%TO.N,VBUS1*%
X81082000Y-101574000D03*
D13*
%TO.P,J1,2,D-*%
%TO.N,MCU2 D-*%
X83582000Y-101574000D03*
%TO.P,J1,3,D+*%
%TO.N,MCU2 D+*%
X85582000Y-101574000D03*
%TO.P,J1,4,GND*%
%TO.N,GND2*%
X88082000Y-101574000D03*
D14*
%TO.P,J1,5,Shield*%
X78012000Y-104284000D03*
X91152000Y-104284000D03*
%TD*%
D16*
%TO.P,MCU2,1,GP0*%
%TO.N,unconnected-(MCU2-GP0-Pad1)*%
X76454000Y-45974000D03*
D17*
X75554000Y-45974000D03*
D16*
%TO.P,MCU2,2,GP1*%
%TO.N,unconnected-(MCU2-GP1-Pad2)*%
X76454000Y-48514000D03*
D18*
X75554000Y-48514000D03*
D16*
%TO.P,MCU2,3,GP2*%
%TO.N,unconnected-(MCU2-GP2-Pad3)*%
X76454000Y-51054000D03*
D18*
X75554000Y-51054000D03*
D16*
%TO.P,MCU2,4,GP3*%
%TO.N,unconnected-(MCU2-GP3-Pad4)*%
X76454000Y-53594000D03*
D18*
X75554000Y-53594000D03*
D16*
%TO.P,MCU2,5,GP4*%
%TO.N,unconnected-(MCU2-GP4-Pad5)*%
X76454000Y-56134000D03*
D18*
X75554000Y-56134000D03*
D19*
%TO.P,MCU2,6,GND*%
%TO.N,GND2*%
X76454000Y-58674000D03*
D18*
X75554000Y-58674000D03*
D16*
%TO.P,MCU2,7,GP5*%
%TO.N,unconnected-(MCU2-GP5-Pad7)*%
X76454000Y-61214000D03*
D18*
X75554000Y-61214000D03*
D16*
%TO.P,MCU2,8,GP6*%
%TO.N,unconnected-(MCU2-GP6-Pad8)*%
X76454000Y-63754000D03*
D18*
X75554000Y-63754000D03*
D16*
%TO.P,MCU2,9,GP7*%
%TO.N,unconnected-(MCU2-GP7-Pad9)*%
X76454000Y-66294000D03*
D18*
X75554000Y-66294000D03*
D16*
%TO.P,MCU2,10,GP8*%
%TO.N,unconnected-(MCU2-GP8-Pad10)*%
X76454000Y-68834000D03*
D18*
X75554000Y-68834000D03*
D16*
%TO.P,MCU2,11,GP9*%
%TO.N,unconnected-(MCU2-GP9-Pad11)*%
X76454000Y-71374000D03*
D18*
X75554000Y-71374000D03*
D16*
%TO.P,MCU2,12,GP10*%
%TO.N,unconnected-(MCU2-GP10-Pad12)*%
X76454000Y-73914000D03*
D18*
X75554000Y-73914000D03*
D16*
%TO.P,MCU2,13,GP11*%
%TO.N,unconnected-(MCU2-GP11-Pad13)*%
X76454000Y-76454000D03*
D18*
X75554000Y-76454000D03*
D16*
%TO.P,MCU2,14,GP12*%
%TO.N,UART A TX*%
X76454000Y-78994000D03*
D18*
X75554000Y-78994000D03*
D19*
%TO.P,MCU2,15,GND*%
%TO.N,GND2*%
X76454000Y-81534000D03*
D18*
X75554000Y-81534000D03*
D16*
%TO.P,MCU2,16,GP13*%
%TO.N,UART A RX*%
X76454000Y-84074000D03*
D18*
X75554000Y-84074000D03*
D16*
%TO.P,MCU2,17,GP14*%
%TO.N,MCU2 D+*%
X76454000Y-86614000D03*
D18*
X75554000Y-86614000D03*
D16*
%TO.P,MCU2,18,GP15*%
%TO.N,MCU2 D-*%
X76454000Y-89154000D03*
D18*
X75554000Y-89154000D03*
D16*
%TO.P,MCU2,19,GP16*%
%TO.N,unconnected-(MCU2-GP16-Pad19)*%
X76454000Y-91694000D03*
D18*
X75554000Y-91694000D03*
D16*
%TO.P,MCU2,20,GP17*%
%TO.N,unconnected-(MCU2-GP17-Pad20)*%
X76454000Y-94234000D03*
D18*
X75554000Y-94234000D03*
D16*
%TO.P,MCU2,21,GP18*%
%TO.N,unconnected-(MCU2-GP18-Pad21)*%
X94234000Y-94234000D03*
D17*
X95134000Y-94234000D03*
D16*
%TO.P,MCU2,22,GP19*%
%TO.N,unconnected-(MCU2-GP19-Pad22)*%
X94234000Y-91694000D03*
D17*
X95134000Y-91694000D03*
D16*
%TO.P,MCU2,23,GP20*%
%TO.N,unconnected-(MCU2-GP20-Pad23)*%
X94234000Y-89154000D03*
D17*
X95134000Y-89154000D03*
D16*
%TO.P,MCU2,24,GP21*%
%TO.N,unconnected-(MCU2-GP21-Pad24)*%
X94234000Y-86614000D03*
D17*
X95134000Y-86614000D03*
D16*
%TO.P,MCU2,25,GP22*%
%TO.N,unconnected-(MCU2-GP22-Pad25)*%
X94234000Y-84074000D03*
D17*
X95134000Y-84074000D03*
D16*
%TO.P,MCU2,26,GP23*%
%TO.N,unconnected-(MCU2-GP23-Pad26)*%
X94234000Y-81534000D03*
D17*
X95134000Y-81534000D03*
D16*
%TO.P,MCU2,27,GP24*%
%TO.N,unconnected-(MCU2-GP24-Pad27)*%
X94234000Y-78994000D03*
D17*
X95134000Y-78994000D03*
D16*
%TO.P,MCU2,28,GP25*%
%TO.N,unconnected-(MCU2-GP25-Pad28)*%
X94234000Y-76454000D03*
D17*
X95134000Y-76454000D03*
D19*
%TO.P,MCU2,29,AGND*%
%TO.N,unconnected-(MCU2-AGND-Pad29)*%
X94234000Y-73914000D03*
D17*
X95134000Y-73914000D03*
D16*
%TO.P,MCU2,30,GP26_A0*%
%TO.N,unconnected-(MCU2-GP26_A0-Pad30)*%
X94234000Y-71374000D03*
D17*
X95134000Y-71374000D03*
D16*
%TO.P,MCU2,31,GP27_A1*%
%TO.N,unconnected-(MCU2-GP27_A1-Pad31)*%
X94234000Y-68834000D03*
D17*
X95134000Y-68834000D03*
D16*
%TO.P,MCU2,32,GP28_A2*%
%TO.N,unconnected-(MCU2-GP28_A2-Pad32)*%
X94234000Y-66294000D03*
D17*
X95134000Y-66294000D03*
D16*
%TO.P,MCU2,33,GP29_A3*%
%TO.N,unconnected-(MCU2-GP29_A3-Pad33)*%
X94234000Y-63754000D03*
D17*
X95134000Y-63754000D03*
D16*
%TO.P,MCU2,34,RUN*%
%TO.N,unconnected-(MCU2-RUN-Pad34)*%
X94234000Y-61214000D03*
D17*
X95134000Y-61214000D03*
D19*
%TO.P,MCU2,35,GND*%
%TO.N,GND2*%
X94234000Y-58674000D03*
D17*
X95134000Y-58674000D03*
D16*
%TO.P,MCU2,36,3V3*%
%TO.N,3V3_BUS1*%
X94234000Y-56134000D03*
D17*
X95134000Y-56134000D03*
D16*
%TO.P,MCU2,37,3V3_EN*%
%TO.N,unconnected-(MCU2-3V3_EN-Pad37)*%
X94234000Y-53594000D03*
D17*
X95134000Y-53594000D03*
D19*
%TO.P,MCU2,38,GND*%
%TO.N,GND2*%
X94234000Y-51054000D03*
D17*
X95134000Y-51054000D03*
D16*
%TO.P,MCU2,39,VIN*%
%TO.N,unconnected-(MCU2-VIN-Pad39)*%
X94234000Y-48514000D03*
D17*
X95134000Y-48514000D03*
D16*
%TO.P,MCU2,40,VBUS*%
%TO.N,VBUS1*%
X94234000Y-45974000D03*
D17*
X95134000Y-45974000D03*
%TD*%
D11*
%TO.P,H1,1,1*%
%TO.N,GND*%
X37846000Y-111506000D03*
D15*
X37846000Y-111506000D03*
%TD*%
D16*
%TO.P,MCU1,1,GP0*%
%TO.N,unconnected-(MCU1-GP0-Pad1)*%
X39995523Y-45958249D03*
D17*
X39095523Y-45958249D03*
D16*
%TO.P,MCU1,2,GP1*%
%TO.N,unconnected-(MCU1-GP1-Pad2)*%
X39995523Y-48498249D03*
D18*
X39095523Y-48498249D03*
D16*
%TO.P,MCU1,3,GP2*%
%TO.N,unconnected-(MCU1-GP2-Pad3)*%
X39995523Y-51038249D03*
D18*
X39095523Y-51038249D03*
D16*
%TO.P,MCU1,4,GP3*%
%TO.N,unconnected-(MCU1-GP3-Pad4)*%
X39995523Y-53578249D03*
D18*
X39095523Y-53578249D03*
D16*
%TO.P,MCU1,5,GP4*%
%TO.N,unconnected-(MCU1-GP4-Pad5)*%
X39995523Y-56118249D03*
D18*
X39095523Y-56118249D03*
D19*
%TO.P,MCU1,6,GND*%
%TO.N,GND*%
X39995523Y-58658249D03*
D18*
X39095523Y-58658249D03*
D16*
%TO.P,MCU1,7,GP5*%
%TO.N,unconnected-(MCU1-GP5-Pad7)*%
X39995523Y-61198249D03*
D18*
X39095523Y-61198249D03*
D16*
%TO.P,MCU1,8,GP6*%
%TO.N,unconnected-(MCU1-GP6-Pad8)*%
X39995523Y-63738249D03*
D18*
X39095523Y-63738249D03*
D16*
%TO.P,MCU1,9,GP7*%
%TO.N,unconnected-(MCU1-GP7-Pad9)*%
X39995523Y-66278249D03*
D18*
X39095523Y-66278249D03*
D16*
%TO.P,MCU1,10,GP8*%
%TO.N,unconnected-(MCU1-GP8-Pad10)*%
X39995523Y-68818249D03*
D18*
X39095523Y-68818249D03*
D16*
%TO.P,MCU1,11,GP9*%
%TO.N,unconnected-(MCU1-GP9-Pad11)*%
X39995523Y-71358249D03*
D18*
X39095523Y-71358249D03*
%TO.P,MCU1,12,GP10*%
%TO.N,unconnected-(MCU1-GP10-Pad12)*%
X39095523Y-73898249D03*
D19*
X57775523Y-73898249D03*
D16*
%TO.P,MCU1,13,GP11*%
%TO.N,unconnected-(MCU1-GP11-Pad13)*%
X39995523Y-76438249D03*
D18*
X39095523Y-76438249D03*
D16*
%TO.P,MCU1,14,GP12*%
%TO.N,unconnected-(MCU1-GP12-Pad14)*%
X39995523Y-78978249D03*
D18*
X39095523Y-78978249D03*
D19*
%TO.P,MCU1,15,GND*%
%TO.N,GND*%
X39995523Y-81518249D03*
D18*
X39095523Y-81518249D03*
D16*
%TO.P,MCU1,16,GP13*%
%TO.N,unconnected-(MCU1-GP13-Pad16)*%
X39995523Y-84058249D03*
D18*
X39095523Y-84058249D03*
D16*
%TO.P,MCU1,17,GP14*%
%TO.N,MCU1 D+*%
X39995523Y-86598249D03*
D18*
X39095523Y-86598249D03*
D16*
%TO.P,MCU1,18,GP15*%
%TO.N,MCU1 D-*%
X39995523Y-89138249D03*
D18*
X39095523Y-89138249D03*
D16*
%TO.P,MCU1,19,GP16*%
%TO.N,unconnected-(MCU1-GP16-Pad19)*%
X39995523Y-91678249D03*
D18*
X39095523Y-91678249D03*
D16*
%TO.P,MCU1,20,GP17*%
%TO.N,unconnected-(MCU1-GP17-Pad20)*%
X39995523Y-94218249D03*
D18*
X39095523Y-94218249D03*
D16*
%TO.P,MCU1,21,GP18*%
%TO.N,UART B TX*%
X57775523Y-94218249D03*
D17*
X58675523Y-94218249D03*
D16*
%TO.P,MCU1,22,GP19*%
%TO.N,UART B RX*%
X57775523Y-91678249D03*
D17*
X58675523Y-91678249D03*
D16*
%TO.P,MCU1,23,GP20*%
%TO.N,unconnected-(MCU1-GP20-Pad23)*%
X57775523Y-89138249D03*
D17*
X58675523Y-89138249D03*
D16*
%TO.P,MCU1,24,GP21*%
%TO.N,unconnected-(MCU1-GP21-Pad24)*%
X57775523Y-86598249D03*
D17*
X58675523Y-86598249D03*
D16*
%TO.P,MCU1,25,GP22*%
%TO.N,unconnected-(MCU1-GP22-Pad25)*%
X57775523Y-84058249D03*
D17*
X58675523Y-84058249D03*
D16*
%TO.P,MCU1,26,GP23*%
%TO.N,unconnected-(MCU1-GP23-Pad26)*%
X57775523Y-81518249D03*
D17*
X58675523Y-81518249D03*
D16*
%TO.P,MCU1,27,GP24*%
%TO.N,unconnected-(MCU1-GP24-Pad27)*%
X57775523Y-78978249D03*
D17*
X58675523Y-78978249D03*
D16*
%TO.P,MCU1,28,GP25*%
%TO.N,unconnected-(MCU1-GP25-Pad28)*%
X57775523Y-76438249D03*
D17*
X58675523Y-76438249D03*
D16*
%TO.P,MCU1,29,AGND*%
%TO.N,unconnected-(MCU1-AGND-Pad29)*%
X39995523Y-73898249D03*
D17*
X58675523Y-73898249D03*
D16*
%TO.P,MCU1,30,GP26_A0*%
%TO.N,unconnected-(MCU1-GP26_A0-Pad30)*%
X57775523Y-71358249D03*
D17*
X58675523Y-71358249D03*
D16*
%TO.P,MCU1,31,GP27_A1*%
%TO.N,unconnected-(MCU1-GP27_A1-Pad31)*%
X57775523Y-68818249D03*
D17*
X58675523Y-68818249D03*
D16*
%TO.P,MCU1,32,GP28_A2*%
%TO.N,unconnected-(MCU1-GP28_A2-Pad32)*%
X57775523Y-66278249D03*
D17*
X58675523Y-66278249D03*
D16*
%TO.P,MCU1,33,GP29_A3*%
%TO.N,unconnected-(MCU1-GP29_A3-Pad33)*%
X57775523Y-63738249D03*
D17*
X58675523Y-63738249D03*
D16*
%TO.P,MCU1,34,RUN*%
%TO.N,unconnected-(MCU1-RUN-Pad34)*%
X57775523Y-61198249D03*
D17*
X58675523Y-61198249D03*
D19*
%TO.P,MCU1,35,GND*%
%TO.N,GND*%
X57775523Y-58658249D03*
D17*
X58675523Y-58658249D03*
D16*
%TO.P,MCU1,36,3V3*%
%TO.N,3V3_BUS2*%
X57775523Y-56118249D03*
D17*
X58675523Y-56118249D03*
D16*
%TO.P,MCU1,37,3V3_EN*%
%TO.N,unconnected-(MCU1-3V3_EN-Pad37)*%
X57775523Y-53578249D03*
D17*
X58675523Y-53578249D03*
D19*
%TO.P,MCU1,38,GND*%
%TO.N,GND*%
X57775523Y-51038249D03*
D17*
X58675523Y-51038249D03*
D16*
%TO.P,MCU1,39,VIN*%
%TO.N,unconnected-(MCU1-VIN-Pad39)*%
X57775523Y-48498249D03*
D17*
X58675523Y-48498249D03*
D16*
%TO.P,MCU1,40,VBUS*%
%TO.N,VBUS2*%
X57775523Y-45958249D03*
D17*
X58675523Y-45958249D03*
%TD*%
D20*
%TO.N,GND2*%
X69060600Y-75014100D03*
%TD*%
D21*
%TO.N,MCU2 D-*%
X84356999Y-100799001D02*
X83582000Y-101574000D01*
X76454000Y-89154000D02*
X77499000Y-88109000D01*
X77499000Y-88109000D02*
X83790800Y-88109000D01*
X84356999Y-88675199D02*
X84356999Y-100799001D01*
X83790800Y-88109000D02*
X84356999Y-88675199D01*
%TO.N,MCU2 D+*%
X84807001Y-88488801D02*
X84807001Y-100799001D01*
X76454000Y-86614000D02*
X77499000Y-87659000D01*
X84807001Y-100799001D02*
X85582000Y-101574000D01*
X83977200Y-87659000D02*
X84807001Y-88488801D01*
X77499000Y-87659000D02*
X83977200Y-87659000D01*
%TO.N,MCU1 D-*%
X49050999Y-100799001D02*
X48276000Y-101574000D01*
X47775050Y-88093250D02*
X49050999Y-89369199D01*
X39995523Y-89138249D02*
X41040522Y-88093250D01*
X41040522Y-88093250D02*
X47775050Y-88093250D01*
X49050999Y-89369199D02*
X49050999Y-100799001D01*
%TO.N,MCU1 D+*%
X39995523Y-86598249D02*
X41040522Y-87643248D01*
X49501001Y-100799001D02*
X50276000Y-101574000D01*
X41040522Y-87643248D02*
X47961448Y-87643248D01*
X47961448Y-87643248D02*
X49501001Y-89182801D01*
X49501001Y-89182801D02*
X49501001Y-100799001D01*
%TD*%
%TA.AperFunction,Conductor*%
%TO.N,GND*%
G36*
X64221287Y-41130309D02*
G01*
X64267042Y-41183113D01*
X64276986Y-41252271D01*
X64247961Y-41315827D01*
X64235286Y-41328478D01*
X64038835Y-41498082D01*
X63910366Y-41608993D01*
X63605703Y-41923025D01*
X63329938Y-42262715D01*
X63085226Y-42625411D01*
X63085213Y-42625431D01*
X62873469Y-43008285D01*
X62873460Y-43008304D01*
X62696319Y-43408360D01*
X62696318Y-43408364D01*
X62555165Y-43822502D01*
X62451103Y-44247485D01*
X62451099Y-44247505D01*
X62384949Y-44679980D01*
X62384948Y-44679990D01*
X62380753Y-44746042D01*
X62358526Y-45096036D01*
X62357216Y-45116660D01*
X62357215Y-45116674D01*
X62368121Y-45554036D01*
X62368123Y-45554072D01*
X62417578Y-45988767D01*
X62417579Y-45988773D01*
X62417580Y-45988780D01*
X62417581Y-45988785D01*
X62464790Y-46219734D01*
X62505207Y-46417457D01*
X62630317Y-46836725D01*
X62791935Y-47243319D01*
X62988800Y-47634064D01*
X63219374Y-48005912D01*
X63481867Y-48355973D01*
X63774211Y-48681490D01*
X63774214Y-48681492D01*
X63774216Y-48681495D01*
X64094153Y-48979956D01*
X64094157Y-48979959D01*
X64094158Y-48979960D01*
X64129587Y-49007589D01*
X64439177Y-49249021D01*
X64806598Y-49486592D01*
X65193548Y-49690816D01*
X65597009Y-49860099D01*
X65597015Y-49860101D01*
X65597025Y-49860105D01*
X66013819Y-49993116D01*
X66013835Y-49993121D01*
X66227306Y-50040967D01*
X66299402Y-50057131D01*
X66299404Y-50057130D01*
X66299998Y-50057264D01*
X66361107Y-50091138D01*
X66394201Y-50152673D01*
X66396870Y-50178222D01*
X66416808Y-115416837D01*
X66397144Y-115483883D01*
X66344354Y-115529654D01*
X66292808Y-115540875D01*
X33922903Y-115540875D01*
X33855864Y-115521190D01*
X33810109Y-115468386D01*
X33798903Y-115416875D01*
X33798903Y-111506000D01*
X34640958Y-111506000D01*
X34661110Y-111864846D01*
X34661112Y-111864858D01*
X34721314Y-112219185D01*
X34721316Y-112219194D01*
X34820812Y-112564552D01*
X34958353Y-112896609D01*
X34958355Y-112896613D01*
X35132215Y-113211189D01*
X35132218Y-113211194D01*
X35340193Y-113504306D01*
X35412844Y-113585601D01*
X36731073Y-112267372D01*
X36807890Y-112377078D01*
X36974922Y-112544110D01*
X37084626Y-112620925D01*
X35766397Y-113939154D01*
X35847693Y-114011806D01*
X36140805Y-114219781D01*
X36140810Y-114219784D01*
X36455386Y-114393644D01*
X36455390Y-114393646D01*
X36787447Y-114531187D01*
X37132805Y-114630683D01*
X37132814Y-114630685D01*
X37487141Y-114690887D01*
X37487153Y-114690889D01*
X37846000Y-114711041D01*
X38204846Y-114690889D01*
X38204858Y-114690887D01*
X38559185Y-114630685D01*
X38559194Y-114630683D01*
X38904552Y-114531187D01*
X39236609Y-114393646D01*
X39236613Y-114393644D01*
X39551189Y-114219784D01*
X39551194Y-114219781D01*
X39844299Y-114011811D01*
X39844322Y-114011793D01*
X39925602Y-113939155D01*
X39925602Y-113939154D01*
X38607373Y-112620925D01*
X38717078Y-112544110D01*
X38884110Y-112377078D01*
X38960926Y-112267373D01*
X40279154Y-113585602D01*
X40279155Y-113585602D01*
X40351793Y-113504322D01*
X40351811Y-113504299D01*
X40559781Y-113211194D01*
X40559784Y-113211189D01*
X40733644Y-112896613D01*
X40733646Y-112896609D01*
X40871187Y-112564552D01*
X40970683Y-112219194D01*
X40970685Y-112219185D01*
X41030887Y-111864858D01*
X41030889Y-111864846D01*
X41051041Y-111506000D01*
X41030889Y-111147153D01*
X41030887Y-111147141D01*
X40970685Y-110792814D01*
X40970683Y-110792805D01*
X40871187Y-110447447D01*
X40733646Y-110115390D01*
X40733644Y-110115386D01*
X40559784Y-109800810D01*
X40559781Y-109800805D01*
X40351806Y-109507693D01*
X40279154Y-109426397D01*
X38960925Y-110744626D01*
X38884110Y-110634922D01*
X38717078Y-110467890D01*
X38607373Y-110391073D01*
X39925601Y-109072844D01*
X39925602Y-109072844D01*
X39844306Y-109000193D01*
X39551194Y-108792218D01*
X39551189Y-108792215D01*
X39236613Y-108618355D01*
X39236609Y-108618353D01*
X38904552Y-108480812D01*
X38559194Y-108381316D01*
X38559185Y-108381314D01*
X38204858Y-108321112D01*
X38204846Y-108321110D01*
X37846000Y-108300958D01*
X37487153Y-108321110D01*
X37487141Y-108321112D01*
X37132814Y-108381314D01*
X37132805Y-108381316D01*
X36787447Y-108480812D01*
X36455390Y-108618353D01*
X36455386Y-108618355D01*
X36140810Y-108792215D01*
X36140805Y-108792218D01*
X35847693Y-109000193D01*
X35766397Y-109072844D01*
X37084626Y-110391073D01*
X36974922Y-110467890D01*
X36807890Y-110634922D01*
X36731073Y-110744626D01*
X35412844Y-109426397D01*
X35340193Y-109507693D01*
X35132218Y-109800805D01*
X35132215Y-109800810D01*
X34958355Y-110115386D01*
X34958353Y-110115390D01*
X34820812Y-110447447D01*
X34721316Y-110792805D01*
X34721314Y-110792814D01*
X34661112Y-111147141D01*
X34661110Y-111147153D01*
X34640958Y-111506000D01*
X33798903Y-111506000D01*
X33798903Y-104284001D01*
X40700891Y-104284001D01*
X40721300Y-104569362D01*
X40782109Y-104848895D01*
X40882091Y-105116958D01*
X41019191Y-105368038D01*
X41019196Y-105368046D01*
X41125882Y-105510561D01*
X41125883Y-105510562D01*
X41735438Y-104901006D01*
X41784348Y-104979999D01*
X41927931Y-105137501D01*
X42086388Y-105257163D01*
X41479436Y-105864115D01*
X41621960Y-105970807D01*
X41621961Y-105970808D01*
X41873042Y-106107908D01*
X41873041Y-106107908D01*
X42141104Y-106207890D01*
X42420637Y-106268699D01*
X42705999Y-106289109D01*
X42706001Y-106289109D01*
X42991362Y-106268699D01*
X43270895Y-106207890D01*
X43538958Y-106107908D01*
X43790047Y-105970803D01*
X43932561Y-105864116D01*
X43932562Y-105864115D01*
X43325611Y-105257163D01*
X43484069Y-105137501D01*
X43627652Y-104979999D01*
X43676560Y-104901007D01*
X44286115Y-105510562D01*
X44286116Y-105510561D01*
X44392803Y-105368047D01*
X44529908Y-105116958D01*
X44629890Y-104848895D01*
X44690699Y-104569362D01*
X44711109Y-104284001D01*
X53840891Y-104284001D01*
X53861300Y-104569362D01*
X53922109Y-104848895D01*
X54022091Y-105116958D01*
X54159191Y-105368038D01*
X54159196Y-105368046D01*
X54265882Y-105510561D01*
X54265883Y-105510562D01*
X54875438Y-104901006D01*
X54924348Y-104979999D01*
X55067931Y-105137501D01*
X55226388Y-105257163D01*
X54619436Y-105864115D01*
X54761960Y-105970807D01*
X54761961Y-105970808D01*
X55013042Y-106107908D01*
X55013041Y-106107908D01*
X55281104Y-106207890D01*
X55560637Y-106268699D01*
X55845999Y-106289109D01*
X55846001Y-106289109D01*
X56131362Y-106268699D01*
X56410895Y-106207890D01*
X56678958Y-106107908D01*
X56930047Y-105970803D01*
X57072561Y-105864116D01*
X57072562Y-105864115D01*
X56465611Y-105257163D01*
X56624069Y-105137501D01*
X56767652Y-104979999D01*
X56816560Y-104901007D01*
X57426115Y-105510562D01*
X57426116Y-105510561D01*
X57532803Y-105368047D01*
X57669908Y-105116958D01*
X57769890Y-104848895D01*
X57830699Y-104569362D01*
X57851109Y-104284001D01*
X57851109Y-104283998D01*
X57830699Y-103998637D01*
X57769890Y-103719104D01*
X57669908Y-103451041D01*
X57532808Y-103199961D01*
X57532807Y-103199960D01*
X57426115Y-103057436D01*
X56816560Y-103666991D01*
X56767652Y-103588001D01*
X56624069Y-103430499D01*
X56465610Y-103310835D01*
X57072562Y-102703883D01*
X57072561Y-102703882D01*
X56930046Y-102597196D01*
X56930038Y-102597191D01*
X56678957Y-102460091D01*
X56678958Y-102460091D01*
X56410895Y-102360109D01*
X56131362Y-102299300D01*
X55846001Y-102278891D01*
X55845999Y-102278891D01*
X55560637Y-102299300D01*
X55281104Y-102360109D01*
X55013041Y-102460091D01*
X54761961Y-102597191D01*
X54761953Y-102597196D01*
X54619437Y-102703882D01*
X54619436Y-102703883D01*
X55226389Y-103310835D01*
X55067931Y-103430499D01*
X54924348Y-103588001D01*
X54875439Y-103666992D01*
X54265883Y-103057436D01*
X54265882Y-103057437D01*
X54159196Y-103199953D01*
X54159191Y-103199961D01*
X54022091Y-103451041D01*
X53922109Y-103719104D01*
X53861300Y-103998637D01*
X53840891Y-104283998D01*
X53840891Y-104284001D01*
X44711109Y-104284001D01*
X44711109Y-104283998D01*
X44690699Y-103998637D01*
X44629890Y-103719104D01*
X44529908Y-103451041D01*
X44392808Y-103199961D01*
X44392807Y-103199960D01*
X44286115Y-103057436D01*
X43676560Y-103666991D01*
X43627652Y-103588001D01*
X43484069Y-103430499D01*
X43325610Y-103310835D01*
X43932562Y-102703883D01*
X43932561Y-102703882D01*
X43790046Y-102597196D01*
X43790038Y-102597191D01*
X43538957Y-102460091D01*
X43538958Y-102460091D01*
X43270895Y-102360109D01*
X42991362Y-102299300D01*
X42706001Y-102278891D01*
X42705999Y-102278891D01*
X42420637Y-102299300D01*
X42141104Y-102360109D01*
X41873041Y-102460091D01*
X41621961Y-102597191D01*
X41621953Y-102597196D01*
X41479437Y-102703882D01*
X41479436Y-102703883D01*
X42086389Y-103310835D01*
X41927931Y-103430499D01*
X41784348Y-103588001D01*
X41735439Y-103666992D01*
X41125883Y-103057436D01*
X41125882Y-103057437D01*
X41019196Y-103199953D01*
X41019191Y-103199961D01*
X40882091Y-103451041D01*
X40782109Y-103719104D01*
X40721300Y-103998637D01*
X40700891Y-104283998D01*
X40700891Y-104284001D01*
X33798903Y-104284001D01*
X33798903Y-94708575D01*
X36837023Y-94708575D01*
X36837024Y-94708594D01*
X36843436Y-94790083D01*
X36843437Y-94790085D01*
X36894225Y-94979628D01*
X36983312Y-95154470D01*
X37106803Y-95306969D01*
X37259302Y-95430460D01*
X37434144Y-95519547D01*
X37623687Y-95570335D01*
X37705186Y-95576749D01*
X39712887Y-95576748D01*
X39733297Y-95578439D01*
X39880775Y-95603049D01*
X39880776Y-95603049D01*
X40110270Y-95603049D01*
X40110271Y-95603049D01*
X40257749Y-95578438D01*
X40278158Y-95576748D01*
X40485850Y-95576748D01*
X40485859Y-95576748D01*
X40567359Y-95570335D01*
X40756902Y-95519547D01*
X40931744Y-95430460D01*
X41084243Y-95306969D01*
X41207734Y-95154470D01*
X41296821Y-94979628D01*
X41347609Y-94790085D01*
X41354023Y-94708586D01*
X41354022Y-94510176D01*
X41357817Y-94479734D01*
X41366117Y-94446961D01*
X41385069Y-94218249D01*
X41366117Y-93989537D01*
X41366116Y-93989532D01*
X41357816Y-93956756D01*
X41354022Y-93926316D01*
X41354022Y-93727922D01*
X41354021Y-93727912D01*
X41347609Y-93646413D01*
X41296821Y-93456870D01*
X41207734Y-93282028D01*
X41084243Y-93129529D01*
X40979381Y-93044613D01*
X40939671Y-92987128D01*
X40937343Y-92917297D01*
X40973138Y-92857293D01*
X40979371Y-92851891D01*
X41084243Y-92766969D01*
X41207734Y-92614470D01*
X41296821Y-92439628D01*
X41347609Y-92250085D01*
X41354023Y-92168586D01*
X41354022Y-91970176D01*
X41357817Y-91939734D01*
X41366117Y-91906961D01*
X41385069Y-91678249D01*
X41366117Y-91449537D01*
X41366116Y-91449532D01*
X41357816Y-91416756D01*
X41354022Y-91386316D01*
X41354022Y-91187922D01*
X41354021Y-91187912D01*
X41347609Y-91106413D01*
X41296821Y-90916870D01*
X41207734Y-90742028D01*
X41084243Y-90589529D01*
X40979381Y-90504613D01*
X40939671Y-90447128D01*
X40937343Y-90377297D01*
X40973138Y-90317293D01*
X40979371Y-90311891D01*
X41084243Y-90226969D01*
X41207734Y-90074470D01*
X41296821Y-89899628D01*
X41347609Y-89710085D01*
X41354023Y-89628586D01*
X41354022Y-89430176D01*
X41357817Y-89399734D01*
X41366117Y-89366961D01*
X41371399Y-89303207D01*
X41385069Y-89138254D01*
X41385069Y-89138243D01*
X41366118Y-88909545D01*
X41366116Y-88909532D01*
X41357816Y-88876756D01*
X41354022Y-88846316D01*
X41354022Y-88825750D01*
X41373707Y-88758711D01*
X41426511Y-88712956D01*
X41478022Y-88701750D01*
X47471639Y-88701750D01*
X47538678Y-88721435D01*
X47559320Y-88738069D01*
X48406180Y-89584929D01*
X48439665Y-89646252D01*
X48442499Y-89672610D01*
X48442499Y-100139746D01*
X48422814Y-100206785D01*
X48370010Y-100252540D01*
X48307693Y-100263274D01*
X48276004Y-100260502D01*
X48275998Y-100260502D01*
X48047918Y-100280456D01*
X48047910Y-100280457D01*
X47826761Y-100339714D01*
X47826750Y-100339718D01*
X47619254Y-100436475D01*
X47619252Y-100436476D01*
X47431699Y-100567803D01*
X47270579Y-100728923D01*
X47209256Y-100762407D01*
X47139564Y-100757423D01*
X47083631Y-100715551D01*
X47066717Y-100684576D01*
X47045544Y-100627813D01*
X47026889Y-100577796D01*
X46939261Y-100460739D01*
X46822204Y-100373111D01*
X46685203Y-100322011D01*
X46624654Y-100315500D01*
X46624638Y-100315500D01*
X44927362Y-100315500D01*
X44927345Y-100315500D01*
X44866797Y-100322011D01*
X44866795Y-100322011D01*
X44729795Y-100373111D01*
X44612739Y-100460739D01*
X44525111Y-100577795D01*
X44474011Y-100714795D01*
X44474011Y-100714797D01*
X44467500Y-100775345D01*
X44467500Y-102372654D01*
X44474011Y-102433202D01*
X44474011Y-102433204D01*
X44525111Y-102570203D01*
X44525111Y-102570204D01*
X44612739Y-102687261D01*
X44729796Y-102774889D01*
X44866799Y-102825989D01*
X44894050Y-102828918D01*
X44927345Y-102832499D01*
X44927362Y-102832500D01*
X46624638Y-102832500D01*
X46624654Y-102832499D01*
X46651692Y-102829591D01*
X46685201Y-102825989D01*
X46822204Y-102774889D01*
X46939261Y-102687261D01*
X47026889Y-102570204D01*
X47040586Y-102533480D01*
X47066717Y-102463424D01*
X47108588Y-102407490D01*
X47174053Y-102383074D01*
X47242326Y-102397926D01*
X47270579Y-102419077D01*
X47431700Y-102580198D01*
X47619251Y-102711523D01*
X47744091Y-102769736D01*
X47826750Y-102808281D01*
X47826752Y-102808281D01*
X47826757Y-102808284D01*
X48047913Y-102867543D01*
X48210832Y-102881796D01*
X48275998Y-102887498D01*
X48276000Y-102887498D01*
X48276002Y-102887498D01*
X48333021Y-102882509D01*
X48504087Y-102867543D01*
X48725243Y-102808284D01*
X48932749Y-102711523D01*
X49120300Y-102580198D01*
X49188319Y-102512179D01*
X49249642Y-102478694D01*
X49319334Y-102483678D01*
X49363681Y-102512179D01*
X49431700Y-102580198D01*
X49619251Y-102711523D01*
X49744091Y-102769736D01*
X49826750Y-102808281D01*
X49826752Y-102808281D01*
X49826757Y-102808284D01*
X50047913Y-102867543D01*
X50210832Y-102881796D01*
X50275998Y-102887498D01*
X50276000Y-102887498D01*
X50276002Y-102887498D01*
X50333021Y-102882509D01*
X50504087Y-102867543D01*
X50725243Y-102808284D01*
X50932749Y-102711523D01*
X51120300Y-102580198D01*
X51282198Y-102418300D01*
X51413523Y-102230749D01*
X51418305Y-102220493D01*
X51464472Y-102168054D01*
X51531665Y-102148898D01*
X51598547Y-102169110D01*
X51643067Y-102220483D01*
X51645862Y-102226477D01*
X51645863Y-102226478D01*
X51696974Y-102299472D01*
X52313064Y-101683382D01*
X52339481Y-101773351D01*
X52413327Y-101888258D01*
X52516555Y-101977705D01*
X52640801Y-102034446D01*
X52665548Y-102038004D01*
X52050526Y-102653025D01*
X52123513Y-102704132D01*
X52123521Y-102704136D01*
X52329668Y-102800264D01*
X52329682Y-102800269D01*
X52549389Y-102859139D01*
X52549400Y-102859141D01*
X52775998Y-102878966D01*
X52776002Y-102878966D01*
X53002599Y-102859141D01*
X53002610Y-102859139D01*
X53222317Y-102800269D01*
X53222331Y-102800264D01*
X53428478Y-102704136D01*
X53501471Y-102653024D01*
X52886451Y-102038004D01*
X52911199Y-102034446D01*
X53035445Y-101977705D01*
X53138673Y-101888258D01*
X53212519Y-101773351D01*
X53238935Y-101683382D01*
X53855024Y-102299471D01*
X53906136Y-102226478D01*
X54002264Y-102020331D01*
X54002269Y-102020317D01*
X54061139Y-101800610D01*
X54061141Y-101800599D01*
X54080966Y-101574002D01*
X54080966Y-101573997D01*
X54061141Y-101347400D01*
X54061139Y-101347389D01*
X54002269Y-101127682D01*
X54002264Y-101127668D01*
X53906136Y-100921521D01*
X53906132Y-100921513D01*
X53855025Y-100848526D01*
X53238935Y-101464616D01*
X53212519Y-101374649D01*
X53138673Y-101259742D01*
X53035445Y-101170295D01*
X52911199Y-101113554D01*
X52886451Y-101109995D01*
X53501472Y-100494974D01*
X53428478Y-100443863D01*
X53222331Y-100347735D01*
X53222317Y-100347730D01*
X53002610Y-100288860D01*
X53002599Y-100288858D01*
X52776002Y-100269034D01*
X52775998Y-100269034D01*
X52549400Y-100288858D01*
X52549389Y-100288860D01*
X52329682Y-100347730D01*
X52329673Y-100347734D01*
X52123516Y-100443866D01*
X52123512Y-100443868D01*
X52050526Y-100494973D01*
X52050526Y-100494974D01*
X52665548Y-101109995D01*
X52640801Y-101113554D01*
X52516555Y-101170295D01*
X52413327Y-101259742D01*
X52339481Y-101374649D01*
X52313064Y-101464616D01*
X51696974Y-100848526D01*
X51696973Y-100848526D01*
X51645868Y-100921512D01*
X51645865Y-100921518D01*
X51643070Y-100927513D01*
X51596897Y-100979951D01*
X51529703Y-100999102D01*
X51462822Y-100978885D01*
X51418307Y-100927511D01*
X51413523Y-100917251D01*
X51282198Y-100729700D01*
X51120300Y-100567802D01*
X50932749Y-100436477D01*
X50932745Y-100436475D01*
X50725249Y-100339718D01*
X50725238Y-100339714D01*
X50504089Y-100280457D01*
X50504081Y-100280456D01*
X50276002Y-100260502D01*
X50275996Y-100260502D01*
X50244307Y-100263274D01*
X50175807Y-100249507D01*
X50125625Y-100200891D01*
X50109501Y-100139746D01*
X50109501Y-94218254D01*
X56385977Y-94218254D01*
X56404927Y-94446954D01*
X56404928Y-94446960D01*
X56413229Y-94479738D01*
X56417023Y-94510176D01*
X56417023Y-94708575D01*
X56417024Y-94708594D01*
X56423436Y-94790083D01*
X56423437Y-94790085D01*
X56474225Y-94979628D01*
X56563312Y-95154470D01*
X56686803Y-95306969D01*
X56839302Y-95430460D01*
X57014144Y-95519547D01*
X57203687Y-95570335D01*
X57285186Y-95576749D01*
X57492889Y-95576748D01*
X57513300Y-95578439D01*
X57568890Y-95587715D01*
X57660775Y-95603049D01*
X57660780Y-95603049D01*
X57890266Y-95603049D01*
X57890271Y-95603049D01*
X57995398Y-95585505D01*
X58037746Y-95578439D01*
X58058156Y-95576748D01*
X60065850Y-95576748D01*
X60065859Y-95576748D01*
X60147359Y-95570335D01*
X60336902Y-95519547D01*
X60511744Y-95430460D01*
X60664243Y-95306969D01*
X60787734Y-95154470D01*
X60876821Y-94979628D01*
X60927609Y-94790085D01*
X60934023Y-94708586D01*
X60934022Y-93727913D01*
X60927609Y-93646413D01*
X60876821Y-93456870D01*
X60787734Y-93282028D01*
X60664243Y-93129529D01*
X60559381Y-93044613D01*
X60519671Y-92987128D01*
X60517343Y-92917297D01*
X60553138Y-92857293D01*
X60559371Y-92851891D01*
X60664243Y-92766969D01*
X60787734Y-92614470D01*
X60876821Y-92439628D01*
X60927609Y-92250085D01*
X60934023Y-92168586D01*
X60934022Y-91187913D01*
X60927609Y-91106413D01*
X60876821Y-90916870D01*
X60787734Y-90742028D01*
X60664243Y-90589529D01*
X60559381Y-90504613D01*
X60519671Y-90447128D01*
X60517343Y-90377297D01*
X60553138Y-90317293D01*
X60559371Y-90311891D01*
X60664243Y-90226969D01*
X60787734Y-90074470D01*
X60876821Y-89899628D01*
X60927609Y-89710085D01*
X60934023Y-89628586D01*
X60934022Y-88647913D01*
X60927609Y-88566413D01*
X60876821Y-88376870D01*
X60787734Y-88202028D01*
X60664243Y-88049529D01*
X60559381Y-87964613D01*
X60519671Y-87907128D01*
X60517343Y-87837297D01*
X60553138Y-87777293D01*
X60559371Y-87771891D01*
X60664243Y-87686969D01*
X60787734Y-87534470D01*
X60876821Y-87359628D01*
X60927609Y-87170085D01*
X60934023Y-87088586D01*
X60934022Y-86107913D01*
X60927609Y-86026413D01*
X60876821Y-85836870D01*
X60787734Y-85662028D01*
X60664243Y-85509529D01*
X60559381Y-85424613D01*
X60519671Y-85367128D01*
X60517343Y-85297297D01*
X60553138Y-85237293D01*
X60559371Y-85231891D01*
X60664243Y-85146969D01*
X60787734Y-84994470D01*
X60876821Y-84819628D01*
X60927609Y-84630085D01*
X60934023Y-84548586D01*
X60934022Y-83567913D01*
X60927609Y-83486413D01*
X60876821Y-83296870D01*
X60787734Y-83122028D01*
X60664243Y-82969529D01*
X60559381Y-82884613D01*
X60519671Y-82827128D01*
X60517343Y-82757297D01*
X60553138Y-82697293D01*
X60559371Y-82691891D01*
X60664243Y-82606969D01*
X60787734Y-82454470D01*
X60876821Y-82279628D01*
X60927609Y-82090085D01*
X60934023Y-82008586D01*
X60934022Y-81027913D01*
X60927609Y-80946413D01*
X60876821Y-80756870D01*
X60787734Y-80582028D01*
X60664243Y-80429529D01*
X60559381Y-80344613D01*
X60519671Y-80287128D01*
X60517343Y-80217297D01*
X60553138Y-80157293D01*
X60559371Y-80151891D01*
X60664243Y-80066969D01*
X60787734Y-79914470D01*
X60876821Y-79739628D01*
X60927609Y-79550085D01*
X60934023Y-79468586D01*
X60934022Y-78487913D01*
X60927609Y-78406413D01*
X60876821Y-78216870D01*
X60787734Y-78042028D01*
X60664243Y-77889529D01*
X60559381Y-77804613D01*
X60519671Y-77747128D01*
X60517343Y-77677297D01*
X60553138Y-77617293D01*
X60559371Y-77611891D01*
X60664243Y-77526969D01*
X60787734Y-77374470D01*
X60876821Y-77199628D01*
X60927609Y-77010085D01*
X60934023Y-76928586D01*
X60934022Y-75947913D01*
X60927609Y-75866413D01*
X60876821Y-75676870D01*
X60787734Y-75502028D01*
X60664243Y-75349529D01*
X60559381Y-75264613D01*
X60519671Y-75207128D01*
X60517343Y-75137297D01*
X60553138Y-75077293D01*
X60559371Y-75071891D01*
X60664243Y-74986969D01*
X60787734Y-74834470D01*
X60876821Y-74659628D01*
X60927609Y-74470085D01*
X60934023Y-74388586D01*
X60934022Y-73898249D01*
X60934022Y-73407922D01*
X60934021Y-73407912D01*
X60927609Y-73326413D01*
X60876821Y-73136870D01*
X60787734Y-72962028D01*
X60664243Y-72809529D01*
X60559381Y-72724613D01*
X60519671Y-72667128D01*
X60517343Y-72597297D01*
X60553138Y-72537293D01*
X60559371Y-72531891D01*
X60664243Y-72446969D01*
X60787734Y-72294470D01*
X60876821Y-72119628D01*
X60927609Y-71930085D01*
X60934023Y-71848586D01*
X60934022Y-70867913D01*
X60927609Y-70786413D01*
X60876821Y-70596870D01*
X60787734Y-70422028D01*
X60664243Y-70269529D01*
X60559381Y-70184613D01*
X60519671Y-70127128D01*
X60517343Y-70057297D01*
X60553138Y-69997293D01*
X60559371Y-69991891D01*
X60664243Y-69906969D01*
X60787734Y-69754470D01*
X60876821Y-69579628D01*
X60927609Y-69390085D01*
X60934023Y-69308586D01*
X60934022Y-68327913D01*
X60927609Y-68246413D01*
X60876821Y-68056870D01*
X60787734Y-67882028D01*
X60664243Y-67729529D01*
X60559381Y-67644613D01*
X60519671Y-67587128D01*
X60517343Y-67517297D01*
X60553138Y-67457293D01*
X60559371Y-67451891D01*
X60664243Y-67366969D01*
X60787734Y-67214470D01*
X60876821Y-67039628D01*
X60927609Y-66850085D01*
X60934023Y-66768586D01*
X60934022Y-65787913D01*
X60927609Y-65706413D01*
X60876821Y-65516870D01*
X60787734Y-65342028D01*
X60664243Y-65189529D01*
X60559381Y-65104613D01*
X60519671Y-65047128D01*
X60517343Y-64977297D01*
X60553138Y-64917293D01*
X60559371Y-64911891D01*
X60664243Y-64826969D01*
X60787734Y-64674470D01*
X60876821Y-64499628D01*
X60927609Y-64310085D01*
X60934023Y-64228586D01*
X60934022Y-63247913D01*
X60927609Y-63166413D01*
X60876821Y-62976870D01*
X60787734Y-62802028D01*
X60664243Y-62649529D01*
X60559381Y-62564613D01*
X60519671Y-62507128D01*
X60517343Y-62437297D01*
X60553138Y-62377293D01*
X60559371Y-62371891D01*
X60664243Y-62286969D01*
X60787734Y-62134470D01*
X60876821Y-61959628D01*
X60927609Y-61770085D01*
X60934023Y-61688586D01*
X60934022Y-60707913D01*
X60927609Y-60626413D01*
X60876821Y-60436870D01*
X60787734Y-60262028D01*
X60664243Y-60109529D01*
X60552626Y-60019144D01*
X60512917Y-59961659D01*
X60510589Y-59891828D01*
X60546384Y-59831824D01*
X60552628Y-59826414D01*
X60658198Y-59740924D01*
X60780565Y-59589816D01*
X60868840Y-59416564D01*
X60919167Y-59228746D01*
X60925522Y-59147992D01*
X60925523Y-59147979D01*
X60925523Y-58908249D01*
X58266236Y-58908249D01*
X58315227Y-58770401D01*
X58325472Y-58620631D01*
X58294929Y-58473652D01*
X58261040Y-58408249D01*
X60925523Y-58408249D01*
X60925523Y-58168518D01*
X60925522Y-58168505D01*
X60919167Y-58087751D01*
X60868840Y-57899933D01*
X60780565Y-57726681D01*
X60658198Y-57575572D01*
X60552628Y-57490082D01*
X60512917Y-57432595D01*
X60510590Y-57362764D01*
X60546386Y-57302760D01*
X60552630Y-57297351D01*
X60664243Y-57206969D01*
X60787734Y-57054470D01*
X60876821Y-56879628D01*
X60927609Y-56690085D01*
X60934023Y-56608586D01*
X60934022Y-55627913D01*
X60927609Y-55546413D01*
X60876821Y-55356870D01*
X60787734Y-55182028D01*
X60664243Y-55029529D01*
X60559381Y-54944613D01*
X60519671Y-54887128D01*
X60517343Y-54817297D01*
X60553138Y-54757293D01*
X60559371Y-54751891D01*
X60664243Y-54666969D01*
X60787734Y-54514470D01*
X60876821Y-54339628D01*
X60927609Y-54150085D01*
X60934023Y-54068586D01*
X60934022Y-53087913D01*
X60927609Y-53006413D01*
X60876821Y-52816870D01*
X60787734Y-52642028D01*
X60664243Y-52489529D01*
X60552626Y-52399144D01*
X60512917Y-52341659D01*
X60510589Y-52271828D01*
X60546384Y-52211824D01*
X60552628Y-52206414D01*
X60658198Y-52120924D01*
X60780565Y-51969816D01*
X60868840Y-51796564D01*
X60919167Y-51608746D01*
X60925522Y-51527992D01*
X60925523Y-51527979D01*
X60925523Y-51288249D01*
X58266236Y-51288249D01*
X58315227Y-51150401D01*
X58325472Y-51000631D01*
X58294929Y-50853652D01*
X58261040Y-50788249D01*
X60925523Y-50788249D01*
X60925523Y-50548518D01*
X60925522Y-50548505D01*
X60919167Y-50467751D01*
X60868840Y-50279933D01*
X60780565Y-50106681D01*
X60658198Y-49955572D01*
X60552628Y-49870082D01*
X60512917Y-49812595D01*
X60510590Y-49742764D01*
X60546386Y-49682760D01*
X60552630Y-49677351D01*
X60552702Y-49677293D01*
X60664243Y-49586969D01*
X60787734Y-49434470D01*
X60876821Y-49259628D01*
X60927609Y-49070085D01*
X60934023Y-48988586D01*
X60934022Y-48007913D01*
X60927609Y-47926413D01*
X60876821Y-47736870D01*
X60787734Y-47562028D01*
X60664243Y-47409529D01*
X60559381Y-47324613D01*
X60519671Y-47267128D01*
X60517343Y-47197297D01*
X60553138Y-47137293D01*
X60559371Y-47131891D01*
X60664243Y-47046969D01*
X60787734Y-46894470D01*
X60876821Y-46719628D01*
X60927609Y-46530085D01*
X60934023Y-46448586D01*
X60934022Y-45467913D01*
X60927609Y-45386413D01*
X60876821Y-45196870D01*
X60787734Y-45022028D01*
X60664243Y-44869529D01*
X60511744Y-44746038D01*
X60336902Y-44656951D01*
X60336901Y-44656950D01*
X60336900Y-44656950D01*
X60147357Y-44606162D01*
X60065865Y-44599749D01*
X60065860Y-44599749D01*
X58058156Y-44599749D01*
X58037747Y-44598058D01*
X57890271Y-44573449D01*
X57660775Y-44573449D01*
X57513296Y-44598058D01*
X57492888Y-44599749D01*
X57285196Y-44599749D01*
X57285177Y-44599750D01*
X57203688Y-44606162D01*
X57014145Y-44656950D01*
X56839303Y-44746037D01*
X56839296Y-44746042D01*
X56686803Y-44869529D01*
X56563316Y-45022022D01*
X56563311Y-45022029D01*
X56474224Y-45196871D01*
X56423436Y-45386414D01*
X56417023Y-45467906D01*
X56417023Y-45666320D01*
X56413229Y-45696759D01*
X56404928Y-45729538D01*
X56385977Y-45958243D01*
X56385977Y-45958254D01*
X56404927Y-46186954D01*
X56404928Y-46186960D01*
X56413229Y-46219738D01*
X56417023Y-46250176D01*
X56417023Y-46448575D01*
X56417024Y-46448594D01*
X56423436Y-46530083D01*
X56426955Y-46543213D01*
X56474225Y-46719628D01*
X56563312Y-46894470D01*
X56686803Y-47046969D01*
X56772626Y-47116467D01*
X56791663Y-47131883D01*
X56831374Y-47189370D01*
X56833702Y-47259201D01*
X56797906Y-47319205D01*
X56791663Y-47324615D01*
X56686803Y-47409529D01*
X56563316Y-47562022D01*
X56563311Y-47562029D01*
X56474224Y-47736871D01*
X56423436Y-47926414D01*
X56417023Y-48007906D01*
X56417023Y-48206320D01*
X56413229Y-48236759D01*
X56404928Y-48269538D01*
X56385977Y-48498243D01*
X56385977Y-48498254D01*
X56404927Y-48726954D01*
X56404928Y-48726960D01*
X56413229Y-48759738D01*
X56417023Y-48790176D01*
X56417023Y-48988575D01*
X56417024Y-48988594D01*
X56423436Y-49070083D01*
X56471383Y-49249021D01*
X56474225Y-49259628D01*
X56563312Y-49434470D01*
X56686803Y-49586969D01*
X56764049Y-49649522D01*
X56773273Y-49656991D01*
X56812984Y-49714478D01*
X56815312Y-49784309D01*
X56779516Y-49844313D01*
X56773273Y-49849723D01*
X56670343Y-49933073D01*
X56546239Y-50086330D01*
X56546239Y-50086331D01*
X56456709Y-50262045D01*
X56405668Y-50452533D01*
X56405668Y-50452534D01*
X56399223Y-50534429D01*
X56399223Y-50788249D01*
X57284810Y-50788249D01*
X57235819Y-50926097D01*
X57225574Y-51075867D01*
X57256117Y-51222846D01*
X57290006Y-51288249D01*
X56399223Y-51288249D01*
X56399223Y-51542068D01*
X56405668Y-51623963D01*
X56405668Y-51623964D01*
X56456709Y-51814452D01*
X56546239Y-51990166D01*
X56546239Y-51990167D01*
X56670342Y-52143423D01*
X56773272Y-52226773D01*
X56812984Y-52284260D01*
X56815312Y-52354091D01*
X56779517Y-52414095D01*
X56773274Y-52419505D01*
X56686803Y-52489528D01*
X56563316Y-52642022D01*
X56563311Y-52642029D01*
X56474224Y-52816871D01*
X56423436Y-53006414D01*
X56417023Y-53087906D01*
X56417023Y-53286320D01*
X56413229Y-53316759D01*
X56404928Y-53349538D01*
X56385977Y-53578243D01*
X56385977Y-53578254D01*
X56404927Y-53806954D01*
X56404928Y-53806960D01*
X56413229Y-53839738D01*
X56417023Y-53870176D01*
X56417023Y-54068575D01*
X56417024Y-54068594D01*
X56423436Y-54150083D01*
X56423437Y-54150085D01*
X56474225Y-54339628D01*
X56563312Y-54514470D01*
X56686803Y-54666969D01*
X56772626Y-54736467D01*
X56791663Y-54751883D01*
X56831374Y-54809370D01*
X56833702Y-54879201D01*
X56797906Y-54939205D01*
X56791663Y-54944615D01*
X56686803Y-55029529D01*
X56563316Y-55182022D01*
X56563311Y-55182029D01*
X56474224Y-55356871D01*
X56423436Y-55546414D01*
X56417023Y-55627906D01*
X56417023Y-55826320D01*
X56413229Y-55856759D01*
X56404928Y-55889538D01*
X56385977Y-56118243D01*
X56385977Y-56118254D01*
X56404927Y-56346954D01*
X56404928Y-56346960D01*
X56413229Y-56379738D01*
X56417023Y-56410176D01*
X56417023Y-56608575D01*
X56417024Y-56608594D01*
X56423436Y-56690083D01*
X56423437Y-56690085D01*
X56474225Y-56879628D01*
X56563312Y-57054470D01*
X56686803Y-57206969D01*
X56764049Y-57269522D01*
X56773273Y-57276991D01*
X56812984Y-57334478D01*
X56815312Y-57404309D01*
X56779516Y-57464313D01*
X56773273Y-57469723D01*
X56670343Y-57553073D01*
X56546239Y-57706330D01*
X56546239Y-57706331D01*
X56456709Y-57882045D01*
X56405668Y-58072533D01*
X56405668Y-58072534D01*
X56399223Y-58154429D01*
X56399223Y-58408249D01*
X57284810Y-58408249D01*
X57235819Y-58546097D01*
X57225574Y-58695867D01*
X57256117Y-58842846D01*
X57290006Y-58908249D01*
X56399223Y-58908249D01*
X56399223Y-59162068D01*
X56405668Y-59243963D01*
X56405668Y-59243964D01*
X56456709Y-59434452D01*
X56546239Y-59610166D01*
X56546239Y-59610167D01*
X56670342Y-59763423D01*
X56773272Y-59846773D01*
X56812984Y-59904260D01*
X56815312Y-59974091D01*
X56779517Y-60034095D01*
X56773274Y-60039505D01*
X56686803Y-60109528D01*
X56563316Y-60262022D01*
X56563311Y-60262029D01*
X56474224Y-60436871D01*
X56423436Y-60626414D01*
X56417023Y-60707906D01*
X56417023Y-60906320D01*
X56413229Y-60936759D01*
X56404928Y-60969538D01*
X56385977Y-61198243D01*
X56385977Y-61198254D01*
X56404927Y-61426954D01*
X56404928Y-61426960D01*
X56413229Y-61459738D01*
X56417023Y-61490176D01*
X56417023Y-61688575D01*
X56417024Y-61688594D01*
X56423436Y-61770083D01*
X56423437Y-61770085D01*
X56474225Y-61959628D01*
X56563312Y-62134470D01*
X56686803Y-62286969D01*
X56772626Y-62356467D01*
X56791663Y-62371883D01*
X56831374Y-62429370D01*
X56833702Y-62499201D01*
X56797906Y-62559205D01*
X56791663Y-62564615D01*
X56686803Y-62649529D01*
X56563316Y-62802022D01*
X56563311Y-62802029D01*
X56474224Y-62976871D01*
X56423436Y-63166414D01*
X56417023Y-63247906D01*
X56417023Y-63446320D01*
X56413229Y-63476759D01*
X56404928Y-63509538D01*
X56385977Y-63738243D01*
X56385977Y-63738254D01*
X56404927Y-63966954D01*
X56404928Y-63966960D01*
X56413229Y-63999738D01*
X56417023Y-64030176D01*
X56417023Y-64228575D01*
X56417024Y-64228594D01*
X56423436Y-64310083D01*
X56423437Y-64310085D01*
X56474225Y-64499628D01*
X56563312Y-64674470D01*
X56686803Y-64826969D01*
X56772626Y-64896467D01*
X56791663Y-64911883D01*
X56831374Y-64969370D01*
X56833702Y-65039201D01*
X56797906Y-65099205D01*
X56791663Y-65104615D01*
X56686803Y-65189529D01*
X56563316Y-65342022D01*
X56563311Y-65342029D01*
X56474224Y-65516871D01*
X56423436Y-65706414D01*
X56417023Y-65787906D01*
X56417023Y-65986320D01*
X56413229Y-66016759D01*
X56404928Y-66049538D01*
X56385977Y-66278243D01*
X56385977Y-66278254D01*
X56404927Y-66506954D01*
X56404928Y-66506960D01*
X56413229Y-66539738D01*
X56417023Y-66570176D01*
X56417023Y-66768575D01*
X56417024Y-66768594D01*
X56423436Y-66850083D01*
X56423437Y-66850085D01*
X56474225Y-67039628D01*
X56563312Y-67214470D01*
X56686803Y-67366969D01*
X56772626Y-67436467D01*
X56791663Y-67451883D01*
X56831374Y-67509370D01*
X56833702Y-67579201D01*
X56797906Y-67639205D01*
X56791663Y-67644615D01*
X56686803Y-67729529D01*
X56563316Y-67882022D01*
X56563311Y-67882029D01*
X56474224Y-68056871D01*
X56423436Y-68246414D01*
X56417023Y-68327906D01*
X56417023Y-68526320D01*
X56413229Y-68556759D01*
X56404928Y-68589538D01*
X56385977Y-68818243D01*
X56385977Y-68818254D01*
X56404927Y-69046954D01*
X56404928Y-69046960D01*
X56413229Y-69079738D01*
X56417023Y-69110176D01*
X56417023Y-69308575D01*
X56417024Y-69308594D01*
X56423436Y-69390083D01*
X56423437Y-69390085D01*
X56474225Y-69579628D01*
X56563312Y-69754470D01*
X56686803Y-69906969D01*
X56772626Y-69976467D01*
X56791663Y-69991883D01*
X56831374Y-70049370D01*
X56833702Y-70119201D01*
X56797906Y-70179205D01*
X56791663Y-70184615D01*
X56686803Y-70269529D01*
X56563316Y-70422022D01*
X56563311Y-70422029D01*
X56474224Y-70596871D01*
X56423436Y-70786414D01*
X56417023Y-70867906D01*
X56417023Y-71066320D01*
X56413229Y-71096759D01*
X56404928Y-71129538D01*
X56385977Y-71358243D01*
X56385977Y-71358254D01*
X56404927Y-71586954D01*
X56404928Y-71586960D01*
X56413229Y-71619738D01*
X56417023Y-71650176D01*
X56417023Y-71848575D01*
X56417024Y-71848594D01*
X56423436Y-71930083D01*
X56423437Y-71930085D01*
X56474225Y-72119628D01*
X56563312Y-72294470D01*
X56686803Y-72446969D01*
X56766430Y-72511450D01*
X56806141Y-72568936D01*
X56808469Y-72638767D01*
X56772674Y-72698771D01*
X56766755Y-72703917D01*
X56664538Y-72787264D01*
X56542871Y-72936478D01*
X56498300Y-73021803D01*
X56453728Y-73107132D01*
X56400766Y-73292231D01*
X56400765Y-73292234D01*
X56390723Y-73405192D01*
X56390723Y-74391305D01*
X56400765Y-74504263D01*
X56400765Y-74504265D01*
X56400766Y-74504268D01*
X56421994Y-74578458D01*
X56453728Y-74689365D01*
X56453729Y-74689368D01*
X56453730Y-74689369D01*
X56542871Y-74860020D01*
X56664538Y-75009234D01*
X56766755Y-75092580D01*
X56806272Y-75150201D01*
X56808364Y-75220039D01*
X56772366Y-75279922D01*
X56766430Y-75285048D01*
X56686803Y-75349529D01*
X56563316Y-75502022D01*
X56563311Y-75502029D01*
X56474224Y-75676871D01*
X56423436Y-75866414D01*
X56417023Y-75947906D01*
X56417023Y-76146320D01*
X56413229Y-76176759D01*
X56404928Y-76209538D01*
X56385977Y-76438243D01*
X56385977Y-76438254D01*
X56404927Y-76666954D01*
X56404928Y-76666960D01*
X56413229Y-76699738D01*
X56417023Y-76730176D01*
X56417023Y-76928575D01*
X56417024Y-76928594D01*
X56423436Y-77010083D01*
X56423437Y-77010085D01*
X56474225Y-77199628D01*
X56563312Y-77374470D01*
X56686803Y-77526969D01*
X56772626Y-77596467D01*
X56791663Y-77611883D01*
X56831374Y-77669370D01*
X56833702Y-77739201D01*
X56797906Y-77799205D01*
X56791663Y-77804615D01*
X56686803Y-77889529D01*
X56563316Y-78042022D01*
X56563311Y-78042029D01*
X56474224Y-78216871D01*
X56423436Y-78406414D01*
X56417023Y-78487906D01*
X56417023Y-78686320D01*
X56413229Y-78716759D01*
X56404928Y-78749538D01*
X56385977Y-78978243D01*
X56385977Y-78978254D01*
X56404927Y-79206954D01*
X56404928Y-79206960D01*
X56413229Y-79239738D01*
X56417023Y-79270176D01*
X56417023Y-79468575D01*
X56417024Y-79468594D01*
X56423436Y-79550083D01*
X56423437Y-79550085D01*
X56474225Y-79739628D01*
X56563312Y-79914470D01*
X56686803Y-80066969D01*
X56772626Y-80136467D01*
X56791663Y-80151883D01*
X56831374Y-80209370D01*
X56833702Y-80279201D01*
X56797906Y-80339205D01*
X56791663Y-80344615D01*
X56686803Y-80429529D01*
X56563316Y-80582022D01*
X56563311Y-80582029D01*
X56474224Y-80756871D01*
X56423436Y-80946414D01*
X56417023Y-81027906D01*
X56417023Y-81226320D01*
X56413229Y-81256759D01*
X56404928Y-81289538D01*
X56385977Y-81518243D01*
X56385977Y-81518254D01*
X56404927Y-81746954D01*
X56404928Y-81746960D01*
X56413229Y-81779738D01*
X56417023Y-81810176D01*
X56417023Y-82008575D01*
X56417024Y-82008594D01*
X56423436Y-82090083D01*
X56427156Y-82103964D01*
X56474225Y-82279628D01*
X56563312Y-82454470D01*
X56686803Y-82606969D01*
X56768899Y-82673449D01*
X56791663Y-82691883D01*
X56831374Y-82749370D01*
X56833702Y-82819201D01*
X56797906Y-82879205D01*
X56791663Y-82884615D01*
X56686803Y-82969529D01*
X56563316Y-83122022D01*
X56563311Y-83122029D01*
X56474224Y-83296871D01*
X56423436Y-83486414D01*
X56417023Y-83567906D01*
X56417023Y-83766320D01*
X56413229Y-83796759D01*
X56404928Y-83829538D01*
X56385977Y-84058243D01*
X56385977Y-84058254D01*
X56404927Y-84286954D01*
X56404928Y-84286960D01*
X56413229Y-84319738D01*
X56417023Y-84350176D01*
X56417023Y-84548575D01*
X56417024Y-84548594D01*
X56423436Y-84630083D01*
X56423437Y-84630085D01*
X56474225Y-84819628D01*
X56563312Y-84994470D01*
X56686803Y-85146969D01*
X56772626Y-85216467D01*
X56791663Y-85231883D01*
X56831374Y-85289370D01*
X56833702Y-85359201D01*
X56797906Y-85419205D01*
X56791663Y-85424615D01*
X56686803Y-85509529D01*
X56563316Y-85662022D01*
X56563311Y-85662029D01*
X56474224Y-85836871D01*
X56423436Y-86026414D01*
X56417023Y-86107906D01*
X56417023Y-86306320D01*
X56413229Y-86336759D01*
X56404928Y-86369538D01*
X56385977Y-86598243D01*
X56385977Y-86598254D01*
X56404927Y-86826954D01*
X56404928Y-86826960D01*
X56413229Y-86859738D01*
X56417023Y-86890176D01*
X56417023Y-87088575D01*
X56417024Y-87088594D01*
X56423436Y-87170083D01*
X56444026Y-87246923D01*
X56474225Y-87359628D01*
X56563312Y-87534470D01*
X56686803Y-87686969D01*
X56772626Y-87756467D01*
X56791663Y-87771883D01*
X56831374Y-87829370D01*
X56833702Y-87899201D01*
X56797906Y-87959205D01*
X56791663Y-87964615D01*
X56686803Y-88049529D01*
X56563316Y-88202022D01*
X56563311Y-88202029D01*
X56474224Y-88376871D01*
X56423436Y-88566414D01*
X56417023Y-88647906D01*
X56417023Y-88846320D01*
X56413229Y-88876759D01*
X56404929Y-88909535D01*
X56385977Y-89138243D01*
X56385977Y-89138254D01*
X56404927Y-89366954D01*
X56404928Y-89366960D01*
X56413229Y-89399738D01*
X56417023Y-89430176D01*
X56417023Y-89628575D01*
X56417024Y-89628594D01*
X56423436Y-89710083D01*
X56423437Y-89710085D01*
X56474225Y-89899628D01*
X56563312Y-90074470D01*
X56686803Y-90226969D01*
X56772626Y-90296467D01*
X56791663Y-90311883D01*
X56831374Y-90369370D01*
X56833702Y-90439201D01*
X56797906Y-90499205D01*
X56791663Y-90504615D01*
X56686803Y-90589529D01*
X56563316Y-90742022D01*
X56563311Y-90742029D01*
X56474224Y-90916871D01*
X56423436Y-91106414D01*
X56417023Y-91187906D01*
X56417023Y-91386320D01*
X56413229Y-91416759D01*
X56404928Y-91449538D01*
X56385977Y-91678243D01*
X56385977Y-91678254D01*
X56404927Y-91906954D01*
X56404928Y-91906960D01*
X56413229Y-91939738D01*
X56417023Y-91970176D01*
X56417023Y-92168575D01*
X56417024Y-92168594D01*
X56423436Y-92250083D01*
X56423437Y-92250085D01*
X56474225Y-92439628D01*
X56563312Y-92614470D01*
X56686803Y-92766969D01*
X56772626Y-92836467D01*
X56791663Y-92851883D01*
X56831374Y-92909370D01*
X56833702Y-92979201D01*
X56797906Y-93039205D01*
X56791663Y-93044615D01*
X56686803Y-93129529D01*
X56563316Y-93282022D01*
X56563311Y-93282029D01*
X56474224Y-93456871D01*
X56423436Y-93646414D01*
X56417023Y-93727906D01*
X56417023Y-93926320D01*
X56413229Y-93956759D01*
X56404928Y-93989538D01*
X56385977Y-94218243D01*
X56385977Y-94218254D01*
X50109501Y-94218254D01*
X50109501Y-89230805D01*
X50110562Y-89214619D01*
X50114751Y-89182800D01*
X50114751Y-89182799D01*
X50110032Y-89146955D01*
X50110031Y-89146941D01*
X50093839Y-89023952D01*
X50046447Y-88909535D01*
X50046447Y-88909534D01*
X50032869Y-88876756D01*
X50032525Y-88875925D01*
X49959479Y-88780730D01*
X49957023Y-88777529D01*
X49957002Y-88777503D01*
X49942582Y-88758711D01*
X49934988Y-88748814D01*
X49934986Y-88748812D01*
X49934985Y-88748811D01*
X49909521Y-88729272D01*
X49897326Y-88718577D01*
X48425672Y-87246923D01*
X48414978Y-87234730D01*
X48395435Y-87209261D01*
X48395433Y-87209259D01*
X48395432Y-87209258D01*
X48363523Y-87184774D01*
X48363522Y-87184773D01*
X48363520Y-87184771D01*
X48327584Y-87157196D01*
X48268325Y-87111724D01*
X48268321Y-87111722D01*
X48120299Y-87050409D01*
X48103159Y-87048153D01*
X48100904Y-87047856D01*
X48100903Y-87047855D01*
X47997326Y-87034220D01*
X47997294Y-87034217D01*
X47961449Y-87029498D01*
X47961447Y-87029498D01*
X47929628Y-87033687D01*
X47913443Y-87034748D01*
X41478022Y-87034748D01*
X41410983Y-87015063D01*
X41365228Y-86962259D01*
X41354022Y-86910748D01*
X41354022Y-86890176D01*
X41357817Y-86859734D01*
X41366117Y-86826961D01*
X41385069Y-86598249D01*
X41366117Y-86369537D01*
X41366116Y-86369532D01*
X41357816Y-86336756D01*
X41354022Y-86306316D01*
X41354022Y-86107922D01*
X41354021Y-86107912D01*
X41347609Y-86026413D01*
X41296821Y-85836870D01*
X41207734Y-85662028D01*
X41084243Y-85509529D01*
X40979381Y-85424613D01*
X40939671Y-85367128D01*
X40937343Y-85297297D01*
X40973138Y-85237293D01*
X40979371Y-85231891D01*
X41084243Y-85146969D01*
X41207734Y-84994470D01*
X41296821Y-84819628D01*
X41347609Y-84630085D01*
X41354023Y-84548586D01*
X41354022Y-84350176D01*
X41357817Y-84319734D01*
X41366117Y-84286961D01*
X41385069Y-84058249D01*
X41366117Y-83829537D01*
X41366116Y-83829532D01*
X41357816Y-83796756D01*
X41354022Y-83766316D01*
X41354022Y-83567922D01*
X41354021Y-83567912D01*
X41347609Y-83486413D01*
X41296821Y-83296870D01*
X41207734Y-83122028D01*
X41084243Y-82969529D01*
X40997772Y-82899506D01*
X40958061Y-82842018D01*
X40955733Y-82772188D01*
X40991529Y-82712184D01*
X40997773Y-82706773D01*
X41100703Y-82623423D01*
X41224806Y-82470167D01*
X41224806Y-82470166D01*
X41314336Y-82294452D01*
X41365377Y-82103964D01*
X41365377Y-82103963D01*
X41371822Y-82022068D01*
X41371823Y-82022055D01*
X41371823Y-81768249D01*
X40486236Y-81768249D01*
X40535227Y-81630401D01*
X40545472Y-81480631D01*
X40514929Y-81333652D01*
X40481040Y-81268249D01*
X41371823Y-81268249D01*
X41371823Y-81014442D01*
X41371822Y-81014429D01*
X41365377Y-80932534D01*
X41365377Y-80932533D01*
X41314336Y-80742045D01*
X41224806Y-80566331D01*
X41224806Y-80566330D01*
X41100701Y-80413072D01*
X41100699Y-80413070D01*
X40997773Y-80329723D01*
X40958061Y-80272237D01*
X40955733Y-80202406D01*
X40991528Y-80142402D01*
X40997759Y-80137001D01*
X41084243Y-80066969D01*
X41207734Y-79914470D01*
X41296821Y-79739628D01*
X41347609Y-79550085D01*
X41354023Y-79468586D01*
X41354022Y-79270176D01*
X41357817Y-79239734D01*
X41366117Y-79206961D01*
X41385069Y-78978249D01*
X41366117Y-78749537D01*
X41366116Y-78749532D01*
X41357816Y-78716756D01*
X41354022Y-78686316D01*
X41354022Y-78487922D01*
X41354021Y-78487912D01*
X41347609Y-78406413D01*
X41296821Y-78216870D01*
X41207734Y-78042028D01*
X41084243Y-77889529D01*
X40979381Y-77804613D01*
X40939671Y-77747128D01*
X40937343Y-77677297D01*
X40973138Y-77617293D01*
X40979371Y-77611891D01*
X41084243Y-77526969D01*
X41207734Y-77374470D01*
X41296821Y-77199628D01*
X41347609Y-77010085D01*
X41354023Y-76928586D01*
X41354022Y-76730176D01*
X41357817Y-76699734D01*
X41366117Y-76666961D01*
X41385069Y-76438249D01*
X41366117Y-76209537D01*
X41366116Y-76209532D01*
X41357816Y-76176756D01*
X41354022Y-76146316D01*
X41354022Y-75947922D01*
X41354021Y-75947912D01*
X41347609Y-75866413D01*
X41296821Y-75676870D01*
X41207734Y-75502028D01*
X41084243Y-75349529D01*
X40979381Y-75264613D01*
X40939671Y-75207128D01*
X40937343Y-75137297D01*
X40973138Y-75077293D01*
X40979371Y-75071891D01*
X41084243Y-74986969D01*
X41207734Y-74834470D01*
X41296821Y-74659628D01*
X41347609Y-74470085D01*
X41354023Y-74388586D01*
X41354022Y-74190176D01*
X41357817Y-74159734D01*
X41366117Y-74126961D01*
X41385069Y-73898249D01*
X41366117Y-73669537D01*
X41357816Y-73636756D01*
X41354022Y-73606316D01*
X41354022Y-73407922D01*
X41354021Y-73407912D01*
X41347609Y-73326413D01*
X41296821Y-73136870D01*
X41207734Y-72962028D01*
X41084243Y-72809529D01*
X40979381Y-72724613D01*
X40939671Y-72667128D01*
X40937343Y-72597297D01*
X40973138Y-72537293D01*
X40979371Y-72531891D01*
X41084243Y-72446969D01*
X41207734Y-72294470D01*
X41296821Y-72119628D01*
X41347609Y-71930085D01*
X41354023Y-71848586D01*
X41354022Y-71650176D01*
X41357817Y-71619734D01*
X41366117Y-71586961D01*
X41385069Y-71358249D01*
X41366117Y-71129537D01*
X41366116Y-71129532D01*
X41357816Y-71096756D01*
X41354022Y-71066316D01*
X41354022Y-70867922D01*
X41354021Y-70867912D01*
X41347609Y-70786413D01*
X41296821Y-70596870D01*
X41207734Y-70422028D01*
X41084243Y-70269529D01*
X40979381Y-70184613D01*
X40939671Y-70127128D01*
X40937343Y-70057297D01*
X40973138Y-69997293D01*
X40979371Y-69991891D01*
X41084243Y-69906969D01*
X41207734Y-69754470D01*
X41296821Y-69579628D01*
X41347609Y-69390085D01*
X41354023Y-69308586D01*
X41354022Y-69110176D01*
X41357817Y-69079734D01*
X41366117Y-69046961D01*
X41385069Y-68818249D01*
X41366117Y-68589537D01*
X41366116Y-68589532D01*
X41357816Y-68556756D01*
X41354022Y-68526316D01*
X41354022Y-68327922D01*
X41354021Y-68327912D01*
X41347609Y-68246413D01*
X41296821Y-68056870D01*
X41207734Y-67882028D01*
X41084243Y-67729529D01*
X40979381Y-67644613D01*
X40939671Y-67587128D01*
X40937343Y-67517297D01*
X40973138Y-67457293D01*
X40979371Y-67451891D01*
X41084243Y-67366969D01*
X41207734Y-67214470D01*
X41296821Y-67039628D01*
X41347609Y-66850085D01*
X41354023Y-66768586D01*
X41354022Y-66570176D01*
X41357817Y-66539734D01*
X41366117Y-66506961D01*
X41385069Y-66278249D01*
X41366117Y-66049537D01*
X41366116Y-66049532D01*
X41357816Y-66016756D01*
X41354022Y-65986316D01*
X41354022Y-65787922D01*
X41354021Y-65787912D01*
X41347609Y-65706413D01*
X41296821Y-65516870D01*
X41207734Y-65342028D01*
X41084243Y-65189529D01*
X40979381Y-65104613D01*
X40939671Y-65047128D01*
X40937343Y-64977297D01*
X40973138Y-64917293D01*
X40979371Y-64911891D01*
X41084243Y-64826969D01*
X41207734Y-64674470D01*
X41296821Y-64499628D01*
X41347609Y-64310085D01*
X41354023Y-64228586D01*
X41354022Y-64030176D01*
X41357817Y-63999734D01*
X41366117Y-63966961D01*
X41385069Y-63738249D01*
X41366117Y-63509537D01*
X41366116Y-63509532D01*
X41357816Y-63476756D01*
X41354022Y-63446316D01*
X41354022Y-63247922D01*
X41354021Y-63247912D01*
X41347609Y-63166413D01*
X41296821Y-62976870D01*
X41207734Y-62802028D01*
X41084243Y-62649529D01*
X40979381Y-62564613D01*
X40939671Y-62507128D01*
X40937343Y-62437297D01*
X40973138Y-62377293D01*
X40979371Y-62371891D01*
X41084243Y-62286969D01*
X41207734Y-62134470D01*
X41296821Y-61959628D01*
X41347609Y-61770085D01*
X41354023Y-61688586D01*
X41354022Y-61490176D01*
X41357817Y-61459734D01*
X41366117Y-61426961D01*
X41385069Y-61198249D01*
X41366117Y-60969537D01*
X41366116Y-60969532D01*
X41357816Y-60936756D01*
X41354022Y-60906316D01*
X41354022Y-60707922D01*
X41354021Y-60707912D01*
X41347609Y-60626413D01*
X41296821Y-60436870D01*
X41207734Y-60262028D01*
X41084243Y-60109529D01*
X40997772Y-60039506D01*
X40958061Y-59982018D01*
X40955733Y-59912188D01*
X40991529Y-59852184D01*
X40997773Y-59846773D01*
X41100703Y-59763423D01*
X41224806Y-59610167D01*
X41224806Y-59610166D01*
X41314336Y-59434452D01*
X41365377Y-59243964D01*
X41365377Y-59243963D01*
X41371822Y-59162068D01*
X41371823Y-59162055D01*
X41371823Y-58908249D01*
X40486236Y-58908249D01*
X40535227Y-58770401D01*
X40545472Y-58620631D01*
X40514929Y-58473652D01*
X40481040Y-58408249D01*
X41371823Y-58408249D01*
X41371823Y-58154442D01*
X41371822Y-58154429D01*
X41365377Y-58072534D01*
X41365377Y-58072533D01*
X41314336Y-57882045D01*
X41224806Y-57706331D01*
X41224806Y-57706330D01*
X41100701Y-57553072D01*
X41100699Y-57553070D01*
X40997773Y-57469723D01*
X40958061Y-57412237D01*
X40955733Y-57342406D01*
X40991528Y-57282402D01*
X40997759Y-57277001D01*
X41084243Y-57206969D01*
X41207734Y-57054470D01*
X41296821Y-56879628D01*
X41347609Y-56690085D01*
X41354023Y-56608586D01*
X41354022Y-56410176D01*
X41357817Y-56379734D01*
X41366117Y-56346961D01*
X41385069Y-56118249D01*
X41366117Y-55889537D01*
X41366116Y-55889532D01*
X41357816Y-55856756D01*
X41354022Y-55826316D01*
X41354022Y-55627922D01*
X41354021Y-55627912D01*
X41347609Y-55546413D01*
X41296821Y-55356870D01*
X41207734Y-55182028D01*
X41084243Y-55029529D01*
X40979381Y-54944613D01*
X40939671Y-54887128D01*
X40937343Y-54817297D01*
X40973138Y-54757293D01*
X40979371Y-54751891D01*
X41084243Y-54666969D01*
X41207734Y-54514470D01*
X41296821Y-54339628D01*
X41347609Y-54150085D01*
X41354023Y-54068586D01*
X41354022Y-53870176D01*
X41357817Y-53839734D01*
X41366117Y-53806961D01*
X41385069Y-53578249D01*
X41366117Y-53349537D01*
X41366116Y-53349532D01*
X41357816Y-53316756D01*
X41354022Y-53286316D01*
X41354022Y-53087922D01*
X41354021Y-53087912D01*
X41347609Y-53006413D01*
X41296821Y-52816870D01*
X41207734Y-52642028D01*
X41084243Y-52489529D01*
X40979381Y-52404613D01*
X40939671Y-52347128D01*
X40937343Y-52277297D01*
X40973138Y-52217293D01*
X40979371Y-52211891D01*
X41084243Y-52126969D01*
X41207734Y-51974470D01*
X41296821Y-51799628D01*
X41347609Y-51610085D01*
X41354023Y-51528586D01*
X41354022Y-51330176D01*
X41357817Y-51299734D01*
X41359813Y-51291852D01*
X41366117Y-51266961D01*
X41385069Y-51038249D01*
X41366117Y-50809537D01*
X41357816Y-50776756D01*
X41354022Y-50746316D01*
X41354022Y-50547922D01*
X41354021Y-50547912D01*
X41347609Y-50466413D01*
X41296821Y-50276870D01*
X41207734Y-50102028D01*
X41084243Y-49949529D01*
X40979381Y-49864613D01*
X40939671Y-49807128D01*
X40937343Y-49737297D01*
X40973138Y-49677293D01*
X40979371Y-49671891D01*
X41084243Y-49586969D01*
X41207734Y-49434470D01*
X41296821Y-49259628D01*
X41347609Y-49070085D01*
X41354023Y-48988586D01*
X41354022Y-48790176D01*
X41357817Y-48759734D01*
X41358902Y-48755451D01*
X41366117Y-48726961D01*
X41385069Y-48498249D01*
X41381699Y-48457585D01*
X41366118Y-48269545D01*
X41366116Y-48269532D01*
X41357816Y-48236756D01*
X41354022Y-48206316D01*
X41354022Y-48007922D01*
X41354021Y-48007912D01*
X41347609Y-47926413D01*
X41296821Y-47736870D01*
X41207734Y-47562028D01*
X41084243Y-47409529D01*
X40979381Y-47324613D01*
X40939671Y-47267128D01*
X40937343Y-47197297D01*
X40973138Y-47137293D01*
X40979371Y-47131891D01*
X41084243Y-47046969D01*
X41207734Y-46894470D01*
X41296821Y-46719628D01*
X41347609Y-46530085D01*
X41354023Y-46448586D01*
X41354022Y-46250176D01*
X41357817Y-46219734D01*
X41366117Y-46186961D01*
X41385069Y-45958249D01*
X41375328Y-45840700D01*
X41366118Y-45729545D01*
X41366116Y-45729532D01*
X41357816Y-45696756D01*
X41354022Y-45666316D01*
X41354022Y-45467922D01*
X41354021Y-45467912D01*
X41347609Y-45386413D01*
X41296821Y-45196870D01*
X41207734Y-45022028D01*
X41084243Y-44869529D01*
X40931744Y-44746038D01*
X40756902Y-44656951D01*
X40756901Y-44656950D01*
X40756900Y-44656950D01*
X40567357Y-44606162D01*
X40485865Y-44599749D01*
X40485860Y-44599749D01*
X40278153Y-44599749D01*
X40257743Y-44598058D01*
X40110271Y-44573449D01*
X39880775Y-44573449D01*
X39733299Y-44598058D01*
X39712890Y-44599749D01*
X37705196Y-44599749D01*
X37705177Y-44599750D01*
X37623688Y-44606162D01*
X37434145Y-44656950D01*
X37259303Y-44746037D01*
X37259296Y-44746042D01*
X37106803Y-44869529D01*
X36983316Y-45022022D01*
X36983311Y-45022029D01*
X36894224Y-45196871D01*
X36843436Y-45386414D01*
X36837023Y-45467906D01*
X36837023Y-46448575D01*
X36837024Y-46448594D01*
X36843436Y-46530083D01*
X36846955Y-46543213D01*
X36894225Y-46719628D01*
X36983312Y-46894470D01*
X37106803Y-47046969D01*
X37192626Y-47116467D01*
X37211663Y-47131883D01*
X37251374Y-47189370D01*
X37253702Y-47259201D01*
X37217906Y-47319205D01*
X37211663Y-47324615D01*
X37106803Y-47409529D01*
X36983316Y-47562022D01*
X36983311Y-47562029D01*
X36894224Y-47736871D01*
X36843436Y-47926414D01*
X36837023Y-48007906D01*
X36837023Y-48988575D01*
X36837024Y-48988594D01*
X36843436Y-49070083D01*
X36891383Y-49249021D01*
X36894225Y-49259628D01*
X36983312Y-49434470D01*
X37106803Y-49586969D01*
X37192626Y-49656467D01*
X37211663Y-49671883D01*
X37251374Y-49729370D01*
X37253702Y-49799201D01*
X37217906Y-49859205D01*
X37211663Y-49864615D01*
X37106803Y-49949529D01*
X36983316Y-50102022D01*
X36983311Y-50102029D01*
X36894224Y-50276871D01*
X36843436Y-50466414D01*
X36837023Y-50547906D01*
X36837023Y-51528575D01*
X36837024Y-51528594D01*
X36843436Y-51610083D01*
X36847156Y-51623964D01*
X36894225Y-51799628D01*
X36983312Y-51974470D01*
X37106803Y-52126969D01*
X37188899Y-52193449D01*
X37211663Y-52211883D01*
X37251374Y-52269370D01*
X37253702Y-52339201D01*
X37217906Y-52399205D01*
X37211663Y-52404615D01*
X37106803Y-52489529D01*
X36983316Y-52642022D01*
X36983311Y-52642029D01*
X36894224Y-52816871D01*
X36843436Y-53006414D01*
X36837023Y-53087906D01*
X36837023Y-54068575D01*
X36837024Y-54068594D01*
X36843436Y-54150083D01*
X36843437Y-54150085D01*
X36894225Y-54339628D01*
X36983312Y-54514470D01*
X37106803Y-54666969D01*
X37192626Y-54736467D01*
X37211663Y-54751883D01*
X37251374Y-54809370D01*
X37253702Y-54879201D01*
X37217906Y-54939205D01*
X37211663Y-54944615D01*
X37106803Y-55029529D01*
X36983316Y-55182022D01*
X36983311Y-55182029D01*
X36894224Y-55356871D01*
X36843436Y-55546414D01*
X36837023Y-55627906D01*
X36837023Y-56608575D01*
X36837024Y-56608594D01*
X36843436Y-56690083D01*
X36843437Y-56690085D01*
X36894225Y-56879628D01*
X36983312Y-57054470D01*
X37106803Y-57206969D01*
X37218416Y-57297351D01*
X37258127Y-57354838D01*
X37260455Y-57424669D01*
X37224660Y-57484673D01*
X37218417Y-57490082D01*
X37112847Y-57575572D01*
X36990480Y-57726681D01*
X36902205Y-57899933D01*
X36851878Y-58087751D01*
X36845523Y-58168505D01*
X36845523Y-58408249D01*
X39504810Y-58408249D01*
X39455819Y-58546097D01*
X39445574Y-58695867D01*
X39476117Y-58842846D01*
X39510006Y-58908249D01*
X36845523Y-58908249D01*
X36845523Y-59147992D01*
X36851878Y-59228746D01*
X36902205Y-59416564D01*
X36990480Y-59589816D01*
X37112847Y-59740924D01*
X37218416Y-59826413D01*
X37258127Y-59883900D01*
X37260455Y-59953731D01*
X37224659Y-60013735D01*
X37218417Y-60019144D01*
X37106803Y-60109528D01*
X36983316Y-60262022D01*
X36983311Y-60262029D01*
X36894224Y-60436871D01*
X36843436Y-60626414D01*
X36837023Y-60707906D01*
X36837023Y-61688575D01*
X36837024Y-61688594D01*
X36843436Y-61770083D01*
X36843437Y-61770085D01*
X36894225Y-61959628D01*
X36983312Y-62134470D01*
X37106803Y-62286969D01*
X37192626Y-62356467D01*
X37211663Y-62371883D01*
X37251374Y-62429370D01*
X37253702Y-62499201D01*
X37217906Y-62559205D01*
X37211663Y-62564615D01*
X37106803Y-62649529D01*
X36983316Y-62802022D01*
X36983311Y-62802029D01*
X36894224Y-62976871D01*
X36843436Y-63166414D01*
X36837023Y-63247906D01*
X36837023Y-64228575D01*
X36837024Y-64228594D01*
X36843436Y-64310083D01*
X36843437Y-64310085D01*
X36894225Y-64499628D01*
X36983312Y-64674470D01*
X37106803Y-64826969D01*
X37192626Y-64896467D01*
X37211663Y-64911883D01*
X37251374Y-64969370D01*
X37253702Y-65039201D01*
X37217906Y-65099205D01*
X37211663Y-65104615D01*
X37106803Y-65189529D01*
X36983316Y-65342022D01*
X36983311Y-65342029D01*
X36894224Y-65516871D01*
X36843436Y-65706414D01*
X36837023Y-65787906D01*
X36837023Y-66768575D01*
X36837024Y-66768594D01*
X36843436Y-66850083D01*
X36843437Y-66850085D01*
X36894225Y-67039628D01*
X36983312Y-67214470D01*
X37106803Y-67366969D01*
X37192626Y-67436467D01*
X37211663Y-67451883D01*
X37251374Y-67509370D01*
X37253702Y-67579201D01*
X37217906Y-67639205D01*
X37211663Y-67644615D01*
X37106803Y-67729529D01*
X36983316Y-67882022D01*
X36983311Y-67882029D01*
X36894224Y-68056871D01*
X36843436Y-68246414D01*
X36837023Y-68327906D01*
X36837023Y-69308575D01*
X36837024Y-69308594D01*
X36843436Y-69390083D01*
X36843437Y-69390085D01*
X36894225Y-69579628D01*
X36983312Y-69754470D01*
X37106803Y-69906969D01*
X37192626Y-69976467D01*
X37211663Y-69991883D01*
X37251374Y-70049370D01*
X37253702Y-70119201D01*
X37217906Y-70179205D01*
X37211663Y-70184615D01*
X37106803Y-70269529D01*
X36983316Y-70422022D01*
X36983311Y-70422029D01*
X36894224Y-70596871D01*
X36843436Y-70786414D01*
X36837023Y-70867906D01*
X36837023Y-71848575D01*
X36837024Y-71848594D01*
X36843436Y-71930083D01*
X36843437Y-71930085D01*
X36894225Y-72119628D01*
X36983312Y-72294470D01*
X37106803Y-72446969D01*
X37186429Y-72511449D01*
X37211663Y-72531883D01*
X37251374Y-72589370D01*
X37253702Y-72659201D01*
X37217906Y-72719205D01*
X37211663Y-72724615D01*
X37106803Y-72809529D01*
X36983316Y-72962022D01*
X36983311Y-72962029D01*
X36894224Y-73136871D01*
X36843436Y-73326414D01*
X36837023Y-73407906D01*
X36837023Y-73407919D01*
X36837024Y-74388571D01*
X36837024Y-74388594D01*
X36843436Y-74470083D01*
X36852596Y-74504266D01*
X36894225Y-74659628D01*
X36983312Y-74834470D01*
X37106803Y-74986969D01*
X37192626Y-75056467D01*
X37211663Y-75071883D01*
X37251374Y-75129370D01*
X37253702Y-75199201D01*
X37217906Y-75259205D01*
X37211663Y-75264615D01*
X37106803Y-75349529D01*
X36983316Y-75502022D01*
X36983311Y-75502029D01*
X36894224Y-75676871D01*
X36843436Y-75866414D01*
X36837023Y-75947906D01*
X36837023Y-76928575D01*
X36837024Y-76928594D01*
X36843436Y-77010083D01*
X36843437Y-77010085D01*
X36894225Y-77199628D01*
X36983312Y-77374470D01*
X37106803Y-77526969D01*
X37192626Y-77596467D01*
X37211663Y-77611883D01*
X37251374Y-77669370D01*
X37253702Y-77739201D01*
X37217906Y-77799205D01*
X37211663Y-77804615D01*
X37106803Y-77889529D01*
X36983316Y-78042022D01*
X36983311Y-78042029D01*
X36894224Y-78216871D01*
X36843436Y-78406414D01*
X36837023Y-78487906D01*
X36837023Y-79468575D01*
X36837024Y-79468594D01*
X36843436Y-79550083D01*
X36843437Y-79550085D01*
X36894225Y-79739628D01*
X36983312Y-79914470D01*
X37106803Y-80066969D01*
X37218344Y-80157293D01*
X37218416Y-80157351D01*
X37258127Y-80214838D01*
X37260455Y-80284669D01*
X37224660Y-80344673D01*
X37218417Y-80350082D01*
X37112847Y-80435572D01*
X36990480Y-80586681D01*
X36902205Y-80759933D01*
X36851878Y-80947751D01*
X36845523Y-81028505D01*
X36845523Y-81268249D01*
X39504810Y-81268249D01*
X39455819Y-81406097D01*
X39445574Y-81555867D01*
X39476117Y-81702846D01*
X39510006Y-81768249D01*
X36845523Y-81768249D01*
X36845523Y-82007992D01*
X36851878Y-82088746D01*
X36902205Y-82276564D01*
X36990480Y-82449816D01*
X37112847Y-82600924D01*
X37218416Y-82686413D01*
X37258127Y-82743900D01*
X37260455Y-82813731D01*
X37224659Y-82873735D01*
X37218417Y-82879144D01*
X37106803Y-82969528D01*
X36983316Y-83122022D01*
X36983311Y-83122029D01*
X36894224Y-83296871D01*
X36843436Y-83486414D01*
X36837023Y-83567906D01*
X36837023Y-84548575D01*
X36837024Y-84548594D01*
X36843436Y-84630083D01*
X36843437Y-84630085D01*
X36894225Y-84819628D01*
X36983312Y-84994470D01*
X37106803Y-85146969D01*
X37192626Y-85216467D01*
X37211663Y-85231883D01*
X37251374Y-85289370D01*
X37253702Y-85359201D01*
X37217906Y-85419205D01*
X37211663Y-85424615D01*
X37106803Y-85509529D01*
X36983316Y-85662022D01*
X36983311Y-85662029D01*
X36894224Y-85836871D01*
X36843436Y-86026414D01*
X36837023Y-86107906D01*
X36837023Y-87088575D01*
X36837024Y-87088594D01*
X36843436Y-87170083D01*
X36864026Y-87246923D01*
X36894225Y-87359628D01*
X36983312Y-87534470D01*
X37106803Y-87686969D01*
X37192626Y-87756467D01*
X37211663Y-87771883D01*
X37251374Y-87829370D01*
X37253702Y-87899201D01*
X37217906Y-87959205D01*
X37211663Y-87964615D01*
X37106803Y-88049529D01*
X36983316Y-88202022D01*
X36983311Y-88202029D01*
X36894224Y-88376871D01*
X36843436Y-88566414D01*
X36837023Y-88647906D01*
X36837023Y-89628575D01*
X36837024Y-89628594D01*
X36843436Y-89710083D01*
X36843437Y-89710085D01*
X36894225Y-89899628D01*
X36983312Y-90074470D01*
X37106803Y-90226969D01*
X37192626Y-90296467D01*
X37211663Y-90311883D01*
X37251374Y-90369370D01*
X37253702Y-90439201D01*
X37217906Y-90499205D01*
X37211663Y-90504615D01*
X37106803Y-90589529D01*
X36983316Y-90742022D01*
X36983311Y-90742029D01*
X36894224Y-90916871D01*
X36843436Y-91106414D01*
X36837023Y-91187906D01*
X36837023Y-92168575D01*
X36837024Y-92168594D01*
X36843436Y-92250083D01*
X36843437Y-92250085D01*
X36894225Y-92439628D01*
X36983312Y-92614470D01*
X37106803Y-92766969D01*
X37192626Y-92836467D01*
X37211663Y-92851883D01*
X37251374Y-92909370D01*
X37253702Y-92979201D01*
X37217906Y-93039205D01*
X37211663Y-93044615D01*
X37106803Y-93129529D01*
X36983316Y-93282022D01*
X36983311Y-93282029D01*
X36894224Y-93456871D01*
X36843436Y-93646414D01*
X36837023Y-93727906D01*
X36837023Y-94708575D01*
X33798903Y-94708575D01*
X33798903Y-41234624D01*
X33818588Y-41167585D01*
X33871392Y-41121830D01*
X33922903Y-41110624D01*
X64154248Y-41110624D01*
X64221287Y-41130309D01*
G37*
%TD.AperFunction*%
%TD*%
%TA.AperFunction,Conductor*%
%TO.N,GND2*%
G36*
X100607112Y-41130309D02*
G01*
X100652867Y-41183113D01*
X100664073Y-41234624D01*
X100664073Y-115416875D01*
X100644388Y-115483914D01*
X100591584Y-115529669D01*
X100540073Y-115540875D01*
X68196000Y-115540875D01*
X68128961Y-115521190D01*
X68083206Y-115468386D01*
X68072000Y-115416875D01*
X68072000Y-111506000D01*
X93568958Y-111506000D01*
X93589110Y-111864846D01*
X93589112Y-111864858D01*
X93649314Y-112219185D01*
X93649316Y-112219194D01*
X93748812Y-112564552D01*
X93886353Y-112896609D01*
X93886355Y-112896613D01*
X94060215Y-113211189D01*
X94060218Y-113211194D01*
X94268193Y-113504306D01*
X94340844Y-113585601D01*
X95659073Y-112267372D01*
X95735890Y-112377078D01*
X95902922Y-112544110D01*
X96012626Y-112620925D01*
X94694397Y-113939154D01*
X94775693Y-114011806D01*
X95068805Y-114219781D01*
X95068810Y-114219784D01*
X95383386Y-114393644D01*
X95383390Y-114393646D01*
X95715447Y-114531187D01*
X96060805Y-114630683D01*
X96060814Y-114630685D01*
X96415141Y-114690887D01*
X96415153Y-114690889D01*
X96774000Y-114711041D01*
X97132846Y-114690889D01*
X97132858Y-114690887D01*
X97487185Y-114630685D01*
X97487194Y-114630683D01*
X97832552Y-114531187D01*
X98164609Y-114393646D01*
X98164613Y-114393644D01*
X98479189Y-114219784D01*
X98479194Y-114219781D01*
X98772299Y-114011811D01*
X98772322Y-114011793D01*
X98853602Y-113939155D01*
X98853602Y-113939154D01*
X97535373Y-112620925D01*
X97645078Y-112544110D01*
X97812110Y-112377078D01*
X97888925Y-112267373D01*
X99207154Y-113585602D01*
X99207155Y-113585602D01*
X99279793Y-113504322D01*
X99279811Y-113504299D01*
X99487781Y-113211194D01*
X99487784Y-113211189D01*
X99661644Y-112896613D01*
X99661646Y-112896609D01*
X99799187Y-112564552D01*
X99898683Y-112219194D01*
X99898685Y-112219185D01*
X99958887Y-111864858D01*
X99958889Y-111864846D01*
X99979041Y-111506000D01*
X99958889Y-111147153D01*
X99958887Y-111147141D01*
X99898685Y-110792814D01*
X99898683Y-110792805D01*
X99799187Y-110447447D01*
X99661646Y-110115390D01*
X99661644Y-110115386D01*
X99487784Y-109800810D01*
X99487781Y-109800805D01*
X99279806Y-109507693D01*
X99207154Y-109426397D01*
X97888925Y-110744626D01*
X97812110Y-110634922D01*
X97645078Y-110467890D01*
X97535373Y-110391073D01*
X98853601Y-109072844D01*
X98853602Y-109072844D01*
X98772306Y-109000193D01*
X98479194Y-108792218D01*
X98479189Y-108792215D01*
X98164613Y-108618355D01*
X98164609Y-108618353D01*
X97832552Y-108480812D01*
X97487194Y-108381316D01*
X97487185Y-108381314D01*
X97132858Y-108321112D01*
X97132846Y-108321110D01*
X96774000Y-108300958D01*
X96415153Y-108321110D01*
X96415141Y-108321112D01*
X96060814Y-108381314D01*
X96060805Y-108381316D01*
X95715447Y-108480812D01*
X95383390Y-108618353D01*
X95383386Y-108618355D01*
X95068810Y-108792215D01*
X95068805Y-108792218D01*
X94775693Y-109000193D01*
X94694397Y-109072844D01*
X96012626Y-110391073D01*
X95902922Y-110467890D01*
X95735890Y-110634922D01*
X95659073Y-110744626D01*
X94340844Y-109426397D01*
X94268193Y-109507693D01*
X94060218Y-109800805D01*
X94060215Y-109800810D01*
X93886355Y-110115386D01*
X93886353Y-110115390D01*
X93748812Y-110447447D01*
X93649316Y-110792805D01*
X93649314Y-110792814D01*
X93589112Y-111147141D01*
X93589110Y-111147153D01*
X93568958Y-111506000D01*
X68072000Y-111506000D01*
X68072000Y-104284001D01*
X76006891Y-104284001D01*
X76027300Y-104569362D01*
X76088109Y-104848895D01*
X76188091Y-105116958D01*
X76325191Y-105368038D01*
X76325196Y-105368046D01*
X76431882Y-105510561D01*
X76431883Y-105510562D01*
X77041438Y-104901006D01*
X77090348Y-104979999D01*
X77233931Y-105137501D01*
X77392388Y-105257163D01*
X76785436Y-105864115D01*
X76927960Y-105970807D01*
X76927961Y-105970808D01*
X77179042Y-106107908D01*
X77179041Y-106107908D01*
X77447104Y-106207890D01*
X77726637Y-106268699D01*
X78011999Y-106289109D01*
X78012001Y-106289109D01*
X78297362Y-106268699D01*
X78576895Y-106207890D01*
X78844958Y-106107908D01*
X79096047Y-105970803D01*
X79238561Y-105864116D01*
X79238562Y-105864115D01*
X78631611Y-105257163D01*
X78790069Y-105137501D01*
X78933652Y-104979999D01*
X78982560Y-104901007D01*
X79592115Y-105510562D01*
X79592116Y-105510561D01*
X79698803Y-105368047D01*
X79835908Y-105116958D01*
X79935890Y-104848895D01*
X79996699Y-104569362D01*
X80017109Y-104284001D01*
X89146891Y-104284001D01*
X89167300Y-104569362D01*
X89228109Y-104848895D01*
X89328091Y-105116958D01*
X89465191Y-105368038D01*
X89465196Y-105368046D01*
X89571882Y-105510561D01*
X89571883Y-105510562D01*
X90181438Y-104901006D01*
X90230348Y-104979999D01*
X90373931Y-105137501D01*
X90532388Y-105257163D01*
X89925436Y-105864115D01*
X90067960Y-105970807D01*
X90067961Y-105970808D01*
X90319042Y-106107908D01*
X90319041Y-106107908D01*
X90587104Y-106207890D01*
X90866637Y-106268699D01*
X91151999Y-106289109D01*
X91152001Y-106289109D01*
X91437362Y-106268699D01*
X91716895Y-106207890D01*
X91984958Y-106107908D01*
X92236047Y-105970803D01*
X92378561Y-105864116D01*
X92378562Y-105864115D01*
X91771611Y-105257163D01*
X91930069Y-105137501D01*
X92073652Y-104979999D01*
X92122560Y-104901007D01*
X92732115Y-105510562D01*
X92732116Y-105510561D01*
X92838803Y-105368047D01*
X92975908Y-105116958D01*
X93075890Y-104848895D01*
X93136699Y-104569362D01*
X93157109Y-104284001D01*
X93157109Y-104283998D01*
X93136699Y-103998637D01*
X93075890Y-103719104D01*
X92975908Y-103451041D01*
X92838808Y-103199961D01*
X92838807Y-103199960D01*
X92732115Y-103057436D01*
X92122560Y-103666991D01*
X92073652Y-103588001D01*
X91930069Y-103430499D01*
X91771610Y-103310835D01*
X92378562Y-102703883D01*
X92378561Y-102703882D01*
X92236046Y-102597196D01*
X92236038Y-102597191D01*
X91984957Y-102460091D01*
X91984958Y-102460091D01*
X91716895Y-102360109D01*
X91437362Y-102299300D01*
X91152001Y-102278891D01*
X91151999Y-102278891D01*
X90866637Y-102299300D01*
X90587104Y-102360109D01*
X90319041Y-102460091D01*
X90067961Y-102597191D01*
X90067953Y-102597196D01*
X89925437Y-102703882D01*
X89925436Y-102703883D01*
X90532389Y-103310835D01*
X90373931Y-103430499D01*
X90230348Y-103588001D01*
X90181439Y-103666992D01*
X89571883Y-103057436D01*
X89571882Y-103057437D01*
X89465196Y-103199953D01*
X89465191Y-103199961D01*
X89328091Y-103451041D01*
X89228109Y-103719104D01*
X89167300Y-103998637D01*
X89146891Y-104283998D01*
X89146891Y-104284001D01*
X80017109Y-104284001D01*
X80017109Y-104283998D01*
X79996699Y-103998637D01*
X79935890Y-103719104D01*
X79835908Y-103451041D01*
X79698808Y-103199961D01*
X79698807Y-103199960D01*
X79592115Y-103057436D01*
X78982560Y-103666991D01*
X78933652Y-103588001D01*
X78790069Y-103430499D01*
X78631610Y-103310835D01*
X79238562Y-102703883D01*
X79238561Y-102703882D01*
X79096046Y-102597196D01*
X79096038Y-102597191D01*
X78844957Y-102460091D01*
X78844958Y-102460091D01*
X78576895Y-102360109D01*
X78297362Y-102299300D01*
X78012001Y-102278891D01*
X78011999Y-102278891D01*
X77726637Y-102299300D01*
X77447104Y-102360109D01*
X77179041Y-102460091D01*
X76927961Y-102597191D01*
X76927953Y-102597196D01*
X76785437Y-102703882D01*
X76785436Y-102703883D01*
X77392389Y-103310835D01*
X77233931Y-103430499D01*
X77090348Y-103588001D01*
X77041439Y-103666992D01*
X76431883Y-103057436D01*
X76431882Y-103057437D01*
X76325196Y-103199953D01*
X76325191Y-103199961D01*
X76188091Y-103451041D01*
X76088109Y-103719104D01*
X76027300Y-103998637D01*
X76006891Y-104283998D01*
X76006891Y-104284001D01*
X68072000Y-104284001D01*
X68072000Y-94724326D01*
X73295500Y-94724326D01*
X73295501Y-94724345D01*
X73301913Y-94805834D01*
X73301914Y-94805836D01*
X73352702Y-94995379D01*
X73441789Y-95170221D01*
X73565280Y-95322720D01*
X73717779Y-95446211D01*
X73892621Y-95535298D01*
X74082164Y-95586086D01*
X74163663Y-95592500D01*
X76171364Y-95592499D01*
X76191774Y-95594190D01*
X76339252Y-95618800D01*
X76339253Y-95618800D01*
X76568747Y-95618800D01*
X76568748Y-95618800D01*
X76716226Y-95594189D01*
X76736635Y-95592499D01*
X76944327Y-95592499D01*
X76944336Y-95592499D01*
X77025836Y-95586086D01*
X77215379Y-95535298D01*
X77390221Y-95446211D01*
X77542720Y-95322720D01*
X77666211Y-95170221D01*
X77755298Y-94995379D01*
X77806086Y-94805836D01*
X77812500Y-94724337D01*
X77812499Y-94525927D01*
X77816294Y-94495485D01*
X77824594Y-94462712D01*
X77843546Y-94234000D01*
X77824594Y-94005288D01*
X77824593Y-94005283D01*
X77816293Y-93972507D01*
X77812499Y-93942067D01*
X77812499Y-93743673D01*
X77812498Y-93743663D01*
X77806086Y-93662164D01*
X77755298Y-93472621D01*
X77666211Y-93297779D01*
X77542720Y-93145280D01*
X77437858Y-93060364D01*
X77398148Y-93002879D01*
X77395820Y-92933048D01*
X77431615Y-92873044D01*
X77437848Y-92867642D01*
X77542720Y-92782720D01*
X77666211Y-92630221D01*
X77755298Y-92455379D01*
X77806086Y-92265836D01*
X77812500Y-92184337D01*
X77812499Y-91985927D01*
X77816294Y-91955485D01*
X77824594Y-91922712D01*
X77843546Y-91694000D01*
X77824594Y-91465288D01*
X77824593Y-91465283D01*
X77816293Y-91432507D01*
X77812499Y-91402067D01*
X77812499Y-91203673D01*
X77812498Y-91203663D01*
X77806086Y-91122164D01*
X77755298Y-90932621D01*
X77666211Y-90757779D01*
X77542720Y-90605280D01*
X77437858Y-90520364D01*
X77398148Y-90462879D01*
X77395820Y-90393048D01*
X77431615Y-90333044D01*
X77437848Y-90327642D01*
X77542720Y-90242720D01*
X77666211Y-90090221D01*
X77755298Y-89915379D01*
X77806086Y-89725836D01*
X77812500Y-89644337D01*
X77812499Y-89445927D01*
X77816294Y-89415485D01*
X77824594Y-89382712D01*
X77843546Y-89154000D01*
X77829012Y-88978610D01*
X77824595Y-88925296D01*
X77824593Y-88925283D01*
X77816293Y-88892507D01*
X77812499Y-88862067D01*
X77812499Y-88841500D01*
X77832184Y-88774461D01*
X77884988Y-88728706D01*
X77936499Y-88717500D01*
X83487389Y-88717500D01*
X83554428Y-88737185D01*
X83575070Y-88753819D01*
X83712180Y-88890929D01*
X83745665Y-88952252D01*
X83748499Y-88978610D01*
X83748499Y-100139746D01*
X83728814Y-100206785D01*
X83676010Y-100252540D01*
X83613693Y-100263274D01*
X83582004Y-100260502D01*
X83581998Y-100260502D01*
X83353918Y-100280456D01*
X83353910Y-100280457D01*
X83132761Y-100339714D01*
X83132750Y-100339718D01*
X82925254Y-100436475D01*
X82925252Y-100436476D01*
X82737699Y-100567803D01*
X82576579Y-100728923D01*
X82515256Y-100762407D01*
X82445564Y-100757423D01*
X82389631Y-100715551D01*
X82372717Y-100684576D01*
X82351544Y-100627813D01*
X82332889Y-100577796D01*
X82245261Y-100460739D01*
X82128204Y-100373111D01*
X81991203Y-100322011D01*
X81930654Y-100315500D01*
X81930638Y-100315500D01*
X80233362Y-100315500D01*
X80233345Y-100315500D01*
X80172797Y-100322011D01*
X80172795Y-100322011D01*
X80035795Y-100373111D01*
X79918739Y-100460739D01*
X79831111Y-100577795D01*
X79780011Y-100714795D01*
X79780011Y-100714797D01*
X79773500Y-100775345D01*
X79773500Y-102372654D01*
X79780011Y-102433202D01*
X79780011Y-102433204D01*
X79831111Y-102570203D01*
X79831111Y-102570204D01*
X79918739Y-102687261D01*
X80035796Y-102774889D01*
X80172799Y-102825989D01*
X80200050Y-102828918D01*
X80233345Y-102832499D01*
X80233362Y-102832500D01*
X81930638Y-102832500D01*
X81930654Y-102832499D01*
X81957692Y-102829591D01*
X81991201Y-102825989D01*
X82128204Y-102774889D01*
X82245261Y-102687261D01*
X82332889Y-102570204D01*
X82346586Y-102533480D01*
X82372717Y-102463424D01*
X82414588Y-102407490D01*
X82480053Y-102383074D01*
X82548326Y-102397926D01*
X82576579Y-102419077D01*
X82737700Y-102580198D01*
X82925251Y-102711523D01*
X83050091Y-102769736D01*
X83132750Y-102808281D01*
X83132752Y-102808281D01*
X83132757Y-102808284D01*
X83353913Y-102867543D01*
X83516832Y-102881796D01*
X83581998Y-102887498D01*
X83582000Y-102887498D01*
X83582002Y-102887498D01*
X83639021Y-102882509D01*
X83810087Y-102867543D01*
X84031243Y-102808284D01*
X84238749Y-102711523D01*
X84426300Y-102580198D01*
X84494319Y-102512179D01*
X84555642Y-102478694D01*
X84625334Y-102483678D01*
X84669681Y-102512179D01*
X84737700Y-102580198D01*
X84925251Y-102711523D01*
X85050091Y-102769736D01*
X85132750Y-102808281D01*
X85132752Y-102808281D01*
X85132757Y-102808284D01*
X85353913Y-102867543D01*
X85516832Y-102881796D01*
X85581998Y-102887498D01*
X85582000Y-102887498D01*
X85582002Y-102887498D01*
X85639021Y-102882509D01*
X85810087Y-102867543D01*
X86031243Y-102808284D01*
X86238749Y-102711523D01*
X86426300Y-102580198D01*
X86588198Y-102418300D01*
X86719523Y-102230749D01*
X86724305Y-102220493D01*
X86770472Y-102168054D01*
X86837665Y-102148898D01*
X86904547Y-102169110D01*
X86949067Y-102220483D01*
X86951862Y-102226477D01*
X86951863Y-102226478D01*
X87002974Y-102299472D01*
X87619064Y-101683382D01*
X87645481Y-101773351D01*
X87719327Y-101888258D01*
X87822555Y-101977705D01*
X87946801Y-102034446D01*
X87971548Y-102038004D01*
X87356526Y-102653025D01*
X87429513Y-102704132D01*
X87429521Y-102704136D01*
X87635668Y-102800264D01*
X87635682Y-102800269D01*
X87855389Y-102859139D01*
X87855400Y-102859141D01*
X88081998Y-102878966D01*
X88082002Y-102878966D01*
X88308599Y-102859141D01*
X88308610Y-102859139D01*
X88528317Y-102800269D01*
X88528331Y-102800264D01*
X88734478Y-102704136D01*
X88807471Y-102653024D01*
X88192451Y-102038004D01*
X88217199Y-102034446D01*
X88341445Y-101977705D01*
X88444673Y-101888258D01*
X88518519Y-101773351D01*
X88544935Y-101683382D01*
X89161024Y-102299471D01*
X89212136Y-102226478D01*
X89308264Y-102020331D01*
X89308269Y-102020317D01*
X89367139Y-101800610D01*
X89367141Y-101800599D01*
X89386966Y-101574002D01*
X89386966Y-101573997D01*
X89367141Y-101347400D01*
X89367139Y-101347389D01*
X89308269Y-101127682D01*
X89308264Y-101127668D01*
X89212136Y-100921521D01*
X89212132Y-100921513D01*
X89161025Y-100848526D01*
X88544935Y-101464616D01*
X88518519Y-101374649D01*
X88444673Y-101259742D01*
X88341445Y-101170295D01*
X88217199Y-101113554D01*
X88192451Y-101109995D01*
X88807472Y-100494974D01*
X88734478Y-100443863D01*
X88528331Y-100347735D01*
X88528317Y-100347730D01*
X88308610Y-100288860D01*
X88308599Y-100288858D01*
X88082002Y-100269034D01*
X88081998Y-100269034D01*
X87855400Y-100288858D01*
X87855389Y-100288860D01*
X87635682Y-100347730D01*
X87635673Y-100347734D01*
X87429516Y-100443866D01*
X87429512Y-100443868D01*
X87356526Y-100494973D01*
X87356526Y-100494974D01*
X87971548Y-101109995D01*
X87946801Y-101113554D01*
X87822555Y-101170295D01*
X87719327Y-101259742D01*
X87645481Y-101374649D01*
X87619064Y-101464616D01*
X87002974Y-100848526D01*
X87002973Y-100848526D01*
X86951868Y-100921512D01*
X86951865Y-100921518D01*
X86949070Y-100927513D01*
X86902897Y-100979951D01*
X86835703Y-100999102D01*
X86768822Y-100978885D01*
X86724307Y-100927511D01*
X86719523Y-100917251D01*
X86588198Y-100729700D01*
X86426300Y-100567802D01*
X86238749Y-100436477D01*
X86238745Y-100436475D01*
X86031249Y-100339718D01*
X86031238Y-100339714D01*
X85810089Y-100280457D01*
X85810081Y-100280456D01*
X85582002Y-100260502D01*
X85581996Y-100260502D01*
X85550307Y-100263274D01*
X85481807Y-100249507D01*
X85431625Y-100200891D01*
X85415501Y-100139746D01*
X85415501Y-94234005D01*
X92844454Y-94234005D01*
X92863404Y-94462705D01*
X92863405Y-94462711D01*
X92871706Y-94495489D01*
X92875500Y-94525927D01*
X92875500Y-94724326D01*
X92875501Y-94724345D01*
X92881913Y-94805834D01*
X92881914Y-94805836D01*
X92932702Y-94995379D01*
X93021789Y-95170221D01*
X93145280Y-95322720D01*
X93297779Y-95446211D01*
X93472621Y-95535298D01*
X93662164Y-95586086D01*
X93743663Y-95592500D01*
X93951366Y-95592499D01*
X93971777Y-95594190D01*
X94027367Y-95603466D01*
X94119252Y-95618800D01*
X94119257Y-95618800D01*
X94348743Y-95618800D01*
X94348748Y-95618800D01*
X94453875Y-95601256D01*
X94496223Y-95594190D01*
X94516633Y-95592499D01*
X96524327Y-95592499D01*
X96524336Y-95592499D01*
X96605836Y-95586086D01*
X96795379Y-95535298D01*
X96970221Y-95446211D01*
X97122720Y-95322720D01*
X97246211Y-95170221D01*
X97335298Y-94995379D01*
X97386086Y-94805836D01*
X97392500Y-94724337D01*
X97392499Y-93743664D01*
X97386086Y-93662164D01*
X97335298Y-93472621D01*
X97246211Y-93297779D01*
X97122720Y-93145280D01*
X97017858Y-93060364D01*
X96978148Y-93002879D01*
X96975820Y-92933048D01*
X97011615Y-92873044D01*
X97017848Y-92867642D01*
X97122720Y-92782720D01*
X97246211Y-92630221D01*
X97335298Y-92455379D01*
X97386086Y-92265836D01*
X97392500Y-92184337D01*
X97392499Y-91203664D01*
X97386086Y-91122164D01*
X97335298Y-90932621D01*
X97246211Y-90757779D01*
X97122720Y-90605280D01*
X97017858Y-90520364D01*
X96978148Y-90462879D01*
X96975820Y-90393048D01*
X97011615Y-90333044D01*
X97017848Y-90327642D01*
X97122720Y-90242720D01*
X97246211Y-90090221D01*
X97335298Y-89915379D01*
X97386086Y-89725836D01*
X97392500Y-89644337D01*
X97392499Y-88663664D01*
X97386086Y-88582164D01*
X97335298Y-88392621D01*
X97246211Y-88217779D01*
X97122720Y-88065280D01*
X97017858Y-87980364D01*
X96978148Y-87922879D01*
X96975820Y-87853048D01*
X97011615Y-87793044D01*
X97017848Y-87787642D01*
X97122720Y-87702720D01*
X97246211Y-87550221D01*
X97335298Y-87375379D01*
X97386086Y-87185836D01*
X97392500Y-87104337D01*
X97392499Y-86123664D01*
X97386086Y-86042164D01*
X97335298Y-85852621D01*
X97246211Y-85677779D01*
X97122720Y-85525280D01*
X97017858Y-85440364D01*
X96978148Y-85382879D01*
X96975820Y-85313048D01*
X97011615Y-85253044D01*
X97017848Y-85247642D01*
X97122720Y-85162720D01*
X97246211Y-85010221D01*
X97335298Y-84835379D01*
X97386086Y-84645836D01*
X97392500Y-84564337D01*
X97392499Y-83583664D01*
X97386086Y-83502164D01*
X97335298Y-83312621D01*
X97246211Y-83137779D01*
X97122720Y-82985280D01*
X97017858Y-82900364D01*
X96978148Y-82842879D01*
X96975820Y-82773048D01*
X97011615Y-82713044D01*
X97017848Y-82707642D01*
X97122720Y-82622720D01*
X97246211Y-82470221D01*
X97335298Y-82295379D01*
X97386086Y-82105836D01*
X97392500Y-82024337D01*
X97392499Y-81043664D01*
X97386086Y-80962164D01*
X97335298Y-80772621D01*
X97246211Y-80597779D01*
X97122720Y-80445280D01*
X97017858Y-80360364D01*
X96978148Y-80302879D01*
X96975820Y-80233048D01*
X97011615Y-80173044D01*
X97017848Y-80167642D01*
X97122720Y-80082720D01*
X97246211Y-79930221D01*
X97335298Y-79755379D01*
X97386086Y-79565836D01*
X97392500Y-79484337D01*
X97392499Y-78503664D01*
X97386086Y-78422164D01*
X97335298Y-78232621D01*
X97246211Y-78057779D01*
X97122720Y-77905280D01*
X97017858Y-77820364D01*
X96978148Y-77762879D01*
X96975820Y-77693048D01*
X97011615Y-77633044D01*
X97017848Y-77627642D01*
X97122720Y-77542720D01*
X97246211Y-77390221D01*
X97335298Y-77215379D01*
X97386086Y-77025836D01*
X97392500Y-76944337D01*
X97392499Y-75963664D01*
X97386086Y-75882164D01*
X97335298Y-75692621D01*
X97246211Y-75517779D01*
X97122720Y-75365280D01*
X97017858Y-75280364D01*
X96978148Y-75222879D01*
X96975820Y-75153048D01*
X97011615Y-75093044D01*
X97017848Y-75087642D01*
X97122720Y-75002720D01*
X97246211Y-74850221D01*
X97335298Y-74675379D01*
X97386086Y-74485836D01*
X97392500Y-74404337D01*
X97392499Y-73914000D01*
X97392499Y-73423673D01*
X97392498Y-73423663D01*
X97386086Y-73342164D01*
X97335298Y-73152621D01*
X97246211Y-72977779D01*
X97122720Y-72825280D01*
X97017858Y-72740364D01*
X96978148Y-72682879D01*
X96975820Y-72613048D01*
X97011615Y-72553044D01*
X97017848Y-72547642D01*
X97122720Y-72462720D01*
X97246211Y-72310221D01*
X97335298Y-72135379D01*
X97386086Y-71945836D01*
X97392500Y-71864337D01*
X97392499Y-70883664D01*
X97386086Y-70802164D01*
X97335298Y-70612621D01*
X97246211Y-70437779D01*
X97122720Y-70285280D01*
X97017858Y-70200364D01*
X96978148Y-70142879D01*
X96975820Y-70073048D01*
X97011615Y-70013044D01*
X97017848Y-70007642D01*
X97122720Y-69922720D01*
X97246211Y-69770221D01*
X97335298Y-69595379D01*
X97386086Y-69405836D01*
X97392500Y-69324337D01*
X97392499Y-68343664D01*
X97386086Y-68262164D01*
X97335298Y-68072621D01*
X97246211Y-67897779D01*
X97122720Y-67745280D01*
X97017858Y-67660364D01*
X96978148Y-67602879D01*
X96975820Y-67533048D01*
X97011615Y-67473044D01*
X97017848Y-67467642D01*
X97122720Y-67382720D01*
X97246211Y-67230221D01*
X97335298Y-67055379D01*
X97386086Y-66865836D01*
X97392500Y-66784337D01*
X97392499Y-65803664D01*
X97386086Y-65722164D01*
X97335298Y-65532621D01*
X97246211Y-65357779D01*
X97122720Y-65205280D01*
X97017858Y-65120364D01*
X96978148Y-65062879D01*
X96975820Y-64993048D01*
X97011615Y-64933044D01*
X97017848Y-64927642D01*
X97122720Y-64842720D01*
X97246211Y-64690221D01*
X97335298Y-64515379D01*
X97386086Y-64325836D01*
X97392500Y-64244337D01*
X97392499Y-63263664D01*
X97386086Y-63182164D01*
X97335298Y-62992621D01*
X97246211Y-62817779D01*
X97122720Y-62665280D01*
X97017858Y-62580364D01*
X96978148Y-62522879D01*
X96975820Y-62453048D01*
X97011615Y-62393044D01*
X97017848Y-62387642D01*
X97122720Y-62302720D01*
X97246211Y-62150221D01*
X97335298Y-61975379D01*
X97386086Y-61785836D01*
X97392500Y-61704337D01*
X97392499Y-60723664D01*
X97386086Y-60642164D01*
X97335298Y-60452621D01*
X97246211Y-60277779D01*
X97122720Y-60125280D01*
X97011103Y-60034895D01*
X96971394Y-59977410D01*
X96969066Y-59907579D01*
X97004861Y-59847575D01*
X97011105Y-59842165D01*
X97116675Y-59756675D01*
X97239042Y-59605567D01*
X97327317Y-59432315D01*
X97377644Y-59244497D01*
X97383999Y-59163743D01*
X97384000Y-59163730D01*
X97384000Y-58924000D01*
X94724713Y-58924000D01*
X94773704Y-58786152D01*
X94783949Y-58636382D01*
X94753406Y-58489403D01*
X94719517Y-58424000D01*
X97384000Y-58424000D01*
X97384000Y-58184269D01*
X97383999Y-58184256D01*
X97377644Y-58103502D01*
X97327317Y-57915684D01*
X97239042Y-57742432D01*
X97116675Y-57591323D01*
X97011105Y-57505833D01*
X96971394Y-57448346D01*
X96969067Y-57378515D01*
X97004863Y-57318511D01*
X97011107Y-57313102D01*
X97122720Y-57222720D01*
X97246211Y-57070221D01*
X97335298Y-56895379D01*
X97386086Y-56705836D01*
X97392500Y-56624337D01*
X97392499Y-55643664D01*
X97386086Y-55562164D01*
X97335298Y-55372621D01*
X97246211Y-55197779D01*
X97122720Y-55045280D01*
X97017858Y-54960364D01*
X96978148Y-54902879D01*
X96975820Y-54833048D01*
X97011615Y-54773044D01*
X97017848Y-54767642D01*
X97122720Y-54682720D01*
X97246211Y-54530221D01*
X97335298Y-54355379D01*
X97386086Y-54165836D01*
X97392500Y-54084337D01*
X97392499Y-53103664D01*
X97386086Y-53022164D01*
X97335298Y-52832621D01*
X97246211Y-52657779D01*
X97122720Y-52505280D01*
X97011103Y-52414895D01*
X96971394Y-52357410D01*
X96969066Y-52287579D01*
X97004861Y-52227575D01*
X97011105Y-52222165D01*
X97116675Y-52136675D01*
X97239042Y-51985567D01*
X97327317Y-51812315D01*
X97377644Y-51624497D01*
X97383999Y-51543743D01*
X97384000Y-51543730D01*
X97384000Y-51304000D01*
X94724713Y-51304000D01*
X94773704Y-51166152D01*
X94783949Y-51016382D01*
X94753406Y-50869403D01*
X94719517Y-50804000D01*
X97384000Y-50804000D01*
X97384000Y-50564269D01*
X97383999Y-50564256D01*
X97377644Y-50483502D01*
X97327317Y-50295684D01*
X97239042Y-50122432D01*
X97116675Y-49971323D01*
X97011105Y-49885833D01*
X96971394Y-49828346D01*
X96969067Y-49758515D01*
X97004863Y-49698511D01*
X97011107Y-49693102D01*
X97011179Y-49693044D01*
X97122720Y-49602720D01*
X97246211Y-49450221D01*
X97335298Y-49275379D01*
X97386086Y-49085836D01*
X97392500Y-49004337D01*
X97392499Y-48023664D01*
X97386086Y-47942164D01*
X97335298Y-47752621D01*
X97246211Y-47577779D01*
X97122720Y-47425280D01*
X97017858Y-47340364D01*
X96978148Y-47282879D01*
X96975820Y-47213048D01*
X97011615Y-47153044D01*
X97017848Y-47147642D01*
X97122720Y-47062720D01*
X97246211Y-46910221D01*
X97335298Y-46735379D01*
X97386086Y-46545836D01*
X97392500Y-46464337D01*
X97392499Y-45483664D01*
X97386086Y-45402164D01*
X97335298Y-45212621D01*
X97246211Y-45037779D01*
X97122720Y-44885280D01*
X96970221Y-44761789D01*
X96795379Y-44672702D01*
X96795378Y-44672701D01*
X96795377Y-44672701D01*
X96605834Y-44621913D01*
X96524342Y-44615500D01*
X96524337Y-44615500D01*
X94516633Y-44615500D01*
X94496224Y-44613809D01*
X94348748Y-44589200D01*
X94119252Y-44589200D01*
X93971773Y-44613809D01*
X93951365Y-44615500D01*
X93743673Y-44615500D01*
X93743654Y-44615501D01*
X93662165Y-44621913D01*
X93472622Y-44672701D01*
X93297780Y-44761788D01*
X93297773Y-44761793D01*
X93145280Y-44885280D01*
X93021793Y-45037773D01*
X93021788Y-45037780D01*
X92932701Y-45212622D01*
X92881913Y-45402165D01*
X92875500Y-45483657D01*
X92875500Y-45682071D01*
X92871706Y-45712510D01*
X92863405Y-45745289D01*
X92844454Y-45973994D01*
X92844454Y-45974005D01*
X92863404Y-46202705D01*
X92863405Y-46202711D01*
X92871706Y-46235489D01*
X92875500Y-46265927D01*
X92875500Y-46464326D01*
X92875501Y-46464345D01*
X92881913Y-46545834D01*
X92881914Y-46545836D01*
X92932702Y-46735379D01*
X93021789Y-46910221D01*
X93145280Y-47062720D01*
X93231103Y-47132218D01*
X93250140Y-47147634D01*
X93289851Y-47205121D01*
X93292179Y-47274952D01*
X93256383Y-47334956D01*
X93250140Y-47340366D01*
X93145280Y-47425280D01*
X93021793Y-47577773D01*
X93021788Y-47577780D01*
X92932701Y-47752622D01*
X92881913Y-47942165D01*
X92875500Y-48023657D01*
X92875500Y-48222071D01*
X92871706Y-48252510D01*
X92863405Y-48285289D01*
X92844454Y-48513994D01*
X92844454Y-48514005D01*
X92863404Y-48742705D01*
X92863405Y-48742711D01*
X92871706Y-48775489D01*
X92875500Y-48805927D01*
X92875500Y-49004326D01*
X92875501Y-49004345D01*
X92881913Y-49085834D01*
X92881914Y-49085836D01*
X92932702Y-49275379D01*
X93021789Y-49450221D01*
X93145280Y-49602720D01*
X93222526Y-49665273D01*
X93231750Y-49672742D01*
X93271461Y-49730229D01*
X93273789Y-49800060D01*
X93237993Y-49860064D01*
X93231750Y-49865474D01*
X93128820Y-49948824D01*
X93004716Y-50102081D01*
X93004716Y-50102082D01*
X92915186Y-50277796D01*
X92864145Y-50468284D01*
X92864145Y-50468285D01*
X92857700Y-50550180D01*
X92857700Y-50804000D01*
X93743287Y-50804000D01*
X93694296Y-50941848D01*
X93684051Y-51091618D01*
X93714594Y-51238597D01*
X93748483Y-51304000D01*
X92857700Y-51304000D01*
X92857700Y-51557819D01*
X92864145Y-51639714D01*
X92864145Y-51639715D01*
X92915186Y-51830203D01*
X93004716Y-52005917D01*
X93004716Y-52005918D01*
X93128819Y-52159174D01*
X93231749Y-52242524D01*
X93271461Y-52300011D01*
X93273789Y-52369842D01*
X93237994Y-52429846D01*
X93231751Y-52435256D01*
X93145280Y-52505279D01*
X93021793Y-52657773D01*
X93021788Y-52657780D01*
X92932701Y-52832622D01*
X92881913Y-53022165D01*
X92875500Y-53103657D01*
X92875500Y-53302071D01*
X92871706Y-53332510D01*
X92863405Y-53365289D01*
X92844454Y-53593994D01*
X92844454Y-53594005D01*
X92863404Y-53822705D01*
X92863405Y-53822711D01*
X92871706Y-53855489D01*
X92875500Y-53885927D01*
X92875500Y-54084326D01*
X92875501Y-54084345D01*
X92881913Y-54165834D01*
X92881914Y-54165836D01*
X92932702Y-54355379D01*
X93021789Y-54530221D01*
X93145280Y-54682720D01*
X93231103Y-54752218D01*
X93250140Y-54767634D01*
X93289851Y-54825121D01*
X93292179Y-54894952D01*
X93256383Y-54954956D01*
X93250140Y-54960366D01*
X93145280Y-55045280D01*
X93021793Y-55197773D01*
X93021788Y-55197780D01*
X92932701Y-55372622D01*
X92881913Y-55562165D01*
X92875500Y-55643657D01*
X92875500Y-55842071D01*
X92871706Y-55872510D01*
X92863405Y-55905289D01*
X92844454Y-56133994D01*
X92844454Y-56134005D01*
X92863404Y-56362705D01*
X92863405Y-56362711D01*
X92871706Y-56395489D01*
X92875500Y-56425927D01*
X92875500Y-56624326D01*
X92875501Y-56624345D01*
X92881913Y-56705834D01*
X92881914Y-56705836D01*
X92932702Y-56895379D01*
X93021789Y-57070221D01*
X93145280Y-57222720D01*
X93222526Y-57285273D01*
X93231750Y-57292742D01*
X93271461Y-57350229D01*
X93273789Y-57420060D01*
X93237993Y-57480064D01*
X93231750Y-57485474D01*
X93128820Y-57568824D01*
X93004716Y-57722081D01*
X93004716Y-57722082D01*
X92915186Y-57897796D01*
X92864145Y-58088284D01*
X92864145Y-58088285D01*
X92857700Y-58170180D01*
X92857700Y-58424000D01*
X93743287Y-58424000D01*
X93694296Y-58561848D01*
X93684051Y-58711618D01*
X93714594Y-58858597D01*
X93748483Y-58924000D01*
X92857700Y-58924000D01*
X92857700Y-59177819D01*
X92864145Y-59259714D01*
X92864145Y-59259715D01*
X92915186Y-59450203D01*
X93004716Y-59625917D01*
X93004716Y-59625918D01*
X93128819Y-59779174D01*
X93231749Y-59862524D01*
X93271461Y-59920011D01*
X93273789Y-59989842D01*
X93237994Y-60049846D01*
X93231751Y-60055256D01*
X93145280Y-60125279D01*
X93021793Y-60277773D01*
X93021788Y-60277780D01*
X92932701Y-60452622D01*
X92881913Y-60642165D01*
X92875500Y-60723657D01*
X92875500Y-60922071D01*
X92871706Y-60952510D01*
X92863405Y-60985289D01*
X92844454Y-61213994D01*
X92844454Y-61214005D01*
X92863404Y-61442705D01*
X92863405Y-61442711D01*
X92871706Y-61475489D01*
X92875500Y-61505927D01*
X92875500Y-61704326D01*
X92875501Y-61704345D01*
X92881913Y-61785834D01*
X92881914Y-61785836D01*
X92932702Y-61975379D01*
X93021789Y-62150221D01*
X93145280Y-62302720D01*
X93231103Y-62372218D01*
X93250140Y-62387634D01*
X93289851Y-62445121D01*
X93292179Y-62514952D01*
X93256383Y-62574956D01*
X93250140Y-62580366D01*
X93145280Y-62665280D01*
X93021793Y-62817773D01*
X93021788Y-62817780D01*
X92932701Y-62992622D01*
X92881913Y-63182165D01*
X92875500Y-63263657D01*
X92875500Y-63462071D01*
X92871706Y-63492510D01*
X92863405Y-63525289D01*
X92844454Y-63753994D01*
X92844454Y-63754005D01*
X92863404Y-63982705D01*
X92863405Y-63982711D01*
X92871706Y-64015489D01*
X92875500Y-64045927D01*
X92875500Y-64244326D01*
X92875501Y-64244345D01*
X92881913Y-64325834D01*
X92881914Y-64325836D01*
X92932702Y-64515379D01*
X93021789Y-64690221D01*
X93145280Y-64842720D01*
X93231103Y-64912218D01*
X93250140Y-64927634D01*
X93289851Y-64985121D01*
X93292179Y-65054952D01*
X93256383Y-65114956D01*
X93250140Y-65120366D01*
X93145280Y-65205280D01*
X93021793Y-65357773D01*
X93021788Y-65357780D01*
X92932701Y-65532622D01*
X92881913Y-65722165D01*
X92875500Y-65803657D01*
X92875500Y-66002071D01*
X92871706Y-66032510D01*
X92863405Y-66065289D01*
X92844454Y-66293994D01*
X92844454Y-66294005D01*
X92863404Y-66522705D01*
X92863405Y-66522711D01*
X92871706Y-66555489D01*
X92875500Y-66585927D01*
X92875500Y-66784326D01*
X92875501Y-66784345D01*
X92881913Y-66865834D01*
X92881914Y-66865836D01*
X92932702Y-67055379D01*
X93021789Y-67230221D01*
X93145280Y-67382720D01*
X93231103Y-67452218D01*
X93250140Y-67467634D01*
X93289851Y-67525121D01*
X93292179Y-67594952D01*
X93256383Y-67654956D01*
X93250140Y-67660366D01*
X93145280Y-67745280D01*
X93021793Y-67897773D01*
X93021788Y-67897780D01*
X92932701Y-68072622D01*
X92881913Y-68262165D01*
X92875500Y-68343657D01*
X92875500Y-68542071D01*
X92871706Y-68572510D01*
X92863405Y-68605289D01*
X92844454Y-68833994D01*
X92844454Y-68834005D01*
X92863404Y-69062705D01*
X92863405Y-69062711D01*
X92871706Y-69095489D01*
X92875500Y-69125927D01*
X92875500Y-69324326D01*
X92875501Y-69324345D01*
X92881913Y-69405834D01*
X92881914Y-69405836D01*
X92932702Y-69595379D01*
X93021789Y-69770221D01*
X93145280Y-69922720D01*
X93231103Y-69992218D01*
X93250140Y-70007634D01*
X93289851Y-70065121D01*
X93292179Y-70134952D01*
X93256383Y-70194956D01*
X93250140Y-70200366D01*
X93145280Y-70285280D01*
X93021793Y-70437773D01*
X93021788Y-70437780D01*
X92932701Y-70612622D01*
X92881913Y-70802165D01*
X92875500Y-70883657D01*
X92875500Y-71082071D01*
X92871706Y-71112510D01*
X92863405Y-71145289D01*
X92844454Y-71373994D01*
X92844454Y-71374005D01*
X92863404Y-71602705D01*
X92863405Y-71602711D01*
X92871706Y-71635489D01*
X92875500Y-71665927D01*
X92875500Y-71864326D01*
X92875501Y-71864345D01*
X92881913Y-71945834D01*
X92881914Y-71945836D01*
X92932702Y-72135379D01*
X93021789Y-72310221D01*
X93145280Y-72462720D01*
X93224907Y-72527201D01*
X93264618Y-72584687D01*
X93266946Y-72654518D01*
X93231151Y-72714522D01*
X93225232Y-72719668D01*
X93123015Y-72803015D01*
X93001348Y-72952229D01*
X92956777Y-73037554D01*
X92912205Y-73122883D01*
X92859243Y-73307982D01*
X92859242Y-73307985D01*
X92849200Y-73420943D01*
X92849200Y-74407056D01*
X92859242Y-74520014D01*
X92859242Y-74520016D01*
X92859243Y-74520019D01*
X92880471Y-74594209D01*
X92912205Y-74705116D01*
X92912206Y-74705119D01*
X92912207Y-74705120D01*
X93001348Y-74875771D01*
X93123015Y-75024985D01*
X93225232Y-75108331D01*
X93264749Y-75165952D01*
X93266841Y-75235790D01*
X93230843Y-75295673D01*
X93224907Y-75300799D01*
X93145280Y-75365280D01*
X93021793Y-75517773D01*
X93021788Y-75517780D01*
X92932701Y-75692622D01*
X92881913Y-75882165D01*
X92875500Y-75963657D01*
X92875500Y-76162071D01*
X92871706Y-76192510D01*
X92863405Y-76225289D01*
X92844454Y-76453994D01*
X92844454Y-76454005D01*
X92863404Y-76682705D01*
X92863405Y-76682711D01*
X92871706Y-76715489D01*
X92875500Y-76745927D01*
X92875500Y-76944326D01*
X92875501Y-76944345D01*
X92881913Y-77025834D01*
X92881914Y-77025836D01*
X92932702Y-77215379D01*
X93021789Y-77390221D01*
X93145280Y-77542720D01*
X93231103Y-77612218D01*
X93250140Y-77627634D01*
X93289851Y-77685121D01*
X93292179Y-77754952D01*
X93256383Y-77814956D01*
X93250140Y-77820366D01*
X93145280Y-77905280D01*
X93021793Y-78057773D01*
X93021788Y-78057780D01*
X92932701Y-78232622D01*
X92881913Y-78422165D01*
X92875500Y-78503657D01*
X92875500Y-78702071D01*
X92871706Y-78732510D01*
X92863405Y-78765289D01*
X92844454Y-78993994D01*
X92844454Y-78994005D01*
X92863404Y-79222705D01*
X92863405Y-79222711D01*
X92871706Y-79255489D01*
X92875500Y-79285927D01*
X92875500Y-79484326D01*
X92875501Y-79484345D01*
X92881913Y-79565834D01*
X92881914Y-79565836D01*
X92932702Y-79755379D01*
X93021789Y-79930221D01*
X93145280Y-80082720D01*
X93231103Y-80152218D01*
X93250140Y-80167634D01*
X93289851Y-80225121D01*
X93292179Y-80294952D01*
X93256383Y-80354956D01*
X93250140Y-80360366D01*
X93145280Y-80445280D01*
X93021793Y-80597773D01*
X93021788Y-80597780D01*
X92932701Y-80772622D01*
X92881913Y-80962165D01*
X92875500Y-81043657D01*
X92875500Y-81242071D01*
X92871706Y-81272510D01*
X92863405Y-81305289D01*
X92844454Y-81533994D01*
X92844454Y-81534005D01*
X92863404Y-81762705D01*
X92863405Y-81762711D01*
X92871706Y-81795489D01*
X92875500Y-81825927D01*
X92875500Y-82024326D01*
X92875501Y-82024345D01*
X92881913Y-82105834D01*
X92885633Y-82119715D01*
X92932702Y-82295379D01*
X93021789Y-82470221D01*
X93145280Y-82622720D01*
X93227376Y-82689200D01*
X93250140Y-82707634D01*
X93289851Y-82765121D01*
X93292179Y-82834952D01*
X93256383Y-82894956D01*
X93250140Y-82900366D01*
X93145280Y-82985280D01*
X93021793Y-83137773D01*
X93021788Y-83137780D01*
X92932701Y-83312622D01*
X92881913Y-83502165D01*
X92875500Y-83583657D01*
X92875500Y-83782071D01*
X92871706Y-83812510D01*
X92863405Y-83845289D01*
X92844454Y-84073994D01*
X92844454Y-84074005D01*
X92863404Y-84302705D01*
X92863405Y-84302711D01*
X92871706Y-84335489D01*
X92875500Y-84365927D01*
X92875500Y-84564326D01*
X92875501Y-84564345D01*
X92881913Y-84645834D01*
X92881914Y-84645836D01*
X92932702Y-84835379D01*
X93021789Y-85010221D01*
X93145280Y-85162720D01*
X93231103Y-85232218D01*
X93250140Y-85247634D01*
X93289851Y-85305121D01*
X93292179Y-85374952D01*
X93256383Y-85434956D01*
X93250140Y-85440366D01*
X93145280Y-85525280D01*
X93021793Y-85677773D01*
X93021788Y-85677780D01*
X92932701Y-85852622D01*
X92881913Y-86042165D01*
X92875500Y-86123657D01*
X92875500Y-86322071D01*
X92871706Y-86352510D01*
X92863405Y-86385289D01*
X92844454Y-86613994D01*
X92844454Y-86614005D01*
X92863404Y-86842705D01*
X92863405Y-86842711D01*
X92871706Y-86875489D01*
X92875500Y-86905927D01*
X92875500Y-87104326D01*
X92875501Y-87104345D01*
X92881913Y-87185834D01*
X92899236Y-87250482D01*
X92932702Y-87375379D01*
X93021789Y-87550221D01*
X93145280Y-87702720D01*
X93231103Y-87772218D01*
X93250140Y-87787634D01*
X93289851Y-87845121D01*
X93292179Y-87914952D01*
X93256383Y-87974956D01*
X93250140Y-87980366D01*
X93145280Y-88065280D01*
X93021793Y-88217773D01*
X93021788Y-88217780D01*
X92932701Y-88392622D01*
X92881913Y-88582165D01*
X92875500Y-88663657D01*
X92875500Y-88862071D01*
X92871706Y-88892510D01*
X92863405Y-88925289D01*
X92844454Y-89153994D01*
X92844454Y-89154005D01*
X92863404Y-89382705D01*
X92863405Y-89382711D01*
X92871706Y-89415489D01*
X92875500Y-89445927D01*
X92875500Y-89644326D01*
X92875501Y-89644345D01*
X92881913Y-89725834D01*
X92881914Y-89725836D01*
X92932702Y-89915379D01*
X93021789Y-90090221D01*
X93145280Y-90242720D01*
X93231103Y-90312218D01*
X93250140Y-90327634D01*
X93289851Y-90385121D01*
X93292179Y-90454952D01*
X93256383Y-90514956D01*
X93250140Y-90520366D01*
X93145280Y-90605280D01*
X93021793Y-90757773D01*
X93021788Y-90757780D01*
X92932701Y-90932622D01*
X92881913Y-91122165D01*
X92875500Y-91203657D01*
X92875500Y-91402071D01*
X92871706Y-91432510D01*
X92863405Y-91465289D01*
X92844454Y-91693994D01*
X92844454Y-91694005D01*
X92863404Y-91922705D01*
X92863405Y-91922711D01*
X92871706Y-91955489D01*
X92875500Y-91985927D01*
X92875500Y-92184326D01*
X92875501Y-92184345D01*
X92881913Y-92265834D01*
X92881914Y-92265836D01*
X92932702Y-92455379D01*
X93021789Y-92630221D01*
X93145280Y-92782720D01*
X93231103Y-92852218D01*
X93250140Y-92867634D01*
X93289851Y-92925121D01*
X93292179Y-92994952D01*
X93256383Y-93054956D01*
X93250140Y-93060366D01*
X93145280Y-93145280D01*
X93021793Y-93297773D01*
X93021788Y-93297780D01*
X92932701Y-93472622D01*
X92881913Y-93662165D01*
X92875500Y-93743657D01*
X92875500Y-93942071D01*
X92871706Y-93972510D01*
X92863405Y-94005289D01*
X92844454Y-94233994D01*
X92844454Y-94234005D01*
X85415501Y-94234005D01*
X85415501Y-88536805D01*
X85416562Y-88520619D01*
X85420751Y-88488800D01*
X85420751Y-88488799D01*
X85416032Y-88452955D01*
X85416031Y-88452941D01*
X85408090Y-88392622D01*
X85399839Y-88329951D01*
X85399838Y-88329949D01*
X85399838Y-88329947D01*
X85376204Y-88272889D01*
X85338527Y-88181929D01*
X85338524Y-88181924D01*
X85263023Y-88083529D01*
X85263002Y-88083503D01*
X85260217Y-88079874D01*
X85240988Y-88054814D01*
X85240986Y-88054812D01*
X85240985Y-88054811D01*
X85215521Y-88035272D01*
X85203326Y-88024577D01*
X84441424Y-87262675D01*
X84430730Y-87250482D01*
X84411187Y-87225013D01*
X84411185Y-87225011D01*
X84411184Y-87225010D01*
X84379275Y-87200526D01*
X84379274Y-87200525D01*
X84379272Y-87200523D01*
X84343336Y-87172948D01*
X84284077Y-87127476D01*
X84284073Y-87127474D01*
X84136051Y-87066161D01*
X84118911Y-87063905D01*
X84116656Y-87063608D01*
X84116655Y-87063607D01*
X84013078Y-87049972D01*
X84013046Y-87049969D01*
X83977201Y-87045250D01*
X83977199Y-87045250D01*
X83945380Y-87049439D01*
X83929195Y-87050500D01*
X77936499Y-87050500D01*
X77869460Y-87030815D01*
X77823705Y-86978011D01*
X77812499Y-86926500D01*
X77812499Y-86905927D01*
X77816294Y-86875485D01*
X77824594Y-86842712D01*
X77843546Y-86614000D01*
X77824594Y-86385288D01*
X77824593Y-86385283D01*
X77816293Y-86352507D01*
X77812499Y-86322067D01*
X77812499Y-86123673D01*
X77812498Y-86123663D01*
X77806086Y-86042164D01*
X77755298Y-85852621D01*
X77666211Y-85677779D01*
X77542720Y-85525280D01*
X77437858Y-85440364D01*
X77398148Y-85382879D01*
X77395820Y-85313048D01*
X77431615Y-85253044D01*
X77437848Y-85247642D01*
X77542720Y-85162720D01*
X77666211Y-85010221D01*
X77755298Y-84835379D01*
X77806086Y-84645836D01*
X77812500Y-84564337D01*
X77812499Y-84365927D01*
X77816294Y-84335485D01*
X77824594Y-84302712D01*
X77843546Y-84074000D01*
X77824594Y-83845288D01*
X77824593Y-83845283D01*
X77816293Y-83812507D01*
X77812499Y-83782067D01*
X77812499Y-83583673D01*
X77812498Y-83583663D01*
X77806086Y-83502164D01*
X77755298Y-83312621D01*
X77666211Y-83137779D01*
X77542720Y-82985280D01*
X77456249Y-82915257D01*
X77416538Y-82857769D01*
X77414210Y-82787939D01*
X77450006Y-82727935D01*
X77456250Y-82722524D01*
X77559180Y-82639174D01*
X77683283Y-82485918D01*
X77683283Y-82485917D01*
X77772813Y-82310203D01*
X77823854Y-82119715D01*
X77823854Y-82119714D01*
X77830299Y-82037819D01*
X77830300Y-82037806D01*
X77830300Y-81784000D01*
X76944713Y-81784000D01*
X76993704Y-81646152D01*
X77003949Y-81496382D01*
X76973406Y-81349403D01*
X76939517Y-81284000D01*
X77830300Y-81284000D01*
X77830300Y-81030193D01*
X77830299Y-81030180D01*
X77823854Y-80948285D01*
X77823854Y-80948284D01*
X77772813Y-80757796D01*
X77683283Y-80582082D01*
X77683283Y-80582081D01*
X77559178Y-80428823D01*
X77559176Y-80428821D01*
X77456250Y-80345474D01*
X77416538Y-80287988D01*
X77414210Y-80218157D01*
X77450005Y-80158153D01*
X77456236Y-80152752D01*
X77542720Y-80082720D01*
X77666211Y-79930221D01*
X77755298Y-79755379D01*
X77806086Y-79565836D01*
X77812500Y-79484337D01*
X77812499Y-79285927D01*
X77816294Y-79255485D01*
X77824594Y-79222712D01*
X77843546Y-78994000D01*
X77824594Y-78765288D01*
X77824593Y-78765283D01*
X77816293Y-78732507D01*
X77812499Y-78702067D01*
X77812499Y-78503673D01*
X77812498Y-78503663D01*
X77806086Y-78422164D01*
X77755298Y-78232621D01*
X77666211Y-78057779D01*
X77542720Y-77905280D01*
X77437858Y-77820364D01*
X77398148Y-77762879D01*
X77395820Y-77693048D01*
X77431615Y-77633044D01*
X77437848Y-77627642D01*
X77542720Y-77542720D01*
X77666211Y-77390221D01*
X77755298Y-77215379D01*
X77806086Y-77025836D01*
X77812500Y-76944337D01*
X77812499Y-76745927D01*
X77816294Y-76715485D01*
X77824594Y-76682712D01*
X77843546Y-76454000D01*
X77824594Y-76225288D01*
X77824593Y-76225283D01*
X77816293Y-76192507D01*
X77812499Y-76162067D01*
X77812499Y-75963673D01*
X77812498Y-75963663D01*
X77806086Y-75882164D01*
X77755298Y-75692621D01*
X77666211Y-75517779D01*
X77542720Y-75365280D01*
X77437858Y-75280364D01*
X77398148Y-75222879D01*
X77395820Y-75153048D01*
X77431615Y-75093044D01*
X77437848Y-75087642D01*
X77542720Y-75002720D01*
X77666211Y-74850221D01*
X77755298Y-74675379D01*
X77806086Y-74485836D01*
X77812500Y-74404337D01*
X77812499Y-74205927D01*
X77816294Y-74175485D01*
X77824594Y-74142712D01*
X77843546Y-73914000D01*
X77824594Y-73685288D01*
X77816293Y-73652507D01*
X77812499Y-73622067D01*
X77812499Y-73423673D01*
X77812498Y-73423663D01*
X77806086Y-73342164D01*
X77755298Y-73152621D01*
X77666211Y-72977779D01*
X77542720Y-72825280D01*
X77437858Y-72740364D01*
X77398148Y-72682879D01*
X77395820Y-72613048D01*
X77431615Y-72553044D01*
X77437848Y-72547642D01*
X77542720Y-72462720D01*
X77666211Y-72310221D01*
X77755298Y-72135379D01*
X77806086Y-71945836D01*
X77812500Y-71864337D01*
X77812499Y-71665927D01*
X77816294Y-71635485D01*
X77824594Y-71602712D01*
X77843546Y-71374000D01*
X77824594Y-71145288D01*
X77824593Y-71145283D01*
X77816293Y-71112507D01*
X77812499Y-71082067D01*
X77812499Y-70883673D01*
X77812498Y-70883663D01*
X77806086Y-70802164D01*
X77755298Y-70612621D01*
X77666211Y-70437779D01*
X77542720Y-70285280D01*
X77437858Y-70200364D01*
X77398148Y-70142879D01*
X77395820Y-70073048D01*
X77431615Y-70013044D01*
X77437848Y-70007642D01*
X77542720Y-69922720D01*
X77666211Y-69770221D01*
X77755298Y-69595379D01*
X77806086Y-69405836D01*
X77812500Y-69324337D01*
X77812499Y-69125927D01*
X77816294Y-69095485D01*
X77824594Y-69062712D01*
X77843546Y-68834000D01*
X77824594Y-68605288D01*
X77824593Y-68605283D01*
X77816293Y-68572507D01*
X77812499Y-68542067D01*
X77812499Y-68343673D01*
X77812498Y-68343663D01*
X77806086Y-68262164D01*
X77755298Y-68072621D01*
X77666211Y-67897779D01*
X77542720Y-67745280D01*
X77437858Y-67660364D01*
X77398148Y-67602879D01*
X77395820Y-67533048D01*
X77431615Y-67473044D01*
X77437848Y-67467642D01*
X77542720Y-67382720D01*
X77666211Y-67230221D01*
X77755298Y-67055379D01*
X77806086Y-66865836D01*
X77812500Y-66784337D01*
X77812499Y-66585927D01*
X77816294Y-66555485D01*
X77824594Y-66522712D01*
X77843546Y-66294000D01*
X77824594Y-66065288D01*
X77824593Y-66065283D01*
X77816293Y-66032507D01*
X77812499Y-66002067D01*
X77812499Y-65803673D01*
X77812498Y-65803663D01*
X77806086Y-65722164D01*
X77755298Y-65532621D01*
X77666211Y-65357779D01*
X77542720Y-65205280D01*
X77437858Y-65120364D01*
X77398148Y-65062879D01*
X77395820Y-64993048D01*
X77431615Y-64933044D01*
X77437848Y-64927642D01*
X77542720Y-64842720D01*
X77666211Y-64690221D01*
X77755298Y-64515379D01*
X77806086Y-64325836D01*
X77812500Y-64244337D01*
X77812499Y-64045927D01*
X77816294Y-64015485D01*
X77824594Y-63982712D01*
X77843546Y-63754000D01*
X77824594Y-63525288D01*
X77824593Y-63525283D01*
X77816293Y-63492507D01*
X77812499Y-63462067D01*
X77812499Y-63263673D01*
X77812498Y-63263663D01*
X77806086Y-63182164D01*
X77755298Y-62992621D01*
X77666211Y-62817779D01*
X77542720Y-62665280D01*
X77437858Y-62580364D01*
X77398148Y-62522879D01*
X77395820Y-62453048D01*
X77431615Y-62393044D01*
X77437848Y-62387642D01*
X77542720Y-62302720D01*
X77666211Y-62150221D01*
X77755298Y-61975379D01*
X77806086Y-61785836D01*
X77812500Y-61704337D01*
X77812499Y-61505927D01*
X77816294Y-61475485D01*
X77824594Y-61442712D01*
X77843546Y-61214000D01*
X77824594Y-60985288D01*
X77824593Y-60985283D01*
X77816293Y-60952507D01*
X77812499Y-60922067D01*
X77812499Y-60723673D01*
X77812498Y-60723663D01*
X77806086Y-60642164D01*
X77755298Y-60452621D01*
X77666211Y-60277779D01*
X77542720Y-60125280D01*
X77456249Y-60055257D01*
X77416538Y-59997769D01*
X77414210Y-59927939D01*
X77450006Y-59867935D01*
X77456250Y-59862524D01*
X77559180Y-59779174D01*
X77683283Y-59625918D01*
X77683283Y-59625917D01*
X77772813Y-59450203D01*
X77823854Y-59259715D01*
X77823854Y-59259714D01*
X77830299Y-59177819D01*
X77830300Y-59177806D01*
X77830300Y-58924000D01*
X76944713Y-58924000D01*
X76993704Y-58786152D01*
X77003949Y-58636382D01*
X76973406Y-58489403D01*
X76939517Y-58424000D01*
X77830300Y-58424000D01*
X77830300Y-58170193D01*
X77830299Y-58170180D01*
X77823854Y-58088285D01*
X77823854Y-58088284D01*
X77772813Y-57897796D01*
X77683283Y-57722082D01*
X77683283Y-57722081D01*
X77559178Y-57568823D01*
X77559176Y-57568821D01*
X77456250Y-57485474D01*
X77416538Y-57427988D01*
X77414210Y-57358157D01*
X77450005Y-57298153D01*
X77456236Y-57292752D01*
X77542720Y-57222720D01*
X77666211Y-57070221D01*
X77755298Y-56895379D01*
X77806086Y-56705836D01*
X77812500Y-56624337D01*
X77812499Y-56425927D01*
X77816294Y-56395485D01*
X77824594Y-56362712D01*
X77843546Y-56134000D01*
X77824594Y-55905288D01*
X77824593Y-55905283D01*
X77816293Y-55872507D01*
X77812499Y-55842067D01*
X77812499Y-55643673D01*
X77812498Y-55643663D01*
X77806086Y-55562164D01*
X77755298Y-55372621D01*
X77666211Y-55197779D01*
X77542720Y-55045280D01*
X77437858Y-54960364D01*
X77398148Y-54902879D01*
X77395820Y-54833048D01*
X77431615Y-54773044D01*
X77437848Y-54767642D01*
X77542720Y-54682720D01*
X77666211Y-54530221D01*
X77755298Y-54355379D01*
X77806086Y-54165836D01*
X77812500Y-54084337D01*
X77812499Y-53885927D01*
X77816294Y-53855485D01*
X77824594Y-53822712D01*
X77843546Y-53594000D01*
X77824594Y-53365288D01*
X77824593Y-53365283D01*
X77816293Y-53332507D01*
X77812499Y-53302067D01*
X77812499Y-53103673D01*
X77812498Y-53103663D01*
X77806086Y-53022164D01*
X77755298Y-52832621D01*
X77666211Y-52657779D01*
X77542720Y-52505280D01*
X77437858Y-52420364D01*
X77398148Y-52362879D01*
X77395820Y-52293048D01*
X77431615Y-52233044D01*
X77437848Y-52227642D01*
X77542720Y-52142720D01*
X77666211Y-51990221D01*
X77755298Y-51815379D01*
X77806086Y-51625836D01*
X77812500Y-51544337D01*
X77812499Y-51345927D01*
X77816294Y-51315485D01*
X77818290Y-51307603D01*
X77824594Y-51282712D01*
X77843546Y-51054000D01*
X77824594Y-50825288D01*
X77816293Y-50792507D01*
X77812499Y-50762067D01*
X77812499Y-50563673D01*
X77812498Y-50563663D01*
X77806086Y-50482164D01*
X77755298Y-50292621D01*
X77666211Y-50117779D01*
X77542720Y-49965280D01*
X77437858Y-49880364D01*
X77398148Y-49822879D01*
X77395820Y-49753048D01*
X77431615Y-49693044D01*
X77437848Y-49687642D01*
X77542720Y-49602720D01*
X77666211Y-49450221D01*
X77755298Y-49275379D01*
X77806086Y-49085836D01*
X77812500Y-49004337D01*
X77812499Y-48805927D01*
X77816294Y-48775485D01*
X77824594Y-48742712D01*
X77843546Y-48514000D01*
X77824594Y-48285288D01*
X77824593Y-48285283D01*
X77816293Y-48252507D01*
X77812499Y-48222067D01*
X77812499Y-48023673D01*
X77812498Y-48023663D01*
X77806086Y-47942164D01*
X77755298Y-47752621D01*
X77666211Y-47577779D01*
X77542720Y-47425280D01*
X77437858Y-47340364D01*
X77398148Y-47282879D01*
X77395820Y-47213048D01*
X77431615Y-47153044D01*
X77437848Y-47147642D01*
X77542720Y-47062720D01*
X77666211Y-46910221D01*
X77755298Y-46735379D01*
X77806086Y-46545836D01*
X77812500Y-46464337D01*
X77812499Y-46265927D01*
X77816294Y-46235485D01*
X77824594Y-46202712D01*
X77838572Y-46034025D01*
X77843546Y-45974005D01*
X77843546Y-45973994D01*
X77824595Y-45745296D01*
X77824593Y-45745283D01*
X77816293Y-45712507D01*
X77812499Y-45682067D01*
X77812499Y-45483673D01*
X77812498Y-45483663D01*
X77806086Y-45402164D01*
X77755298Y-45212621D01*
X77666211Y-45037779D01*
X77542720Y-44885280D01*
X77390221Y-44761789D01*
X77215379Y-44672702D01*
X77215378Y-44672701D01*
X77215377Y-44672701D01*
X77025834Y-44621913D01*
X76944342Y-44615500D01*
X76944337Y-44615500D01*
X76736630Y-44615500D01*
X76716220Y-44613809D01*
X76568748Y-44589200D01*
X76339252Y-44589200D01*
X76191776Y-44613809D01*
X76171367Y-44615500D01*
X74163673Y-44615500D01*
X74163654Y-44615501D01*
X74082165Y-44621913D01*
X73892622Y-44672701D01*
X73717780Y-44761788D01*
X73717773Y-44761793D01*
X73565280Y-44885280D01*
X73441793Y-45037773D01*
X73441788Y-45037780D01*
X73352701Y-45212622D01*
X73301913Y-45402165D01*
X73295500Y-45483657D01*
X73295500Y-46464326D01*
X73295501Y-46464345D01*
X73301913Y-46545834D01*
X73301914Y-46545836D01*
X73352702Y-46735379D01*
X73441789Y-46910221D01*
X73565280Y-47062720D01*
X73651103Y-47132218D01*
X73670140Y-47147634D01*
X73709851Y-47205121D01*
X73712179Y-47274952D01*
X73676383Y-47334956D01*
X73670140Y-47340366D01*
X73565280Y-47425280D01*
X73441793Y-47577773D01*
X73441788Y-47577780D01*
X73352701Y-47752622D01*
X73301913Y-47942165D01*
X73295500Y-48023657D01*
X73295500Y-49004326D01*
X73295501Y-49004345D01*
X73301913Y-49085834D01*
X73301914Y-49085836D01*
X73352702Y-49275379D01*
X73441789Y-49450221D01*
X73565280Y-49602720D01*
X73651103Y-49672218D01*
X73670140Y-49687634D01*
X73709851Y-49745121D01*
X73712179Y-49814952D01*
X73676383Y-49874956D01*
X73670140Y-49880366D01*
X73565280Y-49965280D01*
X73441793Y-50117773D01*
X73441788Y-50117780D01*
X73352701Y-50292622D01*
X73301913Y-50482165D01*
X73295500Y-50563657D01*
X73295500Y-51544326D01*
X73295501Y-51544345D01*
X73301913Y-51625834D01*
X73305633Y-51639715D01*
X73352702Y-51815379D01*
X73441789Y-51990221D01*
X73565280Y-52142720D01*
X73647376Y-52209200D01*
X73670140Y-52227634D01*
X73709851Y-52285121D01*
X73712179Y-52354952D01*
X73676383Y-52414956D01*
X73670140Y-52420366D01*
X73565280Y-52505280D01*
X73441793Y-52657773D01*
X73441788Y-52657780D01*
X73352701Y-52832622D01*
X73301913Y-53022165D01*
X73295500Y-53103657D01*
X73295500Y-54084326D01*
X73295501Y-54084345D01*
X73301913Y-54165834D01*
X73301914Y-54165836D01*
X73352702Y-54355379D01*
X73441789Y-54530221D01*
X73565280Y-54682720D01*
X73651103Y-54752218D01*
X73670140Y-54767634D01*
X73709851Y-54825121D01*
X73712179Y-54894952D01*
X73676383Y-54954956D01*
X73670140Y-54960366D01*
X73565280Y-55045280D01*
X73441793Y-55197773D01*
X73441788Y-55197780D01*
X73352701Y-55372622D01*
X73301913Y-55562165D01*
X73295500Y-55643657D01*
X73295500Y-56624326D01*
X73295501Y-56624345D01*
X73301913Y-56705834D01*
X73301914Y-56705836D01*
X73352702Y-56895379D01*
X73441789Y-57070221D01*
X73565280Y-57222720D01*
X73676893Y-57313102D01*
X73716604Y-57370589D01*
X73718932Y-57440420D01*
X73683137Y-57500424D01*
X73676894Y-57505833D01*
X73571324Y-57591323D01*
X73448957Y-57742432D01*
X73360682Y-57915684D01*
X73310355Y-58103502D01*
X73304000Y-58184256D01*
X73304000Y-58424000D01*
X75963287Y-58424000D01*
X75914296Y-58561848D01*
X75904051Y-58711618D01*
X75934594Y-58858597D01*
X75968483Y-58924000D01*
X73304000Y-58924000D01*
X73304000Y-59163743D01*
X73310355Y-59244497D01*
X73360682Y-59432315D01*
X73448957Y-59605567D01*
X73571324Y-59756675D01*
X73676893Y-59842164D01*
X73716604Y-59899651D01*
X73718932Y-59969482D01*
X73683136Y-60029486D01*
X73676894Y-60034895D01*
X73565280Y-60125279D01*
X73441793Y-60277773D01*
X73441788Y-60277780D01*
X73352701Y-60452622D01*
X73301913Y-60642165D01*
X73295500Y-60723657D01*
X73295500Y-61704326D01*
X73295501Y-61704345D01*
X73301913Y-61785834D01*
X73301914Y-61785836D01*
X73352702Y-61975379D01*
X73441789Y-62150221D01*
X73565280Y-62302720D01*
X73651103Y-62372218D01*
X73670140Y-62387634D01*
X73709851Y-62445121D01*
X73712179Y-62514952D01*
X73676383Y-62574956D01*
X73670140Y-62580366D01*
X73565280Y-62665280D01*
X73441793Y-62817773D01*
X73441788Y-62817780D01*
X73352701Y-62992622D01*
X73301913Y-63182165D01*
X73295500Y-63263657D01*
X73295500Y-64244326D01*
X73295501Y-64244345D01*
X73301913Y-64325834D01*
X73301914Y-64325836D01*
X73352702Y-64515379D01*
X73441789Y-64690221D01*
X73565280Y-64842720D01*
X73651103Y-64912218D01*
X73670140Y-64927634D01*
X73709851Y-64985121D01*
X73712179Y-65054952D01*
X73676383Y-65114956D01*
X73670140Y-65120366D01*
X73565280Y-65205280D01*
X73441793Y-65357773D01*
X73441788Y-65357780D01*
X73352701Y-65532622D01*
X73301913Y-65722165D01*
X73295500Y-65803657D01*
X73295500Y-66784326D01*
X73295501Y-66784345D01*
X73301913Y-66865834D01*
X73301914Y-66865836D01*
X73352702Y-67055379D01*
X73441789Y-67230221D01*
X73565280Y-67382720D01*
X73651103Y-67452218D01*
X73670140Y-67467634D01*
X73709851Y-67525121D01*
X73712179Y-67594952D01*
X73676383Y-67654956D01*
X73670140Y-67660366D01*
X73565280Y-67745280D01*
X73441793Y-67897773D01*
X73441788Y-67897780D01*
X73352701Y-68072622D01*
X73301913Y-68262165D01*
X73295500Y-68343657D01*
X73295500Y-69324326D01*
X73295501Y-69324345D01*
X73301913Y-69405834D01*
X73301914Y-69405836D01*
X73352702Y-69595379D01*
X73441789Y-69770221D01*
X73565280Y-69922720D01*
X73651103Y-69992218D01*
X73670140Y-70007634D01*
X73709851Y-70065121D01*
X73712179Y-70134952D01*
X73676383Y-70194956D01*
X73670140Y-70200366D01*
X73565280Y-70285280D01*
X73441793Y-70437773D01*
X73441788Y-70437780D01*
X73352701Y-70612622D01*
X73301913Y-70802165D01*
X73295500Y-70883657D01*
X73295500Y-71864326D01*
X73295501Y-71864345D01*
X73301913Y-71945834D01*
X73301914Y-71945836D01*
X73352702Y-72135379D01*
X73441789Y-72310221D01*
X73565280Y-72462720D01*
X73644906Y-72527200D01*
X73670140Y-72547634D01*
X73709851Y-72605121D01*
X73712179Y-72674952D01*
X73676383Y-72734956D01*
X73670140Y-72740366D01*
X73565280Y-72825280D01*
X73441793Y-72977773D01*
X73441788Y-72977780D01*
X73352701Y-73152622D01*
X73301913Y-73342165D01*
X73295500Y-73423657D01*
X73295500Y-73423670D01*
X73295501Y-74404322D01*
X73295501Y-74404345D01*
X73301913Y-74485834D01*
X73311073Y-74520017D01*
X73352702Y-74675379D01*
X73441789Y-74850221D01*
X73565280Y-75002720D01*
X73651103Y-75072218D01*
X73670140Y-75087634D01*
X73709851Y-75145121D01*
X73712179Y-75214952D01*
X73676383Y-75274956D01*
X73670140Y-75280366D01*
X73565280Y-75365280D01*
X73441793Y-75517773D01*
X73441788Y-75517780D01*
X73352701Y-75692622D01*
X73301913Y-75882165D01*
X73295500Y-75963657D01*
X73295500Y-76944326D01*
X73295501Y-76944345D01*
X73301913Y-77025834D01*
X73301914Y-77025836D01*
X73352702Y-77215379D01*
X73441789Y-77390221D01*
X73565280Y-77542720D01*
X73651103Y-77612218D01*
X73670140Y-77627634D01*
X73709851Y-77685121D01*
X73712179Y-77754952D01*
X73676383Y-77814956D01*
X73670140Y-77820366D01*
X73565280Y-77905280D01*
X73441793Y-78057773D01*
X73441788Y-78057780D01*
X73352701Y-78232622D01*
X73301913Y-78422165D01*
X73295500Y-78503657D01*
X73295500Y-79484326D01*
X73295501Y-79484345D01*
X73301913Y-79565834D01*
X73301914Y-79565836D01*
X73352702Y-79755379D01*
X73441789Y-79930221D01*
X73565280Y-80082720D01*
X73676821Y-80173044D01*
X73676893Y-80173102D01*
X73716604Y-80230589D01*
X73718932Y-80300420D01*
X73683137Y-80360424D01*
X73676894Y-80365833D01*
X73571324Y-80451323D01*
X73448957Y-80602432D01*
X73360682Y-80775684D01*
X73310355Y-80963502D01*
X73304000Y-81044256D01*
X73304000Y-81284000D01*
X75963287Y-81284000D01*
X75914296Y-81421848D01*
X75904051Y-81571618D01*
X75934594Y-81718597D01*
X75968483Y-81784000D01*
X73304000Y-81784000D01*
X73304000Y-82023743D01*
X73310355Y-82104497D01*
X73360682Y-82292315D01*
X73448957Y-82465567D01*
X73571324Y-82616675D01*
X73676893Y-82702164D01*
X73716604Y-82759651D01*
X73718932Y-82829482D01*
X73683136Y-82889486D01*
X73676894Y-82894895D01*
X73565280Y-82985279D01*
X73441793Y-83137773D01*
X73441788Y-83137780D01*
X73352701Y-83312622D01*
X73301913Y-83502165D01*
X73295500Y-83583657D01*
X73295500Y-84564326D01*
X73295501Y-84564345D01*
X73301913Y-84645834D01*
X73301914Y-84645836D01*
X73352702Y-84835379D01*
X73441789Y-85010221D01*
X73565280Y-85162720D01*
X73651103Y-85232218D01*
X73670140Y-85247634D01*
X73709851Y-85305121D01*
X73712179Y-85374952D01*
X73676383Y-85434956D01*
X73670140Y-85440366D01*
X73565280Y-85525280D01*
X73441793Y-85677773D01*
X73441788Y-85677780D01*
X73352701Y-85852622D01*
X73301913Y-86042165D01*
X73295500Y-86123657D01*
X73295500Y-87104326D01*
X73295501Y-87104345D01*
X73301913Y-87185834D01*
X73319236Y-87250482D01*
X73352702Y-87375379D01*
X73441789Y-87550221D01*
X73565280Y-87702720D01*
X73651103Y-87772218D01*
X73670140Y-87787634D01*
X73709851Y-87845121D01*
X73712179Y-87914952D01*
X73676383Y-87974956D01*
X73670140Y-87980366D01*
X73565280Y-88065280D01*
X73441793Y-88217773D01*
X73441788Y-88217780D01*
X73352701Y-88392622D01*
X73301913Y-88582165D01*
X73295500Y-88663657D01*
X73295500Y-89644326D01*
X73295501Y-89644345D01*
X73301913Y-89725834D01*
X73301914Y-89725836D01*
X73352702Y-89915379D01*
X73441789Y-90090221D01*
X73565280Y-90242720D01*
X73651103Y-90312218D01*
X73670140Y-90327634D01*
X73709851Y-90385121D01*
X73712179Y-90454952D01*
X73676383Y-90514956D01*
X73670140Y-90520366D01*
X73565280Y-90605280D01*
X73441793Y-90757773D01*
X73441788Y-90757780D01*
X73352701Y-90932622D01*
X73301913Y-91122165D01*
X73295500Y-91203657D01*
X73295500Y-92184326D01*
X73295501Y-92184345D01*
X73301913Y-92265834D01*
X73301914Y-92265836D01*
X73352702Y-92455379D01*
X73441789Y-92630221D01*
X73565280Y-92782720D01*
X73651103Y-92852218D01*
X73670140Y-92867634D01*
X73709851Y-92925121D01*
X73712179Y-92994952D01*
X73676383Y-93054956D01*
X73670140Y-93060366D01*
X73565280Y-93145280D01*
X73441793Y-93297773D01*
X73441788Y-93297780D01*
X73352701Y-93472622D01*
X73301913Y-93662165D01*
X73295500Y-93743657D01*
X73295500Y-94724326D01*
X68072000Y-94724326D01*
X68072000Y-47206650D01*
X68091685Y-47139611D01*
X68144489Y-47093856D01*
X68146499Y-47092959D01*
X68259257Y-47043982D01*
X68499870Y-46897662D01*
X68718319Y-46719941D01*
X68910533Y-46514130D01*
X69072932Y-46284063D01*
X69202491Y-46034025D01*
X69296797Y-45768674D01*
X69354092Y-45492954D01*
X69373310Y-45212000D01*
X69354092Y-44931046D01*
X69296797Y-44655326D01*
X69202492Y-44389978D01*
X69202493Y-44389978D01*
X69072931Y-44139936D01*
X68910533Y-43909870D01*
X68910528Y-43909864D01*
X68718315Y-43704055D01*
X68499876Y-43526342D01*
X68499865Y-43526335D01*
X68259263Y-43380021D01*
X68259259Y-43380019D01*
X68259257Y-43380018D01*
X68198999Y-43353844D01*
X68146597Y-43331082D01*
X68092950Y-43286317D01*
X68072021Y-43219656D01*
X68072000Y-43217348D01*
X68072000Y-41234624D01*
X68091685Y-41167585D01*
X68144489Y-41121830D01*
X68196000Y-41110624D01*
X100540073Y-41110624D01*
X100607112Y-41130309D01*
G37*
%TD.AperFunction*%
%TD*%
M02*
